%TF.GenerationSoftware,tscircuit,circuit-json-to-gerber,0.0.93*%
%TF.CreationDate,2026-08-16T00:00:55.430Z*%
%TF.SameCoordinates,Original*%
%TF.FileFunction,Copper,L2,Bot*%
%TF.FilePolarity,Positive*%
%FSLAX46Y46*%
%MOMM*%
G04 Gerber Fmt 4.6, Leading zero omitted, Abs format (unit mm)*
G04 Created by tscircuit (builder) date 2026-08-16T00:00:55.430Z*
G01*
%LPD*%
G75*
G04 APERTURE MACROS START*
%AMHORZPILL*
0 Horizontal pill (stadium) shape macro*
0 Parameters:*
0 $1 = Total width*
0 $2 = Total height*
0 $3 = Circle diameter (equal to height)*
0 $4 = Circle center offset
0 21 = Center Line(Exposure, Width, Height, Center X, Center Y, Rotation)*
0 1 = Circle(Exposure, Diameter, Center X, Center Y, Rotation)*
21,1,$1-$3,$2,0.0,0.0,0.0*
1,1,$3,0.0-$4,0.0*
1,1,$3,$4,0.0*%
%AMVERTPILL*
0 Vertical pill (stadium) shape macro*
0 Parameters:*
0 $1 = Total width*
0 $2 = Total height*
0 $3 = Circle diameter (equal to width)*
0 $4 = Circle center offset
0 21 = Center Line(Exposure, Width, Height, Center X, Center Y, Rotation)*
21,1,$1,$2-$3,0.0,0.0,0.0*
1,1,$3,0.0,0.0-$4*
1,1,$3,0.0,$4*%
%AMROUNDRECT*
0 Rectangle with rounded corners*
0 $1 Corner radius*
0 $2 $3 $4 $5 $6 $7 $8 $9 X,Y Position of each corner*
0 Polygon box body*
4,1,4,$2,$3,$4,$5,$6,$7,$8,$9,$2,$3,0*
0 Circles for rounded corners*
1,1,$1+$1,$2,$3*
1,1,$1+$1,$4,$5*
1,1,$1+$1,$6,$7*
1,1,$1+$1,$8,$9*
0 Rectangles between the rounded corners*
20,1,$1+$1,$2,$3,$4,$5,0*
20,1,$1+$1,$4,$5,$6,$7,0*
20,1,$1+$1,$6,$7,$8,$9,0*
20,1,$1+$1,$8,$9,$2,$3,0*%
G04 APERTURE MACROS END*
G04 aperture START LIST*
%ADD10C,0.100000*%
%ADD11C,0.150000*%
%ADD12C,0.100000*%
%ADD13C,0.045000*%
%ADD14C,0.120000*%
%ADD15C,0.036000*%
%ADD16VERTPILL,1.100000X2.000000X1.100000X0.450000*%
%ADD17HORZPILL,2.000000X1.100000X1.100000X0.450000*%
%ADD18VERTPILL,1.200000X1.800000X1.200000X0.300000*%
%ADD19HORZPILL,1.800000X1.200000X1.200000X0.300000*%
%ADD20C,0.063000*%
%ADD21C,0.000000*%
%ADD22C,0.040313*%
%ADD23C,0.072000*%
%ADD24C,0.081000*%
%ADD25R,2.900000X2.500000*%
%ADD26R,2.030000X1.750000*%
%ADD27R,0.900000X1.200000*%
%ADD28R,0.630000X0.840000*%
%ADD29C,0.090000*%
%ADD30C,0.300000*%
%TD*%
G04 aperture END LIST*
%ADD31C,1.100000*%
D31*
X-44675000Y029875000D03*
X-44675000Y029875000D02*
X-44675000Y028975000D01*
X-44675000Y028975000D03*
D31*
X-53325000Y029875000D03*
X-53325000Y029875000D02*
X-53325000Y028975000D01*
X-53325000Y028975000D03*
%ADD32C,1.200000*%
D32*
X-44675000Y033925000D03*
X-44675000Y033925000D02*
X-44675000Y033325000D01*
X-44675000Y033325000D03*
D32*
X-53325000Y033925000D03*
X-53325000Y033925000D02*
X-53325000Y033325000D01*
X-53325000Y033325000D03*
D25*
X-15300000Y017780000D03*
D25*
X-01850000Y020320000D03*
D27*
X-06925000Y025550000D03*
D27*
X-10225000Y025550000D03*
D25*
X003750000Y017780000D03*
D25*
X017200000Y020320000D03*
D27*
X012125000Y025550000D03*
D27*
X008825000Y025550000D03*
D25*
X022800000Y017780000D03*
D25*
X036250000Y020320000D03*
D27*
X031175000Y025550000D03*
D27*
X027875000Y025550000D03*
D25*
X041850000Y017780000D03*
D25*
X055300000Y020320000D03*
D27*
X050225000Y025550000D03*
D27*
X046925000Y025550000D03*
D25*
X-15300000Y-01270000D03*
D25*
X-01850000Y001270000D03*
D27*
X-06925000Y006500000D03*
D27*
X-10225000Y006500000D03*
D25*
X003750000Y-01270000D03*
D25*
X017200000Y001270000D03*
D27*
X012125000Y006500000D03*
D27*
X008825000Y006500000D03*
D25*
X022800000Y-01270000D03*
D25*
X036250000Y001270000D03*
D27*
X031175000Y006500000D03*
D27*
X027875000Y006500000D03*
D25*
X041850000Y-01270000D03*
D25*
X055300000Y001270000D03*
D27*
X050225000Y006500000D03*
D27*
X046925000Y006500000D03*
D25*
X-15300000Y-20320000D03*
D25*
X-01850000Y-17780000D03*
D27*
X-06925000Y-12550000D03*
D27*
X-10225000Y-12550000D03*
D25*
X003750000Y-20320000D03*
D25*
X017200000Y-17780000D03*
D27*
X012125000Y-12550000D03*
D27*
X008825000Y-12550000D03*
D25*
X022800000Y-20320000D03*
D25*
X036250000Y-17780000D03*
D27*
X031175000Y-12550000D03*
D27*
X027875000Y-12550000D03*
D25*
X041850000Y-20320000D03*
D25*
X055300000Y-17780000D03*
D27*
X050225000Y-12550000D03*
D27*
X046925000Y-12550000D03*
D10*
X-49066000Y003201000D02*
X-49066000Y003201000D01*
D10*
X-49066000Y003201000D02*
X-48767000Y003500000D01*
D10*
X-48767000Y003500000D02*
X-47440879Y003500000D01*
D10*
X-47440879Y003500000D02*
X-47361875Y003500000D01*
D10*
X-47361875Y003500000D02*
X-47106127Y003244251D01*
D10*
X-47106127Y003244251D02*
X-47106127Y003240127D01*
D10*
X-47106127Y003240127D02*
X-46998000Y003132000D01*
D10*
X-46998000Y003132000D02*
X-46998000Y003132000D01*
D10*
X-48400000Y-02216000D02*
X-48400000Y-02216000D01*
D10*
X-48400000Y-02216000D02*
X-48400000Y-02252795D01*
D10*
X-48400000Y-02252795D02*
X-46620000Y-04032795D01*
D10*
X-46620000Y-04032795D02*
X-46620000Y-04607000D01*
D10*
X-46620000Y-04607000D02*
X-46620000Y-04607000D01*
D11*
X-41883000Y-03623000D02*
X-41883000Y-03623000D01*
D11*
X-41883000Y-03623000D02*
X-41883000Y-02181768D01*
D11*
X-41883000Y-02181768D02*
X-41842178Y-02140947D01*
D11*
X-41842178Y-02140947D02*
X-41842178Y-02049178D01*
D11*
X-41842178Y-02049178D02*
X-41808000Y-02015000D01*
D11*
X-41808000Y-02015000D02*
X-41808000Y-02015000D01*
D10*
X-49209000Y-07688000D02*
X-49209000Y-07688000D01*
D10*
X-49209000Y-07688000D02*
X-51469803Y-07688000D01*
D10*
X-51469803Y-07688000D02*
X-52358411Y-06799392D01*
D10*
X-52358411Y-06799392D02*
X-52358411Y-06834589D01*
D10*
X-52358411Y-06834589D02*
X-52316000Y-06877000D01*
D10*
X-52316000Y-06877000D02*
X-52316000Y-06877000D01*
D10*
X-50142000Y-02141000D02*
X-50142000Y-02141000D01*
D10*
X-50142000Y-02141000D02*
X-50130585Y-02129585D01*
D10*
X-50130585Y-02129585D02*
X-50130585Y-02056470D01*
D10*
X-50130585Y-02056470D02*
X-50040000Y-01965886D01*
D10*
X-50040000Y-01965886D02*
X-50040000Y-01345000D01*
D10*
X-50040000Y-01345000D02*
X-50040000Y-01345000D01*
D10*
X-47768000Y025587000D02*
X-47768000Y025587000D01*
D10*
X-47768000Y025587000D02*
X-47768000Y024610000D01*
D10*
X-47768000Y024610000D02*
X-47576382Y024418382D01*
D10*
X-47576382Y024418382D02*
X-47550000Y024392000D01*
D10*
X-47550000Y024392000D02*
X-47550000Y024392000D01*
D10*
X-40800000Y-05000000D02*
X-40800000Y-05000000D01*
D10*
X-40800000Y-05000000D02*
X-41385676Y-05000000D01*
D10*
X-41385676Y-05000000D02*
X-41854700Y-05469024D01*
D10*
X-41854700Y-05469024D02*
X-41909024Y-05469024D01*
D10*
X-41909024Y-05469024D02*
X-42012000Y-05572000D01*
D10*
X-42012000Y-05572000D02*
X-42012000Y-05572000D01*
D10*
X-38794000Y018954000D02*
X-38794000Y018954000D01*
D10*
X-38794000Y018954000D02*
X-40826000Y018954000D01*
D10*
X-40826000Y018954000D02*
X-41682957Y019810957D01*
D10*
X-41682957Y019810957D02*
X-41687000Y019815000D01*
D10*
X-41687000Y019815000D02*
X-41687000Y019815000D01*
D10*
X-39703000Y015754000D02*
X-39703000Y015754000D01*
D10*
X-39703000Y015754000D02*
X-39631634Y015825366D01*
D10*
X-39631634Y015825366D02*
X-39631634Y015878608D01*
D10*
X-39631634Y015878608D02*
X-39408000Y016102242D01*
D10*
X-39408000Y016102242D02*
X-39408000Y017535000D01*
D10*
X-39408000Y017535000D02*
X-39408000Y017535000D01*
D10*
X-49049000Y024818000D02*
X-49049000Y024818000D01*
D10*
X-49049000Y024818000D02*
X-55128114Y024818000D01*
D10*
X-55128114Y024818000D02*
X-55601738Y024344376D01*
D10*
X-55601738Y024344376D02*
X-55744376Y024344376D01*
D10*
X-55744376Y024344376D02*
X-55800000Y024400000D01*
D10*
X-55800000Y024400000D02*
X-55800000Y024400000D01*
D11*
X-47265000Y-04211000D02*
X-47265000Y-04211000D01*
D11*
X-47265000Y-04211000D02*
X-47394919Y-04340919D01*
D11*
X-47394919Y-04340919D02*
X-47394919Y-04369504D01*
D11*
X-47394919Y-04369504D02*
X-47394919Y-20862919D01*
D11*
X-47394919Y-20862919D02*
X-49696000Y-23164000D01*
D11*
X-49696000Y-23164000D02*
X-49696000Y-23164000D01*
D11*
X-53584000Y-23773000D02*
X-53584000Y-23773000D01*
D11*
X-53584000Y-23773000D02*
X-53608396Y-23797396D01*
D11*
X-53608396Y-23797396D02*
X-53608396Y-23904511D01*
D11*
X-53608396Y-23904511D02*
X-53648000Y-23944115D01*
D11*
X-53648000Y-23944115D02*
X-53648000Y-26137000D01*
D11*
X-53648000Y-26137000D02*
X-53648000Y-26137000D01*
D11*
X-48522000Y-04271000D02*
X-48522000Y-04271000D01*
D11*
X-48522000Y-04271000D02*
X-48522000Y-04140439D01*
D11*
X-48522000Y-04140439D02*
X-48959240Y-03703199D01*
D11*
X-48959240Y-03703199D02*
X-48968801Y-03703199D01*
D11*
X-48968801Y-03703199D02*
X-49025000Y-03647000D01*
D11*
X-49025000Y-03647000D02*
X-49025000Y-03647000D01*
D11*
X-56200000Y-11200000D02*
X-56200000Y-11200000D01*
D11*
X-56200000Y-11200000D02*
X-56173880Y-11226120D01*
D11*
X-56173880Y-11226120D02*
X-55618000Y-11782000D01*
D11*
X-55618000Y-11782000D02*
X-55618000Y-15018000D01*
D11*
X-55618000Y-15018000D02*
X-55618000Y-15018000D01*
D10*
X-47494000Y031009000D02*
X-47494000Y031009000D01*
D10*
X-47494000Y031009000D02*
X-47416089Y030931089D01*
D10*
X-47416089Y030931089D02*
X-47416089Y030873520D01*
D10*
X-47416089Y030873520D02*
X-46867000Y030324431D01*
D10*
X-46867000Y030324431D02*
X-46867000Y027602000D01*
D10*
X-46867000Y027602000D02*
X-46867000Y027602000D01*
D10*
X-47731000Y015090000D02*
X-47731000Y015090000D01*
D10*
X-47731000Y015090000D02*
X-47799675Y015021325D01*
D10*
X-47799675Y015021325D02*
X-47799675Y014877771D01*
D10*
X-47799675Y014877771D02*
X-48164000Y014513447D01*
D10*
X-48164000Y014513447D02*
X-48164000Y006644000D01*
D10*
X-48164000Y006644000D02*
X-48164000Y006644000D01*
D10*
X-45600000Y019977000D02*
X-45600000Y019977000D01*
D10*
X-45600000Y019977000D02*
X-45600000Y019835413D01*
D10*
X-45600000Y019835413D02*
X-46024421Y019410992D01*
D10*
X-46024421Y019410992D02*
X-46024421Y008762328D01*
D10*
X-46024421Y008762328D02*
X-46024421Y007004579D01*
D10*
X-46024421Y007004579D02*
X-46725000Y006304000D01*
D10*
X-46725000Y006304000D02*
X-46725000Y006304000D01*
D10*
X-52697000Y005449000D02*
X-52697000Y005449000D01*
D10*
X-52697000Y005449000D02*
X-52697000Y003912220D01*
D10*
X-52697000Y003912220D02*
X-53730901Y002878318D01*
D10*
X-53730901Y002878318D02*
X-53730901Y002869099D01*
D10*
X-53730901Y002869099D02*
X-53800000Y002800000D01*
D10*
X-53800000Y002800000D02*
X-53800000Y002800000D01*
D10*
X-48305000Y003161000D02*
X-48305000Y003161000D01*
D10*
X-48305000Y003161000D02*
X-48312464Y003161000D01*
D10*
X-48312464Y003161000D02*
X-48835375Y002638088D01*
D10*
X-48835375Y002638088D02*
X-48842912Y002638088D01*
D10*
X-48842912Y002638088D02*
X-48889000Y002592000D01*
D10*
X-48889000Y002592000D02*
X-48889000Y002592000D01*
D10*
X-39937000Y-05102000D02*
X-39937000Y-05102000D01*
D10*
X-39937000Y-05102000D02*
X-39837649Y-05002649D01*
D10*
X-39837649Y-05002649D02*
X-39837649Y-04937391D01*
D10*
X-39837649Y-04937391D02*
X-40646097Y-04128943D01*
D10*
X-40646097Y-04128943D02*
X-40646097Y-03273680D01*
D10*
X-40646097Y-03273680D02*
X-40646097Y-03273680D01*
D10*
X-57509784Y-00463929D02*
X-57509784Y-00463929D01*
D10*
X-57509784Y-00463929D02*
X-53626250Y-00463929D01*
D10*
X-53626250Y-00463929D02*
X-53147000Y-00943180D01*
D10*
X-53147000Y-00943180D02*
X-53147000Y-00890280D01*
D10*
X-53147000Y-00890280D02*
X-53271192Y-00869458D01*
D10*
X-53271192Y-00869458D02*
X-53271192Y-00869458D01*
D10*
X-54087000Y-04519000D02*
X-54087000Y-04519000D01*
D10*
X-54087000Y-04519000D02*
X-54087000Y-03799035D01*
D10*
X-54087000Y-03799035D02*
X-54107412Y-03778623D01*
D10*
X-54107412Y-03778623D02*
X-54107412Y-03733412D01*
D10*
X-54107412Y-03733412D02*
X-54091000Y-03717000D01*
D10*
X-54091000Y-03717000D02*
X-54091000Y-03717000D01*
D10*
X-41778000Y015418000D02*
X-41778000Y015418000D01*
D10*
X-41778000Y015418000D02*
X-41743711Y015452289D01*
D10*
X-41743711Y015452289D02*
X-41743711Y015461499D01*
D10*
X-41743711Y015461499D02*
X-41049000Y016156210D01*
D10*
X-41049000Y016156210D02*
X-41049000Y018422000D01*
D10*
X-41049000Y018422000D02*
X-41049000Y018422000D01*
D10*
X-46968000Y007046000D02*
X-46968000Y007046000D01*
D10*
X-46968000Y007046000D02*
X-46968000Y007758758D01*
D10*
X-46968000Y007758758D02*
X-46993285Y007784043D01*
D10*
X-46993285Y007784043D02*
X-46993285Y008000285D01*
D10*
X-46993285Y008000285D02*
X-46994000Y008001000D01*
D10*
X-46994000Y008001000D02*
X-46994000Y008001000D01*
D10*
X-53946000Y015603000D02*
X-53946000Y015603000D01*
D10*
X-53946000Y015603000D02*
X-53946000Y019732336D01*
D10*
X-53946000Y019732336D02*
X-54228597Y020014933D01*
D10*
X-54228597Y020014933D02*
X-54228597Y020047597D01*
D10*
X-54228597Y020047597D02*
X-54271000Y020090000D01*
D10*
X-54271000Y020090000D02*
X-54271000Y020090000D01*
D10*
X-54289000Y-09611000D02*
X-54289000Y-09611000D01*
D10*
X-54289000Y-09611000D02*
X-54130649Y-09769351D01*
D10*
X-54130649Y-09769351D02*
X-54120220Y-09769351D01*
D10*
X-54120220Y-09769351D02*
X-51471570Y-12418000D01*
D10*
X-51471570Y-12418000D02*
X-51350000Y-12418000D01*
D10*
X-51350000Y-12418000D02*
X-51350000Y-12418000D01*
D10*
X-49932000Y007074000D02*
X-49932000Y007074000D01*
D10*
X-49932000Y007074000D02*
X-49932000Y009071342D01*
D10*
X-49932000Y009071342D02*
X-49754930Y009248412D01*
D10*
X-49754930Y009248412D02*
X-49754930Y009318070D01*
D10*
X-49754930Y009318070D02*
X-49687000Y009386000D01*
D10*
X-49687000Y009386000D02*
X-49687000Y009386000D01*
D10*
X-48800000Y006718000D02*
X-48800000Y006718000D01*
D10*
X-48800000Y006718000D02*
X-48800000Y008723299D01*
D10*
X-48800000Y008723299D02*
X-48628275Y008895023D01*
D10*
X-48628275Y008895023D02*
X-48628275Y008943725D01*
D10*
X-48628275Y008943725D02*
X-48607000Y008965000D01*
D10*
X-48607000Y008965000D02*
X-48607000Y008965000D01*
D10*
X-50678000Y006850000D02*
X-50678000Y006850000D01*
D10*
X-50678000Y006850000D02*
X-50678000Y009788169D01*
D10*
X-50678000Y009788169D02*
X-50458257Y010007912D01*
D10*
X-50458257Y010007912D02*
X-50458257Y010111743D01*
D10*
X-50458257Y010111743D02*
X-50384000Y010186000D01*
D10*
X-50384000Y010186000D02*
X-50384000Y010186000D01*
D10*
X-44951000Y011912000D02*
X-44951000Y011912000D01*
D10*
X-44951000Y011912000D02*
X-44951000Y011121776D01*
D10*
X-44951000Y011121776D02*
X-43743837Y009914613D01*
D10*
X-43743837Y009914613D02*
X-43743837Y009906837D01*
D10*
X-43743837Y009906837D02*
X-43621000Y009784000D01*
D10*
X-43621000Y009784000D02*
X-43621000Y009784000D01*
D10*
X-51069977Y003279674D02*
X-51069977Y003279674D01*
D10*
X-51069977Y003279674D02*
X-48453594Y005896058D01*
D10*
X-48453594Y005896058D02*
X-46313155Y005896058D01*
D10*
X-46313155Y005896058D02*
X-45732544Y006476668D01*
D10*
X-45732544Y006476668D02*
X-45732544Y007582443D01*
D10*
X-45732544Y007582443D02*
X-45732544Y007737456D01*
D10*
X-45732544Y007737456D02*
X-45697000Y007773000D01*
D10*
X-45697000Y007773000D02*
X-45697000Y007773000D01*
D10*
X-49554000Y005451000D02*
X-49554000Y005451000D01*
D10*
X-49554000Y005451000D02*
X-49554000Y008849581D01*
D10*
X-49554000Y008849581D02*
X-49113138Y009290443D01*
D10*
X-49113138Y009290443D02*
X-49113138Y009864862D01*
D10*
X-49113138Y009864862D02*
X-48991351Y009986649D01*
D10*
X-48991351Y009986649D02*
X-48987000Y009991000D01*
D10*
X-48987000Y009991000D02*
X-48987000Y009991000D01*
D10*
X-51475023Y003189326D02*
X-51475023Y003189326D01*
D10*
X-51475023Y003189326D02*
X-51168623Y002882925D01*
D10*
X-51168623Y002882925D02*
X-50867771Y002882925D01*
D10*
X-50867771Y002882925D02*
X-48257562Y005493135D01*
D10*
X-48257562Y005493135D02*
X-46201790Y005493135D01*
D10*
X-46201790Y005493135D02*
X-44124482Y007570443D01*
D10*
X-44124482Y007570443D02*
X-44124482Y008027517D01*
D10*
X-44124482Y008027517D02*
X-44124482Y008186482D01*
D10*
X-44124482Y008186482D02*
X-44126000Y008188000D01*
D10*
X-44126000Y008188000D02*
X-44126000Y008188000D01*
D11*
X-48644000Y026199000D02*
X-48644000Y026199000D01*
D11*
X-48644000Y026199000D02*
X-48598997Y026153997D01*
D11*
X-48598997Y026153997D02*
X-48598997Y026048170D01*
D11*
X-48598997Y026048170D02*
X-48598997Y021907997D01*
D11*
X-48598997Y021907997D02*
X-47815000Y021124000D01*
D11*
X-47815000Y021124000D02*
X-47815000Y021124000D01*
D11*
X-48400000Y030600000D02*
X-48400000Y030600000D01*
D11*
X-48400000Y030600000D02*
X-48400000Y030400302D01*
D11*
X-48400000Y030400302D02*
X-49141946Y029658356D01*
D11*
X-49141946Y029658356D02*
X-49210644Y029658356D01*
D11*
X-49210644Y029658356D02*
X-49259000Y029610000D01*
D11*
X-49259000Y029610000D02*
X-49259000Y029610000D01*
D11*
X-47924000Y027191000D02*
X-47924000Y027191000D01*
D11*
X-47924000Y027191000D02*
X-47038171Y026305171D01*
D11*
X-47038171Y026305171D02*
X-47038171Y023223007D01*
D11*
X-47038171Y023223007D02*
X-47038171Y023145171D01*
D11*
X-47038171Y023145171D02*
X-47014000Y023121000D01*
D11*
X-47014000Y023121000D02*
X-47014000Y023121000D01*
D30*
X-49066000Y003201000D03*
D30*
X-46998000Y003132000D03*
D30*
X-48400000Y-02216000D03*
D30*
X-46620000Y-04607000D03*
D30*
X-41883000Y-03623000D03*
D30*
X-41808000Y-02015000D03*
D30*
X-49209000Y-07688000D03*
D30*
X-52316000Y-06877000D03*
D30*
X-50142000Y-02141000D03*
D30*
X-50040000Y-01345000D03*
D30*
X-47768000Y025587000D03*
D30*
X-47550000Y024392000D03*
D30*
X-40800000Y-05000000D03*
D30*
X-42012000Y-05572000D03*
D30*
X-38794000Y018954000D03*
D30*
X-41687000Y019815000D03*
D30*
X-39703000Y015754000D03*
D30*
X-39408000Y017535000D03*
D30*
X-49049000Y024818000D03*
D30*
X-55800000Y024400000D03*
D30*
X-47265000Y-04211000D03*
D30*
X-49696000Y-23164000D03*
D30*
X-53584000Y-23773000D03*
D30*
X-53648000Y-26137000D03*
D30*
X-48522000Y-04271000D03*
D30*
X-49025000Y-03647000D03*
D30*
X-56200000Y-11200000D03*
D30*
X-55618000Y-15018000D03*
D30*
X-47494000Y031009000D03*
D30*
X-46867000Y027602000D03*
D30*
X-47731000Y015090000D03*
D30*
X-48164000Y006644000D03*
D30*
X-45600000Y019977000D03*
D30*
X-46725000Y006304000D03*
D30*
X-52697000Y005449000D03*
D30*
X-53800000Y002800000D03*
D30*
X-48305000Y003161000D03*
D30*
X-48889000Y002592000D03*
D30*
X-39937000Y-05102000D03*
D30*
X-40646097Y-03273680D03*
D30*
X-57509784Y-00463929D03*
D30*
X-53271192Y-00869458D03*
D30*
X-54087000Y-04519000D03*
D30*
X-54091000Y-03717000D03*
D30*
X-41778000Y015418000D03*
D30*
X-41049000Y018422000D03*
D30*
X-46968000Y007046000D03*
D30*
X-46994000Y008001000D03*
D30*
X-53946000Y015603000D03*
D30*
X-54271000Y020090000D03*
D30*
X-54289000Y-09611000D03*
D30*
X-51350000Y-12418000D03*
D30*
X-49932000Y007074000D03*
D30*
X-49687000Y009386000D03*
D30*
X-48800000Y006718000D03*
D30*
X-48607000Y008965000D03*
D30*
X-50678000Y006850000D03*
D30*
X-50384000Y010186000D03*
D30*
X-44951000Y011912000D03*
D30*
X-43621000Y009784000D03*
D30*
X-51069977Y003279674D03*
D30*
X-45697000Y007773000D03*
D30*
X-49554000Y005451000D03*
D30*
X-48987000Y009991000D03*
D30*
X-51475023Y003189326D03*
D30*
X-44126000Y008188000D03*
D30*
X-48644000Y026199000D03*
D30*
X-47815000Y021124000D03*
D30*
X-48400000Y030600000D03*
D30*
X-49259000Y029610000D03*
D30*
X-47924000Y027191000D03*
D30*
X-47014000Y023121000D03*
D11*
X041850000Y017780000D02*
X041850000Y-01270000D01*
D11*
X041850000Y-01270000D02*
X041850000Y-07050750D01*
D11*
X041850000Y-07050750D02*
X041341586Y-07559164D01*
D11*
X041341586Y-07559164D02*
X041341586Y-07592414D01*
D11*
X041341586Y-07592414D02*
X041275000Y-07659000D01*
D11*
X041275000Y-07659000D02*
X041275000Y-07659000D01*
D11*
X042794000Y-15985000D02*
X042794000Y-15985000D01*
D11*
X042794000Y-15985000D02*
X042794000Y-19376000D01*
D11*
X042794000Y-19376000D02*
X041850000Y-20320000D01*
D11*
X022800000Y017780000D02*
X022800000Y-01270000D01*
D11*
X022800000Y-01270000D02*
X022800000Y-08435358D01*
D11*
X022800000Y-08435358D02*
X022563442Y-08671915D01*
D11*
X022563442Y-08671915D02*
X022563442Y-08746558D01*
D11*
X022563442Y-08746558D02*
X022505000Y-08805000D01*
D11*
X022505000Y-08805000D02*
X022505000Y-08805000D01*
D11*
X023744000Y-15985000D02*
X023744000Y-15985000D01*
D11*
X023744000Y-15985000D02*
X023744000Y-19376000D01*
D11*
X023744000Y-19376000D02*
X022800000Y-20320000D01*
D11*
X003750000Y017780000D02*
X003750000Y-01270000D01*
D11*
X003750000Y-01270000D02*
X003305000Y-01715000D01*
D11*
X003305000Y-01715000D02*
X003305000Y-08805000D01*
D11*
X003305000Y-08805000D02*
X003305000Y-08805000D01*
D11*
X003187000Y-13944000D02*
X003187000Y-13944000D01*
D11*
X003187000Y-13944000D02*
X003264450Y-14021450D01*
D11*
X003264450Y-14021450D02*
X003750000Y-14507000D01*
D11*
X003750000Y-14507000D02*
X003750000Y-20320000D01*
D11*
X-15300000Y017780000D02*
X-15300000Y-01270000D01*
D11*
X-15300000Y-01270000D02*
X-15300000Y-20320000D01*
D11*
X008825000Y-12550000D02*
X009708676Y-11666324D01*
D11*
X009708676Y-11666324D02*
X026991324Y-11666324D01*
D11*
X026991324Y-11666324D02*
X027875000Y-12550000D01*
D11*
X-10225000Y-12550000D02*
X-09341307Y-11666307D01*
D11*
X-09341307Y-11666307D02*
X007941307Y-11666307D01*
D11*
X007941307Y-11666307D02*
X008825000Y-12550000D01*
D11*
X027875000Y-12550000D02*
X028755244Y-11669756D01*
D11*
X028755244Y-11669756D02*
X046039909Y-11669756D01*
D11*
X046039909Y-11669756D02*
X046044756Y-11669756D01*
D11*
X046044756Y-11669756D02*
X046925000Y-12550000D01*
D11*
X008825000Y006500000D02*
X009868000Y007543000D01*
D11*
X009868000Y007543000D02*
X020056000Y007543000D01*
D11*
X020056000Y007543000D02*
X020056000Y007543000D01*
D11*
X024803000Y007229000D02*
X024803000Y007229000D01*
D11*
X024803000Y007229000D02*
X024863801Y007168199D01*
D11*
X024863801Y007168199D02*
X024901869Y007168199D01*
D11*
X024901869Y007168199D02*
X025570067Y006500000D01*
D11*
X025570067Y006500000D02*
X027875000Y006500000D01*
D11*
X-10225000Y006500000D02*
X-09432803Y007292197D01*
D11*
X-09432803Y007292197D02*
X000446570Y007292197D01*
D11*
X000446570Y007292197D02*
X000553803Y007292197D01*
D11*
X000553803Y007292197D02*
X000819000Y007027000D01*
D11*
X000819000Y007027000D02*
X000819000Y007027000D01*
D11*
X007200000Y008000000D02*
X007200000Y008000000D01*
D11*
X007200000Y008000000D02*
X007325000Y008000000D01*
D11*
X007325000Y008000000D02*
X008825000Y006500000D01*
D11*
X027875000Y006500000D02*
X028652874Y007277874D01*
D11*
X028652874Y007277874D02*
X036550680Y007277874D01*
D11*
X036550680Y007277874D02*
X036577224Y007277874D01*
D11*
X036577224Y007277874D02*
X037088455Y006766643D01*
D11*
X037088455Y006766643D02*
X037125357Y006766643D01*
D11*
X037125357Y006766643D02*
X037220000Y006672000D01*
D11*
X037220000Y006672000D02*
X037220000Y006672000D01*
D11*
X043460000Y005668000D02*
X043460000Y005668000D01*
D11*
X043460000Y005668000D02*
X046093000Y005668000D01*
D11*
X046093000Y005668000D02*
X046925000Y006500000D01*
D11*
X008825000Y025550000D02*
X009049383Y025774383D01*
D11*
X009049383Y025774383D02*
X009049383Y026325001D01*
D11*
X009049383Y026325001D02*
X027099999Y026325001D01*
D11*
X027099999Y026325001D02*
X027875000Y025550000D01*
D11*
X-10225000Y025550000D02*
X-08233593Y025642000D01*
D11*
X-08233593Y025642000D02*
X-07520593Y026355000D01*
D11*
X-07520593Y026355000D02*
X-07225000Y026355000D01*
D11*
X-07225000Y026355000D02*
X-06975000Y026355000D01*
D11*
X-06975000Y026355000D02*
X-06775000Y026355000D01*
D11*
X-06775000Y026355000D02*
X-06525000Y026355000D01*
D11*
X-06525000Y026355000D02*
X-06275000Y026355000D01*
D11*
X-06275000Y026355000D02*
X-06276789Y026263000D01*
D11*
X-06276789Y026263000D02*
X008112000Y026263000D01*
D11*
X008112000Y026263000D02*
X008825000Y025550000D01*
D11*
X027875000Y025550000D02*
X028692326Y026367326D01*
D11*
X028692326Y026367326D02*
X046013852Y026367326D01*
D11*
X046013852Y026367326D02*
X046107674Y026367326D01*
D11*
X046107674Y026367326D02*
X046925000Y025550000D01*
D11*
X055300000Y-17780000D02*
X050225000Y-12705000D01*
D11*
X050225000Y-12705000D02*
X050225000Y-12550000D01*
D11*
X036250000Y-17780000D02*
X036250000Y-17625000D01*
D11*
X036250000Y-17625000D02*
X031175000Y-12550000D01*
D11*
X017200000Y-17780000D02*
X017200000Y-17625000D01*
D11*
X017200000Y-17625000D02*
X012125000Y-12550000D01*
D11*
X-01850000Y-17780000D02*
X-01850000Y-17625000D01*
D11*
X-01850000Y-17625000D02*
X-06925000Y-12550000D01*
D11*
X055300000Y001270000D02*
X055300000Y001425000D01*
D11*
X055300000Y001425000D02*
X050225000Y006500000D01*
D11*
X036250000Y001270000D02*
X036250000Y001425000D01*
D11*
X036250000Y001425000D02*
X031175000Y006500000D01*
D11*
X017200000Y001270000D02*
X017200000Y001425000D01*
D11*
X017200000Y001425000D02*
X012125000Y006500000D01*
D11*
X-01850000Y001270000D02*
X-01850000Y001425000D01*
D11*
X-01850000Y001425000D02*
X-06925000Y006500000D01*
D11*
X055300000Y020320000D02*
X050225000Y025395000D01*
D11*
X050225000Y025395000D02*
X050225000Y025550000D01*
D11*
X036250000Y020320000D02*
X031175000Y025395000D01*
D11*
X031175000Y025395000D02*
X031175000Y025550000D01*
D11*
X017200000Y020320000D02*
X012125000Y025395000D01*
D11*
X012125000Y025395000D02*
X012125000Y025550000D01*
D11*
X-01850000Y020320000D02*
X-01850000Y020475000D01*
D11*
X-01850000Y020475000D02*
X-06925000Y025550000D01*
D30*
X041275000Y-07659000D03*
D30*
X042794000Y-15985000D03*
D30*
X022505000Y-08805000D03*
D30*
X023744000Y-15985000D03*
D30*
X003305000Y-08805000D03*
D30*
X003187000Y-13944000D03*
D30*
X020056000Y007543000D03*
D30*
X024803000Y007229000D03*
D30*
X000819000Y007027000D03*
D30*
X007200000Y008000000D03*
D30*
X037220000Y006672000D03*
D30*
X043460000Y005668000D03*
M02*