%TF.GenerationSoftware,tscircuit,circuit-json-to-gerber,0.0.93*%
%TF.CreationDate,2026-08-16T00:00:55.430Z*%
%TF.SameCoordinates,Original*%
%TF.FileFunction,Paste,Bot*%
%TF.FilePolarity,Positive*%
%FSLAX46Y46*%
%MOMM*%
G04 Gerber Fmt 4.6, Leading zero omitted, Abs format (unit mm)*
G04 Created by tscircuit (builder) date 2026-08-16T00:00:55.430Z*
G01*
%LPD*%
G75*
G04 APERTURE MACROS START*
%AMHORZPILL*
0 Horizontal pill (stadium) shape macro*
0 Parameters:*
0 $1 = Total width*
0 $2 = Total height*
0 $3 = Circle diameter (equal to height)*
0 $4 = Circle center offset
0 21 = Center Line(Exposure, Width, Height, Center X, Center Y, Rotation)*
0 1 = Circle(Exposure, Diameter, Center X, Center Y, Rotation)*
21,1,$1-$3,$2,0.0,0.0,0.0*
1,1,$3,0.0-$4,0.0*
1,1,$3,$4,0.0*%
%AMVERTPILL*
0 Vertical pill (stadium) shape macro*
0 Parameters:*
0 $1 = Total width*
0 $2 = Total height*
0 $3 = Circle diameter (equal to width)*
0 $4 = Circle center offset
0 21 = Center Line(Exposure, Width, Height, Center X, Center Y, Rotation)*
21,1,$1,$2-$3,0.0,0.0,0.0*
1,1,$3,0.0,0.0-$4*
1,1,$3,0.0,$4*%
%AMROUNDRECT*
0 Rectangle with rounded corners*
0 $1 Corner radius*
0 $2 $3 $4 $5 $6 $7 $8 $9 X,Y Position of each corner*
0 Polygon box body*
4,1,4,$2,$3,$4,$5,$6,$7,$8,$9,$2,$3,0*
0 Circles for rounded corners*
1,1,$1+$1,$2,$3*
1,1,$1+$1,$4,$5*
1,1,$1+$1,$6,$7*
1,1,$1+$1,$8,$9*
0 Rectangles between the rounded corners*
20,1,$1+$1,$2,$3,$4,$5,0*
20,1,$1+$1,$4,$5,$6,$7,0*
20,1,$1+$1,$6,$7,$8,$9,0*
20,1,$1+$1,$8,$9,$2,$3,0*%
G04 APERTURE MACROS END*
G04 aperture START LIST*
%ADD10C,0.100000*%
%ADD11C,0.150000*%
%ADD12C,0.100000*%
%ADD13C,0.045000*%
%ADD14C,0.120000*%
%ADD15C,0.036000*%
%ADD16VERTPILL,1.100000X2.000000X1.100000X0.450000*%
%ADD17HORZPILL,2.000000X1.100000X1.100000X0.450000*%
%ADD18VERTPILL,1.200000X1.800000X1.200000X0.300000*%
%ADD19HORZPILL,1.800000X1.200000X1.200000X0.300000*%
%ADD20C,0.063000*%
%ADD21C,0.000000*%
%ADD22C,0.040313*%
%ADD23C,0.072000*%
%ADD24C,0.081000*%
%ADD25R,2.900000X2.500000*%
%ADD26R,2.030000X1.750000*%
%ADD27R,0.900000X1.200000*%
%ADD28R,0.630000X0.840000*%
%ADD29C,0.090000*%
%ADD30C,0.300000*%
%TD*%
G04 aperture END LIST*
D16*
%LR180*%
X-44675000Y029425000D03*
%LR0*%
D16*
%LR180*%
X-53325000Y029425000D03*
%LR0*%
D18*
%LR180*%
X-44675000Y033625000D03*
%LR0*%
D18*
%LR180*%
X-53325000Y033625000D03*
%LR0*%
D26*
X-15300000Y017780000D03*
D26*
X-01850000Y020320000D03*
D28*
X-06925000Y025550000D03*
D28*
X-10225000Y025550000D03*
D26*
X003750000Y017780000D03*
D26*
X017200000Y020320000D03*
D28*
X012125000Y025550000D03*
D28*
X008825000Y025550000D03*
D26*
X022800000Y017780000D03*
D26*
X036250000Y020320000D03*
D28*
X031175000Y025550000D03*
D28*
X027875000Y025550000D03*
D26*
X041850000Y017780000D03*
D26*
X055300000Y020320000D03*
D28*
X050225000Y025550000D03*
D28*
X046925000Y025550000D03*
D26*
X-15300000Y-01270000D03*
D26*
X-01850000Y001270000D03*
D28*
X-06925000Y006500000D03*
D28*
X-10225000Y006500000D03*
D26*
X003750000Y-01270000D03*
D26*
X017200000Y001270000D03*
D28*
X012125000Y006500000D03*
D28*
X008825000Y006500000D03*
D26*
X022800000Y-01270000D03*
D26*
X036250000Y001270000D03*
D28*
X031175000Y006500000D03*
D28*
X027875000Y006500000D03*
D26*
X041850000Y-01270000D03*
D26*
X055300000Y001270000D03*
D28*
X050225000Y006500000D03*
D28*
X046925000Y006500000D03*
D26*
X-15300000Y-20320000D03*
D26*
X-01850000Y-17780000D03*
D28*
X-06925000Y-12550000D03*
D28*
X-10225000Y-12550000D03*
D26*
X003750000Y-20320000D03*
D26*
X017200000Y-17780000D03*
D28*
X012125000Y-12550000D03*
D28*
X008825000Y-12550000D03*
D26*
X022800000Y-20320000D03*
D26*
X036250000Y-17780000D03*
D28*
X031175000Y-12550000D03*
D28*
X027875000Y-12550000D03*
D26*
X041850000Y-20320000D03*
D26*
X055300000Y-17780000D03*
D28*
X050225000Y-12550000D03*
D28*
X046925000Y-12550000D03*
M02*