%TF.GenerationSoftware,tscircuit,circuit-json-to-gerber,0.0.93*%
%TF.CreationDate,2026-08-16T00:00:55.430Z*%
%TF.SameCoordinates,Original*%
%TF.FileFunction,Legend,Bot*%
%TF.FilePolarity,Positive*%
%FSLAX46Y46*%
%MOMM*%
G04 Gerber Fmt 4.6, Leading zero omitted, Abs format (unit mm)*
G04 Created by tscircuit (builder) date 2026-08-16T00:00:55.430Z*
G01*
%LPD*%
G75*
G04 APERTURE MACROS START*
%AMHORZPILL*
0 Horizontal pill (stadium) shape macro*
0 Parameters:*
0 $1 = Total width*
0 $2 = Total height*
0 $3 = Circle diameter (equal to height)*
0 $4 = Circle center offset
0 21 = Center Line(Exposure, Width, Height, Center X, Center Y, Rotation)*
0 1 = Circle(Exposure, Diameter, Center X, Center Y, Rotation)*
21,1,$1-$3,$2,0.0,0.0,0.0*
1,1,$3,0.0-$4,0.0*
1,1,$3,$4,0.0*%
%AMVERTPILL*
0 Vertical pill (stadium) shape macro*
0 Parameters:*
0 $1 = Total width*
0 $2 = Total height*
0 $3 = Circle diameter (equal to width)*
0 $4 = Circle center offset
0 21 = Center Line(Exposure, Width, Height, Center X, Center Y, Rotation)*
21,1,$1,$2-$3,0.0,0.0,0.0*
1,1,$3,0.0,0.0-$4*
1,1,$3,0.0,$4*%
%AMROUNDRECT*
0 Rectangle with rounded corners*
0 $1 Corner radius*
0 $2 $3 $4 $5 $6 $7 $8 $9 X,Y Position of each corner*
0 Polygon box body*
4,1,4,$2,$3,$4,$5,$6,$7,$8,$9,$2,$3,0*
0 Circles for rounded corners*
1,1,$1+$1,$2,$3*
1,1,$1+$1,$4,$5*
1,1,$1+$1,$6,$7*
1,1,$1+$1,$8,$9*
0 Rectangles between the rounded corners*
20,1,$1+$1,$2,$3,$4,$5,0*
20,1,$1+$1,$4,$5,$6,$7,0*
20,1,$1+$1,$6,$7,$8,$9,0*
20,1,$1+$1,$8,$9,$2,$3,0*%
G04 APERTURE MACROS END*
G04 aperture START LIST*
%ADD10C,0.100000*%
%ADD11C,0.150000*%
%ADD12C,0.100000*%
%ADD13C,0.045000*%
%ADD14C,0.120000*%
%ADD15C,0.036000*%
%ADD16VERTPILL,1.100000X2.000000X1.100000X0.450000*%
%ADD17HORZPILL,2.000000X1.100000X1.100000X0.450000*%
%ADD18VERTPILL,1.200000X1.800000X1.200000X0.300000*%
%ADD19HORZPILL,1.800000X1.200000X1.200000X0.300000*%
%ADD20C,0.063000*%
%ADD21C,0.000000*%
%ADD22C,0.040313*%
%ADD23C,0.072000*%
%ADD24C,0.081000*%
%ADD25R,2.900000X2.500000*%
%ADD26R,2.030000X1.750000*%
%ADD27R,0.900000X1.200000*%
%ADD28R,0.630000X0.840000*%
%ADD29C,0.090000*%
%ADD30C,0.300000*%
%TD*%
G04 aperture END LIST*
D10*
X-17010000Y008135000D02*
X-01410000Y008135000D01*
X-01410000Y023735000D01*
X-17010000Y023735000D01*
X-17010000Y008135000D01*
D13*
X-08251533Y026097861D02*
X-08254117Y026330223D01*
X-08254117Y026330223D02*
X-08288900Y026335151D01*
X-08288900Y026335151D02*
X-08315546Y026334578D01*
X-08315546Y026334578D02*
X-08358828Y026322873D01*
X-08358828Y026322873D02*
X-08390835Y026297594D01*
X-08390835Y026297594D02*
X-08409136Y026263556D01*
X-08409136Y026263556D02*
X-08416431Y026228263D01*
X-08416431Y026228263D02*
X-08417134Y026201690D01*
X-08417134Y026201690D02*
X-08413797Y026178917D01*
X-08413797Y026178917D02*
X-08406971Y026159653D01*
X-08406971Y026159653D02*
X-08385056Y026130507D01*
X-08385056Y026130507D02*
X-08355799Y026111952D01*
X-08355799Y026111952D02*
X-08307795Y026098948D01*
X-08307795Y026098948D02*
X-08251533Y026097861D01*
X-08652149Y026287043D02*
X-08708569Y026335151D01*
X-08708569Y026335151D02*
X-08708569Y026097862D01*
D10*
X002040000Y008135000D02*
X017640000Y008135000D01*
X017640000Y023735000D01*
X002040000Y023735000D01*
X002040000Y008135000D01*
D13*
X010798467Y026097861D02*
X010795883Y026330223D01*
X010795883Y026330223D02*
X010761100Y026335151D01*
X010761100Y026335151D02*
X010734454Y026334578D01*
X010734454Y026334578D02*
X010691173Y026322873D01*
X010691173Y026322873D02*
X010659165Y026297594D01*
X010659165Y026297594D02*
X010640864Y026263556D01*
X010640864Y026263556D02*
X010633569Y026228263D01*
X010633569Y026228263D02*
X010632866Y026201690D01*
X010632866Y026201690D02*
X010636203Y026178917D01*
X010636203Y026178917D02*
X010643029Y026159653D01*
X010643029Y026159653D02*
X010664944Y026130507D01*
X010664944Y026130507D02*
X010694201Y026111952D01*
X010694201Y026111952D02*
X010742205Y026098948D01*
X010742205Y026098948D02*
X010798467Y026097861D01*
X010436357Y026292758D02*
X010431033Y026310197D01*
X010431033Y026310197D02*
X010415300Y026326462D01*
X010415300Y026326462D02*
X010389517Y026337492D01*
X010389517Y026337492D02*
X010372969Y026339765D01*
X010372969Y026339765D02*
X010344338Y026337670D01*
X010344338Y026337670D02*
X010322861Y026328253D01*
X010322861Y026328253D02*
X010311116Y026313812D01*
X010311116Y026313812D02*
X010306898Y026297030D01*
X010306898Y026297030D02*
X010307178Y026285868D01*
X010307178Y026285868D02*
X010312219Y026267183D01*
X010312219Y026267183D02*
X010334100Y026230854D01*
X010334100Y026230854D02*
X010389203Y026161747D01*
X010389203Y026161747D02*
X010447144Y026098184D01*
X010447144Y026098184D02*
X010292138Y026098184D01*
D10*
X021090000Y008135000D02*
X036690000Y008135000D01*
X036690000Y023735000D01*
X021090000Y023735000D01*
X021090000Y008135000D01*
D13*
X029848467Y026097861D02*
X029845883Y026330223D01*
X029845883Y026330223D02*
X029811100Y026335151D01*
X029811100Y026335151D02*
X029784454Y026334578D01*
X029784454Y026334578D02*
X029741172Y026322873D01*
X029741172Y026322873D02*
X029709165Y026297594D01*
X029709165Y026297594D02*
X029690864Y026263556D01*
X029690864Y026263556D02*
X029683569Y026228263D01*
X029683569Y026228263D02*
X029682866Y026201690D01*
X029682866Y026201690D02*
X029686203Y026178917D01*
X029686203Y026178917D02*
X029693029Y026159653D01*
X029693029Y026159653D02*
X029714944Y026130507D01*
X029714944Y026130507D02*
X029744201Y026111952D01*
X029744201Y026111952D02*
X029792205Y026098948D01*
X029792205Y026098948D02*
X029848467Y026097861D01*
X029496438Y026309224D02*
X029483296Y026319528D01*
X029483296Y026319528D02*
X029462351Y026330568D01*
X029462351Y026330568D02*
X029435657Y026339765D01*
X029435657Y026339765D02*
X029402803Y026337928D01*
X029402803Y026337928D02*
X029374055Y026328728D01*
X029374055Y026328728D02*
X029353521Y026312168D01*
X029353521Y026312168D02*
X029341201Y026291928D01*
X029341201Y026291928D02*
X029345308Y026269848D01*
X029345308Y026269848D02*
X029361735Y026253288D01*
X029361735Y026253288D02*
X029390483Y026240408D01*
X029390483Y026240408D02*
X029423338Y026233048D01*
X029423338Y026233048D02*
X029452084Y026229368D01*
X029452084Y026229368D02*
X029423338Y026225688D01*
X029423338Y026225688D02*
X029390483Y026216488D01*
X029390483Y026216488D02*
X029361735Y026201768D01*
X029361735Y026201768D02*
X029343254Y026181527D01*
X029343254Y026181527D02*
X029339148Y026159448D01*
X029339148Y026159448D02*
X029347361Y026135527D01*
X029347361Y026135527D02*
X029365842Y026115287D01*
X029365842Y026115287D02*
X029394590Y026098727D01*
X029394590Y026098727D02*
X029416356Y026093575D01*
X029416356Y026093575D02*
X029451674Y026094311D01*
X029451674Y026094311D02*
X029480422Y026098727D01*
X029480422Y026098727D02*
X029500134Y026104615D01*
D10*
X040140000Y008135000D02*
X055740000Y008135000D01*
X055740000Y023735000D01*
X040140000Y023735000D01*
X040140000Y008135000D01*
D13*
X048898467Y026097861D02*
X048895883Y026330223D01*
X048895883Y026330223D02*
X048861100Y026335151D01*
X048861100Y026335151D02*
X048834454Y026334578D01*
X048834454Y026334578D02*
X048791173Y026322873D01*
X048791173Y026322873D02*
X048759165Y026297594D01*
X048759165Y026297594D02*
X048740864Y026263556D01*
X048740864Y026263556D02*
X048733569Y026228263D01*
X048733569Y026228263D02*
X048732866Y026201690D01*
X048732866Y026201690D02*
X048736203Y026178917D01*
X048736203Y026178917D02*
X048743029Y026159653D01*
X048743029Y026159653D02*
X048764944Y026130507D01*
X048764944Y026130507D02*
X048794201Y026111952D01*
X048794201Y026111952D02*
X048842205Y026098948D01*
X048842205Y026098948D02*
X048898467Y026097861D01*
X048428527Y026335151D02*
X048557910Y026176530D01*
X048557910Y026176530D02*
X048381372Y026176530D01*
X048430037Y026227642D02*
X048430037Y026097861D01*
D10*
X-17010000Y-10915000D02*
X-01410000Y-10915000D01*
X-01410000Y004685000D01*
X-17010000Y004685000D01*
X-17010000Y-10915000D01*
D13*
X-08251533Y007047861D02*
X-08254117Y007280223D01*
X-08254117Y007280223D02*
X-08288900Y007285151D01*
X-08288900Y007285151D02*
X-08315546Y007284578D01*
X-08315546Y007284578D02*
X-08358828Y007272873D01*
X-08358828Y007272873D02*
X-08390835Y007247594D01*
X-08390835Y007247594D02*
X-08409136Y007213556D01*
X-08409136Y007213556D02*
X-08416431Y007178263D01*
X-08416431Y007178263D02*
X-08417134Y007151690D01*
X-08417134Y007151690D02*
X-08413797Y007128917D01*
X-08413797Y007128917D02*
X-08406971Y007109653D01*
X-08406971Y007109653D02*
X-08385056Y007080507D01*
X-08385056Y007080507D02*
X-08355799Y007061952D01*
X-08355799Y007061952D02*
X-08307795Y007048948D01*
X-08307795Y007048948D02*
X-08251533Y007047861D01*
X-08601233Y007285151D02*
X-08601233Y007164855D01*
X-08601233Y007164855D02*
X-08668679Y007180675D01*
X-08668679Y007180675D02*
X-08716836Y007174724D01*
X-08716836Y007174724D02*
X-08736001Y007163984D01*
X-08736001Y007163984D02*
X-08749310Y007148744D01*
X-08749310Y007148744D02*
X-08759485Y007107210D01*
X-08759485Y007107210D02*
X-08754673Y007085633D01*
X-08754673Y007085633D02*
X-08742046Y007068651D01*
X-08742046Y007068651D02*
X-08717232Y007052880D01*
X-08717232Y007052880D02*
X-08688556Y007044582D01*
X-08688556Y007044582D02*
X-08661590Y007043251D01*
X-08661590Y007043251D02*
X-08638881Y007047582D01*
X-08638881Y007047582D02*
X-08620524Y007056072D01*
X-08620524Y007056072D02*
X-08601233Y007073538D01*
X-08601233Y007285151D02*
X-08759485Y007285151D01*
D10*
X002040000Y-10915000D02*
X017640000Y-10915000D01*
X017640000Y004685000D01*
X002040000Y004685000D01*
X002040000Y-10915000D01*
D13*
X010798467Y007047861D02*
X010795883Y007280223D01*
X010795883Y007280223D02*
X010761100Y007285151D01*
X010761100Y007285151D02*
X010734454Y007284578D01*
X010734454Y007284578D02*
X010691173Y007272873D01*
X010691173Y007272873D02*
X010659165Y007247594D01*
X010659165Y007247594D02*
X010640864Y007213556D01*
X010640864Y007213556D02*
X010633569Y007178263D01*
X010633569Y007178263D02*
X010632866Y007151690D01*
X010632866Y007151690D02*
X010636203Y007128917D01*
X010636203Y007128917D02*
X010643029Y007109653D01*
X010643029Y007109653D02*
X010664944Y007080507D01*
X010664944Y007080507D02*
X010694201Y007061952D01*
X010694201Y007061952D02*
X010742205Y007048948D01*
X010742205Y007048948D02*
X010798467Y007047861D01*
X010325008Y007289765D02*
X010355498Y007280231D01*
X010355498Y007280231D02*
X010383744Y007270765D01*
X010383744Y007270765D02*
X010407734Y007253936D01*
X010407734Y007253936D02*
X010426384Y007236161D01*
X010426384Y007236161D02*
X010440623Y007204852D01*
X010440623Y007204852D02*
X010450413Y007175507D01*
X010450413Y007175507D02*
X010451458Y007145249D01*
X010451458Y007145249D02*
X010452193Y007115098D01*
X010452193Y007115098D02*
X010444493Y007092659D01*
X010444493Y007092659D02*
X010437141Y007078635D01*
X010437141Y007078635D02*
X010419729Y007060404D01*
X010419729Y007060404D02*
X010401157Y007048133D01*
X010401157Y007048133D02*
X010372524Y007043575D01*
X010372524Y007043575D02*
X010340408Y007045328D01*
X010340408Y007045328D02*
X010315257Y007056547D01*
X010315257Y007056547D02*
X010297458Y007071623D01*
X010297458Y007071623D02*
X010287785Y007092309D01*
X010287785Y007092309D02*
X010287011Y007109839D01*
X010287011Y007109839D02*
X010292428Y007128421D01*
X010292428Y007128421D02*
X010300554Y007144198D01*
X010300554Y007144198D02*
X010312935Y007157170D01*
X010312935Y007157170D02*
X010329961Y007165234D01*
X010329961Y007165234D02*
X010353564Y007170493D01*
X010353564Y007170493D02*
X010376006Y007171545D01*
X010376006Y007171545D02*
X010399609Y007168039D01*
X010399609Y007168039D02*
X010423985Y007155417D01*
X010423985Y007155417D02*
X010436754Y007142445D01*
X010436754Y007142445D02*
X010452270Y007126598D01*
D10*
X021090000Y-10915000D02*
X036690000Y-10915000D01*
X036690000Y004685000D01*
X021090000Y004685000D01*
X021090000Y-10915000D01*
D13*
X029848467Y007047861D02*
X029845883Y007280223D01*
X029845883Y007280223D02*
X029811100Y007285151D01*
X029811100Y007285151D02*
X029784454Y007284578D01*
X029784454Y007284578D02*
X029741172Y007272873D01*
X029741172Y007272873D02*
X029709165Y007247594D01*
X029709165Y007247594D02*
X029690864Y007213556D01*
X029690864Y007213556D02*
X029683569Y007178263D01*
X029683569Y007178263D02*
X029682866Y007151690D01*
X029682866Y007151690D02*
X029686203Y007128917D01*
X029686203Y007128917D02*
X029693029Y007109653D01*
X029693029Y007109653D02*
X029714944Y007080507D01*
X029714944Y007080507D02*
X029744201Y007061952D01*
X029744201Y007061952D02*
X029792205Y007048948D01*
X029792205Y007048948D02*
X029848467Y007047861D01*
X029499963Y007285151D02*
X029339318Y007285151D01*
X029339318Y007285151D02*
X029351423Y007277904D01*
X029351423Y007277904D02*
X029357787Y007273108D01*
X029357787Y007273108D02*
X029372685Y007258861D01*
X029372685Y007258861D02*
X029380777Y007249052D01*
X029380777Y007249052D02*
X029389002Y007237214D01*
X029389002Y007237214D02*
X029397140Y007223166D01*
X029397140Y007223166D02*
X029404970Y007206728D01*
X029404970Y007206728D02*
X029412272Y007187722D01*
X029412272Y007187722D02*
X029418823Y007165967D01*
X029418823Y007165967D02*
X029424404Y007141283D01*
X029424404Y007141283D02*
X029430473Y007098373D01*
X029430473Y007098373D02*
X029433115Y007047861D01*
D10*
X040140000Y-10915000D02*
X055740000Y-10915000D01*
X055740000Y004685000D01*
X040140000Y004685000D01*
X040140000Y-10915000D01*
D13*
X048898467Y007047861D02*
X048895883Y007280223D01*
X048895883Y007280223D02*
X048861100Y007285151D01*
X048861100Y007285151D02*
X048834454Y007284578D01*
X048834454Y007284578D02*
X048791173Y007272873D01*
X048791173Y007272873D02*
X048759165Y007247594D01*
X048759165Y007247594D02*
X048740864Y007213556D01*
X048740864Y007213556D02*
X048733569Y007178263D01*
X048733569Y007178263D02*
X048732866Y007151690D01*
X048732866Y007151690D02*
X048736203Y007128917D01*
X048736203Y007128917D02*
X048743029Y007109653D01*
X048743029Y007109653D02*
X048764944Y007080507D01*
X048764944Y007080507D02*
X048794201Y007061952D01*
X048794201Y007061952D02*
X048842205Y007048948D01*
X048842205Y007048948D02*
X048898467Y007047861D01*
X048474634Y007289765D02*
X048501261Y007284933D01*
X048501261Y007284933D02*
X048525510Y007273032D01*
X048525510Y007273032D02*
X048542627Y007246256D01*
X048542627Y007246256D02*
X048535970Y007222455D01*
X048535970Y007222455D02*
X048516001Y007204232D01*
X048516001Y007204232D02*
X048495079Y007191216D01*
X048495079Y007191216D02*
X048442777Y007171878D01*
X048442777Y007171878D02*
X048410444Y007154027D01*
X048410444Y007154027D02*
X048390949Y007132829D01*
X048390949Y007132829D02*
X048386670Y007102706D01*
X048386670Y007102706D02*
X048397606Y007073327D01*
X048397606Y007073327D02*
X048421380Y007055476D01*
X048421380Y007055476D02*
X048456090Y007043575D01*
X048456090Y007043575D02*
X048482717Y007044319D01*
X048482717Y007044319D02*
X048514099Y007054732D01*
X048514099Y007054732D02*
X048539299Y007071467D01*
X048539299Y007071467D02*
X048552612Y007096012D01*
X048552612Y007096012D02*
X048551661Y007120557D01*
X048551661Y007120557D02*
X048539299Y007145101D01*
X048539299Y007145101D02*
X048511721Y007167043D01*
X048511721Y007167043D02*
X048484143Y007176712D01*
X048484143Y007176712D02*
X048449433Y007187869D01*
X048449433Y007187869D02*
X048415198Y007206092D01*
X048415198Y007206092D02*
X048404738Y007223571D01*
X048404738Y007223571D02*
X048404262Y007252950D01*
X048404262Y007252950D02*
X048416149Y007274148D01*
X048416149Y007274148D02*
X048440399Y007287164D01*
X048440399Y007287164D02*
X048474634Y007289765D01*
D10*
X-17010000Y-29965000D02*
X-01410000Y-29965000D01*
X-01410000Y-14365000D01*
X-17010000Y-14365000D01*
X-17010000Y-29965000D01*
D13*
X-08251533Y-12002140D02*
X-08254117Y-11769777D01*
X-08254117Y-11769777D02*
X-08288900Y-11764849D01*
X-08288900Y-11764849D02*
X-08315546Y-11765422D01*
X-08315546Y-11765422D02*
X-08358828Y-11777127D01*
X-08358828Y-11777127D02*
X-08390835Y-11802406D01*
X-08390835Y-11802406D02*
X-08409136Y-11836444D01*
X-08409136Y-11836444D02*
X-08416431Y-11871737D01*
X-08416431Y-11871737D02*
X-08417134Y-11898310D01*
X-08417134Y-11898310D02*
X-08413797Y-11921083D01*
X-08413797Y-11921083D02*
X-08406971Y-11940347D01*
X-08406971Y-11940347D02*
X-08385056Y-11969493D01*
X-08385056Y-11969493D02*
X-08355799Y-11988049D01*
X-08355799Y-11988049D02*
X-08307795Y-12001052D01*
X-08307795Y-12001052D02*
X-08251533Y-12002140D01*
X-08753859Y-11823234D02*
X-08746859Y-11791734D01*
X-08746859Y-11791734D02*
X-08732859Y-11774234D01*
X-08732859Y-11774234D02*
X-08711859Y-11763734D01*
X-08711859Y-11763734D02*
X-08683859Y-11760235D01*
X-08683859Y-11760235D02*
X-08655859Y-11763734D01*
X-08655859Y-11763734D02*
X-08631359Y-11774234D01*
X-08631359Y-11774234D02*
X-08613859Y-11791734D01*
X-08613859Y-11791734D02*
X-08606859Y-11816234D01*
X-08606859Y-11816234D02*
X-08613859Y-11840734D01*
X-08613859Y-11840734D02*
X-08631359Y-11858234D01*
X-08631359Y-11858234D02*
X-08655859Y-11868734D01*
X-08655859Y-11868734D02*
X-08683859Y-11872234D01*
X-08683859Y-11872234D02*
X-08711859Y-11865234D01*
X-08711859Y-11865234D02*
X-08732859Y-11851234D01*
X-08732859Y-11851234D02*
X-08746859Y-11837234D01*
X-08746859Y-11837234D02*
X-08753859Y-11823234D01*
X-08753509Y-11823584D02*
X-08726909Y-11892884D01*
X-08726909Y-11892884D02*
X-08708359Y-11942234D01*
X-08708359Y-11942234D02*
X-08692959Y-11977934D01*
X-08692959Y-11977934D02*
X-08680359Y-12005234D01*
D10*
X002040000Y-29965000D02*
X017640000Y-29965000D01*
X017640000Y-14365000D01*
X002040000Y-14365000D01*
X002040000Y-29965000D01*
D13*
X010971480Y-12002140D02*
X010968896Y-11769777D01*
X010968896Y-11769777D02*
X010934113Y-11764849D01*
X010934113Y-11764849D02*
X010907467Y-11765422D01*
X010907467Y-11765422D02*
X010864186Y-11777127D01*
X010864186Y-11777127D02*
X010832178Y-11802406D01*
X010832178Y-11802406D02*
X010813877Y-11836444D01*
X010813877Y-11836444D02*
X010806582Y-11871737D01*
X010806582Y-11871737D02*
X010805879Y-11898310D01*
X010805879Y-11898310D02*
X010809216Y-11921083D01*
X010809216Y-11921083D02*
X010816042Y-11940347D01*
X010816042Y-11940347D02*
X010837957Y-11969493D01*
X010837957Y-11969493D02*
X010867214Y-11988049D01*
X010867214Y-11988049D02*
X010915218Y-12001052D01*
X010915218Y-12001052D02*
X010971480Y-12002140D01*
X010570864Y-11812958D02*
X010514444Y-11764849D01*
X010514444Y-11764849D02*
X010514444Y-12002138D01*
X010196628Y-11760235D02*
X010229679Y-11769185D01*
X010229679Y-11769185D02*
X010259272Y-11796457D01*
X010259272Y-11796457D02*
X010275414Y-11836054D01*
X010275414Y-11836054D02*
X010279257Y-11894777D01*
X010279257Y-11894777D02*
X010270033Y-11944012D01*
X010270033Y-11944012D02*
X010246205Y-11984812D01*
X010246205Y-11984812D02*
X010212001Y-12006425D01*
X010212001Y-12006425D02*
X010181255Y-12006425D01*
X010181255Y-12006425D02*
X010147050Y-11984812D01*
X010147050Y-11984812D02*
X010123222Y-11944012D01*
X010123222Y-11944012D02*
X010113998Y-11894777D01*
X010113998Y-11894777D02*
X010117841Y-11836054D01*
X010117841Y-11836054D02*
X010133983Y-11796457D01*
X010133983Y-11796457D02*
X010163576Y-11769185D01*
X010163576Y-11769185D02*
X010196628Y-11760235D01*
D10*
X021090000Y-29965000D02*
X036690000Y-29965000D01*
X036690000Y-14365000D01*
X021090000Y-14365000D01*
X021090000Y-29965000D01*
D13*
X030021480Y-12002140D02*
X030018896Y-11769777D01*
X030018896Y-11769777D02*
X029984113Y-11764849D01*
X029984113Y-11764849D02*
X029957467Y-11765422D01*
X029957467Y-11765422D02*
X029914186Y-11777127D01*
X029914186Y-11777127D02*
X029882178Y-11802406D01*
X029882178Y-11802406D02*
X029863877Y-11836444D01*
X029863877Y-11836444D02*
X029856582Y-11871737D01*
X029856582Y-11871737D02*
X029855879Y-11898310D01*
X029855879Y-11898310D02*
X029859216Y-11921083D01*
X029859216Y-11921083D02*
X029866042Y-11940347D01*
X029866042Y-11940347D02*
X029887957Y-11969493D01*
X029887957Y-11969493D02*
X029917214Y-11988049D01*
X029917214Y-11988049D02*
X029965218Y-12001052D01*
X029965218Y-12001052D02*
X030021480Y-12002140D01*
X029620864Y-11812958D02*
X029564444Y-11764849D01*
X029564444Y-11764849D02*
X029564444Y-12002138D01*
X029274838Y-11812958D02*
X029218418Y-11764849D01*
X029218418Y-11764849D02*
X029218418Y-12002138D01*
D10*
X040140000Y-29965000D02*
X055740000Y-29965000D01*
X055740000Y-14365000D01*
X040140000Y-14365000D01*
X040140000Y-29965000D01*
D13*
X049071480Y-12002140D02*
X049068896Y-11769777D01*
X049068896Y-11769777D02*
X049034113Y-11764849D01*
X049034113Y-11764849D02*
X049007467Y-11765422D01*
X049007467Y-11765422D02*
X048964186Y-11777127D01*
X048964186Y-11777127D02*
X048932178Y-11802406D01*
X048932178Y-11802406D02*
X048913877Y-11836444D01*
X048913877Y-11836444D02*
X048906582Y-11871737D01*
X048906582Y-11871737D02*
X048905879Y-11898310D01*
X048905879Y-11898310D02*
X048909216Y-11921083D01*
X048909216Y-11921083D02*
X048916042Y-11940347D01*
X048916042Y-11940347D02*
X048937957Y-11969493D01*
X048937957Y-11969493D02*
X048967214Y-11988049D01*
X048967214Y-11988049D02*
X049015218Y-12001052D01*
X049015218Y-12001052D02*
X049071480Y-12002140D01*
X048670864Y-11812958D02*
X048614444Y-11764849D01*
X048614444Y-11764849D02*
X048614444Y-12002138D01*
X048363344Y-11807242D02*
X048358020Y-11789803D01*
X048358020Y-11789803D02*
X048342287Y-11773538D01*
X048342287Y-11773538D02*
X048316504Y-11762509D01*
X048316504Y-11762509D02*
X048299956Y-11760235D01*
X048299956Y-11760235D02*
X048271325Y-11762330D01*
X048271325Y-11762330D02*
X048249848Y-11771747D01*
X048249848Y-11771747D02*
X048238103Y-11786188D01*
X048238103Y-11786188D02*
X048233885Y-11802970D01*
X048233885Y-11802970D02*
X048234165Y-11814132D01*
X048234165Y-11814132D02*
X048239206Y-11832817D01*
X048239206Y-11832817D02*
X048261087Y-11869146D01*
X048261087Y-11869146D02*
X048316190Y-11938253D01*
X048316190Y-11938253D02*
X048374131Y-12001816D01*
X048374131Y-12001816D02*
X048219125Y-12001816D01*
M02*