M48
; DRILL file {tscircuit} date 2026-08-16T00:00:55.493Z
; FORMAT={-:-/ absolute / metric / decimal}
; #@! TF.CreationDate,2026-08-16T00:00:55.493Z
; #@! TF.GenerationSoftware,tscircuit
; #@! TF.FileFunction,Plated,1,2,PTH
FMAT,2
METRIC
; #@! TA.AperFunction,Plated,PTH,ComponentDrill
T10C0.600000
; #@! TA.AperFunction,Plated,PTH,ComponentDrill
T11C0.200000
%
G90
G05
T10
X-44.6750Y29.8750
G85X-44.675Y28.975
X-53.3250Y29.8750
G85X-53.325Y28.975
X-44.6750Y33.9250
G85X-44.675Y33.325
X-53.3250Y33.9250
G85X-53.325Y33.325
T11
X-49.0660Y3.2010
X-46.9980Y3.1320
X-48.4000Y-2.2160
X-46.6200Y-4.6070
X-41.8830Y-3.6230
X-41.8080Y-2.0150
X-49.2090Y-7.6880
X-52.3160Y-6.8770
X-50.1420Y-2.1410
X-50.0400Y-1.3450
X-47.7680Y25.5870
X-47.5500Y24.3920
X-40.8000Y-5.0000
X-42.0120Y-5.5720
X-38.7940Y18.9540
X-41.6870Y19.8150
X-39.7030Y15.7540
X-39.4080Y17.5350
X-49.0490Y24.8180
X-55.8000Y24.4000
X-47.2650Y-4.2110
X-49.6960Y-23.1640
X-53.5840Y-23.7730
X-53.6480Y-26.1370
X-48.5220Y-4.2710
X-49.0250Y-3.6470
X-56.2000Y-11.2000
X-55.6180Y-15.0180
X-47.4940Y31.0090
X-46.8670Y27.6020
X-47.7310Y15.0900
X-48.1640Y6.6440
X-45.6000Y19.9770
X-46.7250Y6.3040
X-52.6970Y5.4490
X-53.8000Y2.8000
X-48.3050Y3.1610
X-48.8890Y2.5920
X-39.9370Y-5.1020
X-40.6461Y-3.2737
X-57.5098Y-0.4639
X-53.2712Y-0.8695
X-54.0870Y-4.5190
X-54.0910Y-3.7170
X-41.7780Y15.4180
X-41.0490Y18.4220
X-46.9680Y7.0460
X-46.9940Y8.0010
X-53.9460Y15.6030
X-54.2710Y20.0900
X-54.2890Y-9.6110
X-51.3500Y-12.4180
X-49.9320Y7.0740
X-49.6870Y9.3860
X-48.8000Y6.7180
X-48.6070Y8.9650
X-50.6780Y6.8500
X-50.3840Y10.1860
X-44.9510Y11.9120
X-43.6210Y9.7840
X-51.0700Y3.2797
X-45.6970Y7.7730
X-49.5540Y5.4510
X-48.9870Y9.9910
X-51.4750Y3.1893
X-44.1260Y8.1880
X-48.6440Y26.1990
X-47.8150Y21.1240
X-48.4000Y30.6000
X-49.2590Y29.6100
X-47.9240Y27.1910
X-47.0140Y23.1210
X41.2750Y-7.6590
X42.7940Y-15.9850
X22.5050Y-8.8050
X23.7440Y-15.9850
X3.3050Y-8.8050
X3.1870Y-13.9440
X20.0560Y7.5430
X24.8030Y7.2290
X0.8190Y7.0270
X7.2000Y8.0000
X37.2200Y6.6720
X43.4600Y5.6680
M30