M48
; DRILL file {tscircuit} date 2026-08-16T00:00:55.496Z
; FORMAT={-:-/ absolute / metric / decimal}
; #@! TF.CreationDate,2026-08-16T00:00:55.496Z
; #@! TF.GenerationSoftware,tscircuit
; #@! TF.FileFunction,NonPlated,1,2,NPTH
FMAT,2
METRIC
; #@! TA.AperFunction,NonPlated,NPTH,ComponentDrill
T10C0.700000
; #@! TA.AperFunction,NonPlated,NPTH,ComponentDrill
T11C3.000000
; #@! TA.AperFunction,NonPlated,NPTH,ComponentDrill
T12C4.200000
; #@! TA.AperFunction,NonPlated,NPTH,ComponentDrill
T13C3.200000
%
G90
G05
T10
X-46.1100Y29.9450
X-51.8900Y29.9450
T11
X-11.7500Y17.7800
X-5.4000Y20.3200
X7.3000Y17.7800
X13.6500Y20.3200
X26.3500Y17.7800
X32.7000Y20.3200
X45.4000Y17.7800
X51.7500Y20.3200
X-11.7500Y-1.2700
X-5.4000Y1.2700
X7.3000Y-1.2700
X13.6500Y1.2700
X26.3500Y-1.2700
X32.7000Y1.2700
X45.4000Y-1.2700
X51.7500Y1.2700
X-11.7500Y-20.3200
X-5.4000Y-17.7800
X7.3000Y-20.3200
X13.6500Y-17.7800
X26.3500Y-20.3200
X32.7000Y-17.7800
X45.4000Y-20.3200
X51.7500Y-17.7800
T12
X-7.9400Y15.9350
X11.1100Y15.9350
X30.1600Y15.9350
X49.2100Y15.9350
X-7.9400Y-3.1150
X11.1100Y-3.1150
X30.1600Y-3.1150
X49.2100Y-3.1150
X-7.9400Y-22.1650
X11.1100Y-22.1650
X30.1600Y-22.1650
X49.2100Y-22.1650
T13
X-62.0000Y31.0000
X-62.0000Y-31.0000
X62.0000Y31.0000
X62.0000Y-31.0000
M30