%TF.GenerationSoftware,tscircuit,circuit-json-to-gerber,0.0.93*%
%TF.CreationDate,2026-08-16T00:00:55.429Z*%
%TF.SameCoordinates,Original*%
%TF.FileFunction,Copper,L1,Top*%
%TF.FilePolarity,Positive*%
%FSLAX46Y46*%
%MOMM*%
G04 Gerber Fmt 4.6, Leading zero omitted, Abs format (unit mm)*
G04 Created by tscircuit (builder) date 2026-08-16T00:00:55.429Z*
G01*
%LPD*%
G75*
G04 APERTURE MACROS START*
%AMHORZPILL*
0 Horizontal pill (stadium) shape macro*
0 Parameters:*
0 $1 = Total width*
0 $2 = Total height*
0 $3 = Circle diameter (equal to height)*
0 $4 = Circle center offset
0 21 = Center Line(Exposure, Width, Height, Center X, Center Y, Rotation)*
0 1 = Circle(Exposure, Diameter, Center X, Center Y, Rotation)*
21,1,$1-$3,$2,0.0,0.0,0.0*
1,1,$3,0.0-$4,0.0*
1,1,$3,$4,0.0*%
%AMVERTPILL*
0 Vertical pill (stadium) shape macro*
0 Parameters:*
0 $1 = Total width*
0 $2 = Total height*
0 $3 = Circle diameter (equal to width)*
0 $4 = Circle center offset
0 21 = Center Line(Exposure, Width, Height, Center X, Center Y, Rotation)*
21,1,$1,$2-$3,0.0,0.0,0.0*
1,1,$3,0.0,0.0-$4*
1,1,$3,0.0,$4*%
%AMROUNDRECT*
0 Rectangle with rounded corners*
0 $1 Corner radius*
0 $2 $3 $4 $5 $6 $7 $8 $9 X,Y Position of each corner*
0 Polygon box body*
4,1,4,$2,$3,$4,$5,$6,$7,$8,$9,$2,$3,0*
0 Circles for rounded corners*
1,1,$1+$1,$2,$3*
1,1,$1+$1,$4,$5*
1,1,$1+$1,$6,$7*
1,1,$1+$1,$8,$9*
0 Rectangles between the rounded corners*
20,1,$1+$1,$2,$3,$4,$5,0*
20,1,$1+$1,$4,$5,$6,$7,0*
20,1,$1+$1,$6,$7,$8,$9,0*
20,1,$1+$1,$8,$9,$2,$3,0*%
G04 APERTURE MACROS END*
G04 aperture START LIST*
%ADD10C,0.100000*%
%ADD11C,0.150000*%
%ADD12R,0.950000X1.200000*%
%ADD13R,0.665000X0.840000*%
%ADD14C,0.100000*%
%ADD15C,0.045000*%
%ADD16R,0.640000X0.540000*%
%ADD17R,0.448000X0.378000*%
%ADD18C,0.120000*%
%ADD19C,0.036000*%
%ADD20R,0.540000X0.640000*%
%ADD21R,0.378000X0.448000*%
%ADD22VERTPILL,1.100000X2.000000X1.100000X0.450000*%
%ADD23HORZPILL,2.000000X1.100000X1.100000X0.450000*%
%ADD24VERTPILL,1.200000X1.800000X1.200000X0.300000*%
%ADD25HORZPILL,1.800000X1.200000X1.200000X0.300000*%
%ADD26R,0.550000X1.100000*%
%ADD27R,0.385000X0.770000*%
%ADD28R,0.300000X1.100000*%
%ADD29R,0.210000X0.770000*%
%ADD30C,0.063000*%
%ADD31R,0.850000X0.200000*%
%ADD32R,0.595000X0.140000*%
%ADD33R,0.200000X0.850000*%
%ADD34R,0.140000X0.595000*%
%ADD35R,3.100000X3.100000*%
%ADD36R,2.170000X2.170000*%
%ADD37C,0.000000*%
%ADD38R,0.600000X0.280000*%
%ADD39R,0.420000X0.196000*%
%ADD40R,0.300000X1.700000*%
%ADD41R,0.210000X1.190000*%
%ADD42ROUNDRECT,0.075000X-0.425000X0.225000X0.425000X0.225000X0.425000X-0.225000X-0.425000X-0.225000*%
%ADD43R,0.700000X0.420000*%
%ADD44C,0.040313*%
%ADD45R,1.400000X1.200000*%
%ADD46R,0.980000X0.840000*%
%ADD47R,1.050000X0.700000*%
%ADD48R,0.735000X0.490000*%
%ADD49R,0.700000X1.050000*%
%ADD50R,0.490000X0.735000*%
%ADD51R,0.800000X0.800000*%
%ADD52R,0.560000X0.560000*%
%ADD53R,0.950000X0.800000*%
%ADD54R,0.665000X0.560000*%
%ADD55R,0.800000X0.950000*%
%ADD56R,0.560000X0.665000*%
%ADD57C,1.100000*%
%ADD58C,0.770000*%
%ADD59C,0.072000*%
%ADD60C,0.081000*%
%ADD61C,0.090000*%
%ADD62C,0.300000*%
%ADD63C,0.001000*%
%TD*%
G04 aperture END LIST*
D12*
X-51000000Y019300000D03*
D12*
X-51000000Y022700000D03*
D16*
X-53700000Y016790000D03*
D16*
X-53700000Y017810000D03*
D20*
X-53510000Y-05000000D03*
D20*
X-52490000Y-05000000D03*
D20*
X-52510000Y006000000D03*
D20*
X-51490000Y006000000D03*
D16*
X-57000000Y-00490000D03*
D16*
X-57000000Y-01510000D03*
D20*
X-53510000Y-06000000D03*
D20*
X-52490000Y-06000000D03*
D16*
X-55000000Y-09490000D03*
D16*
X-55000000Y-10510000D03*
D20*
X-57510000Y001600000D03*
D20*
X-56490000Y001600000D03*
D20*
X-39110000Y-05500000D03*
D20*
X-38090000Y-05500000D03*
D20*
X-53990000Y010800000D03*
D20*
X-55010000Y010800000D03*
D20*
X-42310000Y014500000D03*
D20*
X-41290000Y014500000D03*
D20*
X-41510000Y-04400000D03*
D20*
X-40490000Y-04400000D03*
D57*
X-44675000Y029875000D03*
X-44675000Y029875000D02*
X-44675000Y028975000D01*
X-44675000Y028975000D03*
D57*
X-53325000Y029875000D03*
X-53325000Y029875000D02*
X-53325000Y028975000D01*
X-53325000Y028975000D03*
%ADD64C,1.200000*%
D64*
X-44675000Y033925000D03*
X-44675000Y033925000D02*
X-44675000Y033325000D01*
X-44675000Y033325000D03*
D64*
X-53325000Y033925000D03*
X-53325000Y033925000D02*
X-53325000Y033325000D01*
X-53325000Y033325000D03*
D26*
X-45800000Y028875000D03*
D26*
X-46600000Y028875000D03*
D28*
X-47250000Y028875000D03*
D28*
X-47750000Y028875000D03*
D28*
X-48250000Y028875000D03*
D28*
X-48750000Y028875000D03*
D28*
X-49250000Y028875000D03*
D28*
X-49750000Y028875000D03*
D28*
X-50250000Y028875000D03*
D28*
X-50750000Y028875000D03*
D26*
X-51400000Y028875000D03*
D26*
X-52200000Y028875000D03*
D31*
X-52424950Y003100650D03*
D31*
X-52424950Y002700550D03*
D31*
X-52424950Y002300450D03*
D31*
X-52424950Y001900350D03*
D31*
X-52424950Y001500250D03*
D31*
X-52424950Y001100150D03*
D31*
X-52424950Y000700050D03*
D31*
X-52424950Y000299950D03*
D31*
X-52424950Y-00100150D03*
D31*
X-52424950Y-00500250D03*
D31*
X-52424950Y-00900350D03*
D31*
X-52424950Y-01300450D03*
D31*
X-52424950Y-01700550D03*
D31*
X-52424950Y-02100650D03*
D33*
X-51600650Y-02925050D03*
D33*
X-51200550Y-02925050D03*
D33*
X-50800450Y-02925050D03*
D33*
X-50400350Y-02925050D03*
D33*
X-50000250Y-02925050D03*
D33*
X-49600150Y-02925050D03*
D33*
X-49200050Y-02925050D03*
D33*
X-48799950Y-02925050D03*
D33*
X-48399850Y-02925050D03*
D33*
X-47999750Y-02925050D03*
D33*
X-47599650Y-02925050D03*
D33*
X-47199550Y-02925050D03*
D33*
X-46799450Y-02925050D03*
D33*
X-46399350Y-02925050D03*
D31*
X-45575050Y-02100650D03*
D31*
X-45575050Y-01700550D03*
D31*
X-45575050Y-01300450D03*
D31*
X-45575050Y-00900350D03*
D31*
X-45575050Y-00500250D03*
D31*
X-45575050Y-00100150D03*
D31*
X-45575050Y000299950D03*
D31*
X-45575050Y000700050D03*
D31*
X-45575050Y001100150D03*
D31*
X-45575050Y001500250D03*
D31*
X-45575050Y001900350D03*
D31*
X-45575050Y002300450D03*
D31*
X-45575050Y002700550D03*
D31*
X-45575050Y003100650D03*
D33*
X-46399350Y003925050D03*
D33*
X-46799450Y003925050D03*
D33*
X-47199550Y003925050D03*
D33*
X-47599650Y003925050D03*
D33*
X-47999750Y003925050D03*
D33*
X-48399850Y003925050D03*
D33*
X-48799950Y003925050D03*
D33*
X-49200050Y003925050D03*
D33*
X-49600150Y003925050D03*
D33*
X-50000250Y003925050D03*
D33*
X-50400350Y003925050D03*
D33*
X-50800450Y003925050D03*
D33*
X-51200550Y003925050D03*
D33*
X-51600650Y003925050D03*
D35*
X-49000000Y000500000D03*
D38*
X-44092500Y008750000D03*
D38*
X-47107500Y008750000D03*
D38*
X-44092500Y009250000D03*
D38*
X-47107500Y009250000D03*
D38*
X-44092500Y009750000D03*
D38*
X-47107500Y009750000D03*
D38*
X-44092500Y010250000D03*
D38*
X-47107500Y010250000D03*
D40*
X-45600000Y009500000D03*
D42*
X-57300050Y021150000D03*
D42*
X-57300050Y020200000D03*
D42*
X-57300050Y019250000D03*
D42*
X-55099950Y019250000D03*
D42*
X-55099950Y021150000D03*
D45*
X-50600000Y-06850000D03*
D45*
X-48400000Y-06850000D03*
D45*
X-48400000Y-05150000D03*
D45*
X-50600000Y-05150000D03*
D47*
X-42500000Y022875000D03*
D47*
X-38300000Y022875000D03*
D47*
X-42500000Y020725000D03*
D47*
X-38300000Y020725000D03*
D49*
X-44575000Y-14600000D03*
D49*
X-44575000Y-10400000D03*
D49*
X-42425000Y-14600000D03*
D49*
X-42425000Y-10400000D03*
D51*
X-39000000Y003451000D03*
D51*
X-39000000Y004949000D03*
D51*
X-58800000Y024051000D03*
D51*
X-58800000Y025549000D03*
D16*
X-37000000Y017290000D03*
D16*
X-37000000Y018310000D03*
D16*
X-41800000Y000690000D03*
D16*
X-41800000Y001710000D03*
D16*
X-55200000Y024290000D03*
D16*
X-55200000Y025310000D03*
D20*
X-49710000Y025600000D03*
D20*
X-48690000Y025600000D03*
D20*
X-45910000Y026500000D03*
D20*
X-44890000Y026500000D03*
D16*
X-45600000Y021990000D03*
D16*
X-45600000Y023010000D03*
D16*
X-46600000Y017010000D03*
D16*
X-46600000Y015990000D03*
D53*
X-51800000Y025475000D03*
D53*
X-51800000Y027125000D03*
D55*
X-58325000Y004200000D03*
D55*
X-56675000Y004200000D03*
D20*
X-45710000Y-05500000D03*
D20*
X-44690000Y-05500000D03*
D20*
X-39710000Y018400000D03*
D20*
X-38690000Y018400000D03*
D20*
X-57910000Y-11800000D03*
D20*
X-56890000Y-11800000D03*
D20*
X-46710000Y-09000000D03*
D20*
X-45690000Y-09000000D03*
D53*
X-40500000Y-02625000D03*
D53*
X-40500000Y-00975000D03*
D57*
X-55000000Y-31000000D03*
D57*
X-51000000Y-31000000D03*
D57*
X-47000000Y-31000000D03*
D57*
X-43000000Y-31000000D03*
D10*
X-49200050Y003925050D02*
X-49200050Y003335050D01*
D10*
X-49200050Y003335050D02*
X-49090773Y003225773D01*
D10*
X-49090773Y003225773D02*
X-49066000Y003201000D01*
D10*
X-49066000Y003201000D02*
X-49066000Y003201000D01*
D10*
X-46998000Y003132000D02*
X-46998000Y003132000D01*
D10*
X-46998000Y003132000D02*
X-47200000Y003334000D01*
D10*
X-47200000Y003334000D02*
X-47199550Y003925050D01*
D10*
X-48399850Y-02925050D02*
X-48400000Y-02925000D01*
D10*
X-48400000Y-02925000D02*
X-48400000Y-02216000D01*
D10*
X-48400000Y-02216000D02*
X-48400000Y-02216000D01*
D10*
X-46620000Y-04607000D02*
X-46620000Y-04607000D01*
D10*
X-46620000Y-04607000D02*
X-46617544Y-04609456D01*
D10*
X-46617544Y-04609456D02*
X-46617544Y-04673474D01*
D10*
X-46617544Y-04673474D02*
X-45791018Y-05500000D01*
D10*
X-45791018Y-05500000D02*
X-45710000Y-05500000D01*
D10*
X-49200050Y003925050D02*
X-49200050Y003520295D01*
D10*
X-49200050Y003520295D02*
X-48072218Y002392463D01*
D10*
X-48072218Y002392463D02*
X-47513858Y002392463D01*
D10*
X-47513858Y002392463D02*
X-47219613Y002098219D01*
D10*
X-47219613Y002098219D02*
X-47219613Y-01320174D01*
D10*
X-47219613Y-01320174D02*
X-48347796Y-02448358D01*
D10*
X-48347796Y-02448358D02*
X-48347796Y-02872796D01*
D10*
X-48347796Y-02872796D02*
X-48399850Y-02925050D01*
D11*
X-41510000Y-04400000D02*
X-41510000Y-04028313D01*
D11*
X-41510000Y-04028313D02*
X-41777439Y-03760874D01*
D11*
X-41777439Y-03760874D02*
X-41777439Y-03728561D01*
D11*
X-41777439Y-03728561D02*
X-41883000Y-03623000D01*
D11*
X-41883000Y-03623000D02*
X-41883000Y-03623000D01*
D11*
X-41808000Y-02015000D02*
X-41808000Y-02015000D01*
D11*
X-41808000Y-02015000D02*
X-41540000Y-02015000D01*
D11*
X-41540000Y-02015000D02*
X-40500000Y-00975000D01*
D11*
X-40500000Y-00975000D02*
X-40500000Y000352653D01*
D11*
X-40500000Y000352653D02*
X-41312671Y001165324D01*
D11*
X-41312671Y001165324D02*
X-42639653Y001165324D01*
D11*
X-42639653Y001165324D02*
X-45399329Y003925000D01*
D11*
X-45399329Y003925000D02*
X-46399000Y003925000D01*
D11*
X-46399000Y003925000D02*
X-46399350Y003925050D01*
D11*
X-51000000Y019300000D02*
X-51190000Y019300000D01*
D11*
X-51190000Y019300000D02*
X-53700000Y016790000D01*
D11*
X-53700000Y016790000D02*
X-53175000Y017260001D01*
D11*
X-53175000Y017260001D02*
X-53175000Y017273898D01*
D11*
X-53175000Y017273898D02*
X-53175000Y016790000D01*
D11*
X-53175000Y016790000D02*
X-53175000Y018563000D01*
D11*
X-53175000Y018563000D02*
X-53175000Y018273391D01*
D11*
X-53175000Y018273391D02*
X-53674580Y018717972D01*
D11*
X-53674580Y018717972D02*
X-55623258Y018717972D01*
D11*
X-55623258Y018717972D02*
X-55824599Y018919313D01*
D11*
X-55824599Y018919313D02*
X-55824599Y019883866D01*
D11*
X-55824599Y019883866D02*
X-57090733Y021150000D01*
D11*
X-57090733Y021150000D02*
X-57300050Y021150000D01*
D11*
X-51000000Y022700000D02*
X-51000000Y024675000D01*
D11*
X-51000000Y024675000D02*
X-51800000Y025475000D01*
D11*
X-51400000Y028875000D02*
X-51269690Y029005310D01*
D11*
X-51269690Y029005310D02*
X-51269690Y030820926D01*
D11*
X-51269690Y030820926D02*
X-53770796Y030820926D01*
D11*
X-53770796Y030820926D02*
X-56033674Y028558048D01*
D11*
X-56033674Y028558048D02*
X-54883048Y028558048D01*
D11*
X-54883048Y028558048D02*
X-51800000Y025475000D01*
D11*
X-46600000Y028875000D02*
X-46785759Y029060759D01*
D11*
X-46785759Y029060759D02*
X-46785759Y032547957D01*
D11*
X-46785759Y032547957D02*
X-48041485Y032547957D01*
D11*
X-48041485Y032547957D02*
X-51269729Y029319713D01*
D11*
X-51269729Y029319713D02*
X-51269729Y029005271D01*
D11*
X-51269729Y029005271D02*
X-51400000Y028875000D01*
D10*
X-52490000Y-06000000D02*
X-52490000Y-05000000D01*
D10*
X-45800000Y028875000D02*
X-45225000Y028875000D01*
D10*
X-45225000Y028875000D02*
X-44675000Y029425000D01*
D10*
X-44092500Y010250000D02*
X-44850000Y010250000D01*
D10*
X-44850000Y010250000D02*
X-45600000Y009500000D01*
D10*
X-50600000Y-05150000D02*
X-52340000Y-05150000D01*
D10*
X-52340000Y-05150000D02*
X-52490000Y-05000000D01*
D10*
X-55000000Y-10510000D02*
X-56290000Y-11800000D01*
D10*
X-56290000Y-11800000D02*
X-56890000Y-11800000D01*
D10*
X-50600000Y-05150000D02*
X-50000000Y-04550000D01*
D10*
X-50000000Y-04550000D02*
X-50000250Y-02925050D01*
D10*
X-45800000Y028875000D02*
X-44890000Y027965000D01*
D10*
X-44890000Y027965000D02*
X-44890000Y026500000D01*
D10*
X-56490000Y001600000D02*
X-56490000Y004015000D01*
D10*
X-56490000Y004015000D02*
X-56675000Y004200000D01*
D10*
X-48400000Y-06850000D02*
X-48485312Y-06850000D01*
D10*
X-48485312Y-06850000D02*
X-49132033Y-07496721D01*
D10*
X-49132033Y-07496721D02*
X-49132033Y-07611033D01*
D10*
X-49132033Y-07611033D02*
X-49209000Y-07688000D01*
D10*
X-49209000Y-07688000D02*
X-49209000Y-07688000D01*
D10*
X-52316000Y-06877000D02*
X-52316000Y-06877000D01*
D10*
X-52316000Y-06877000D02*
X-52316000Y-06866000D01*
D10*
X-52316000Y-06866000D02*
X-50600000Y-05150000D01*
D10*
X-56490000Y001600000D02*
X-56490000Y-01000000D01*
D10*
X-56490000Y-01000000D02*
X-57000000Y-01510000D01*
D10*
X-48400000Y-06850000D02*
X-48400000Y-08357929D01*
D10*
X-48400000Y-08357929D02*
X-47287928Y-09470001D01*
D10*
X-47287928Y-09470001D02*
X-47298000Y-09470001D01*
D10*
X-47298000Y-09470001D02*
X-45690000Y-09470001D01*
D10*
X-45690000Y-09470001D02*
X-46288363Y-09470001D01*
D10*
X-46288363Y-09470001D02*
X-46160001Y-09470001D01*
D10*
X-46160001Y-09470001D02*
X-45690000Y-09000000D01*
D10*
X-48690000Y025600000D02*
X-50215000Y027125000D01*
D10*
X-50215000Y027125000D02*
X-51800000Y027125000D01*
D10*
X-45690000Y-09000000D02*
X-43825000Y-09000000D01*
D10*
X-43825000Y-09000000D02*
X-42425000Y-10400000D01*
D10*
X-50000250Y-02925050D02*
X-50000000Y-02283000D01*
D10*
X-50000000Y-02283000D02*
X-50142000Y-02141000D01*
D10*
X-50142000Y-02141000D02*
X-50142000Y-02141000D01*
D10*
X-50040000Y-01345000D02*
X-50040000Y-01345000D01*
D10*
X-50040000Y-01345000D02*
X-50025137Y-01330137D01*
D10*
X-50025137Y-01330137D02*
X-50013400Y-01330137D01*
D10*
X-50013400Y-01330137D02*
X-49000000Y-00316737D01*
D10*
X-49000000Y-00316737D02*
X-49000000Y000500000D01*
D10*
X-44690000Y-05500000D02*
X-44690000Y-08000000D01*
D10*
X-44690000Y-08000000D02*
X-45690000Y-09000000D01*
D10*
X-48690000Y025600000D02*
X-47940000Y025600000D01*
D10*
X-47940000Y025600000D02*
X-47781000Y025600000D01*
D10*
X-47781000Y025600000D02*
X-47768000Y025587000D01*
D10*
X-47768000Y025587000D02*
X-47768000Y025587000D01*
D10*
X-47550000Y024392000D02*
X-47550000Y024392000D01*
D10*
X-47550000Y024392000D02*
X-46998000Y024392000D01*
D10*
X-46998000Y024392000D02*
X-44890000Y026500000D01*
D10*
X-44675000Y029425000D02*
X-44675000Y033625000D01*
D10*
X-40490000Y-04400000D02*
X-40490000Y-04703161D01*
D10*
X-40490000Y-04703161D02*
X-40627461Y-04840623D01*
D10*
X-40627461Y-04840623D02*
X-40640623Y-04840623D01*
D10*
X-40640623Y-04840623D02*
X-40800000Y-05000000D01*
D10*
X-40800000Y-05000000D02*
X-40800000Y-05000000D01*
D10*
X-42012000Y-05572000D02*
X-42012000Y-05572000D01*
D10*
X-42012000Y-05572000D02*
X-44618000Y-05572000D01*
D10*
X-44618000Y-05572000D02*
X-44690000Y-05500000D01*
D10*
X-38690000Y018400000D02*
X-38690000Y018790942D01*
D10*
X-38690000Y018790942D02*
X-38767053Y018867995D01*
D10*
X-38767053Y018867995D02*
X-38767053Y018927053D01*
D10*
X-38767053Y018927053D02*
X-38794000Y018954000D01*
D10*
X-38794000Y018954000D02*
X-38794000Y018954000D01*
D10*
X-41687000Y019815000D02*
X-41687000Y019815000D01*
D10*
X-41687000Y019815000D02*
X-41687000Y019912000D01*
D10*
X-41687000Y019912000D02*
X-42500000Y020725000D01*
D10*
X-41290000Y014500000D02*
X-40036000Y015754000D01*
D10*
X-40036000Y015754000D02*
X-39703000Y015754000D01*
D10*
X-39703000Y015754000D02*
X-39703000Y015754000D01*
D10*
X-39408000Y017535000D02*
X-39408000Y017535000D01*
D10*
X-39408000Y017535000D02*
X-39402062Y017540938D01*
D10*
X-39402062Y017540938D02*
X-38690000Y018253000D01*
D10*
X-38690000Y018253000D02*
X-38690000Y018400000D01*
D10*
X-52200000Y028875000D02*
X-52200000Y028547149D01*
D10*
X-52200000Y028547149D02*
X-51901547Y028248696D01*
D10*
X-51901547Y028248696D02*
X-49783137Y026130286D01*
D10*
X-49783137Y026130286D02*
X-49220286Y026130286D01*
D10*
X-49220286Y026130286D02*
X-48690000Y025600000D01*
D10*
X-41290000Y014500000D02*
X-41290000Y013052000D01*
D10*
X-41290000Y013052000D02*
X-44092500Y010250000D01*
D10*
X-55000000Y-10510000D02*
X-54614930Y-10510000D01*
D10*
X-54614930Y-10510000D02*
X-54003688Y-09898758D01*
D10*
X-54003688Y-09898758D02*
X-52490000Y-08385070D01*
D10*
X-52490000Y-08385070D02*
X-52490000Y-06000000D01*
D10*
X-51490000Y006000000D02*
X-53290000Y004200000D01*
D10*
X-53290000Y004200000D02*
X-56675000Y004200000D01*
D10*
X-57000000Y-01510000D02*
X-54393677Y-04116323D01*
D10*
X-54393677Y-04116323D02*
X-53373677Y-04116323D01*
D10*
X-53373677Y-04116323D02*
X-52490000Y-05000000D01*
D10*
X-55010000Y010800000D02*
X-55010000Y007250337D01*
D10*
X-55010000Y007250337D02*
X-52923864Y005164200D01*
D10*
X-52923864Y005164200D02*
X-52803668Y005044004D01*
D10*
X-52803668Y005044004D02*
X-52473840Y005044004D01*
D10*
X-52473840Y005044004D02*
X-52445996Y005044004D01*
D10*
X-52445996Y005044004D02*
X-51490000Y006000000D01*
D10*
X-53325000Y029425000D02*
X-50030128Y026130128D01*
D10*
X-50030128Y026130128D02*
X-49220128Y026130128D01*
D10*
X-49220128Y026130128D02*
X-48690000Y025600000D01*
D10*
X-44890000Y026500000D02*
X-44890000Y023115000D01*
D10*
X-44890000Y023115000D02*
X-42500000Y020725000D01*
D10*
X-51490000Y006000000D02*
X-51490000Y006571262D01*
D10*
X-51490000Y006571262D02*
X-50970142Y007091121D01*
D10*
X-50970142Y007091121D02*
X-50519726Y007541536D01*
D10*
X-50519726Y007541536D02*
X-46907149Y007541536D01*
D10*
X-46907149Y007541536D02*
X-45600000Y008848685D01*
D10*
X-45600000Y008848685D02*
X-45600000Y009500000D01*
D10*
X-40490000Y-04400000D02*
X-39000000Y-02910000D01*
D10*
X-39000000Y-02910000D02*
X-39000000Y003451000D01*
D10*
X-44675000Y033625000D02*
X-53325000Y033625000D01*
D10*
X-55010000Y010800000D02*
X-55010000Y015906180D01*
D10*
X-55010000Y015906180D02*
X-57950051Y018846231D01*
D10*
X-57950051Y018846231D02*
X-57950051Y020200000D01*
D10*
X-57950051Y020200000D02*
X-57950051Y019846070D01*
D10*
X-57950051Y019846070D02*
X-57653930Y019846070D01*
D10*
X-57653930Y019846070D02*
X-57300050Y020200000D01*
D10*
X-48690000Y025600000D02*
X-48690000Y025135655D01*
D10*
X-48690000Y025135655D02*
X-48891921Y024933734D01*
D10*
X-48891921Y024933734D02*
X-48933266Y024933734D01*
D10*
X-48933266Y024933734D02*
X-49049000Y024818000D01*
D10*
X-49049000Y024818000D02*
X-49049000Y024818000D01*
D10*
X-55800000Y024400000D02*
X-55800000Y024400000D01*
D10*
X-55800000Y024400000D02*
X-58451000Y024400000D01*
D10*
X-58451000Y024400000D02*
X-58800000Y024051000D01*
D10*
X-56890000Y-11800000D02*
X-56890000Y-20940023D01*
D10*
X-56890000Y-20940023D02*
X-51000000Y-26830023D01*
D10*
X-51000000Y-26830023D02*
X-51000000Y-31000000D01*
D11*
X-47599650Y-02925050D02*
X-47600000Y-03876000D01*
D11*
X-47600000Y-03876000D02*
X-47265000Y-04211000D01*
D11*
X-47265000Y-04211000D02*
X-47265000Y-04211000D01*
D11*
X-49696000Y-23164000D02*
X-49696000Y-23164000D01*
D11*
X-49696000Y-23164000D02*
X-49575962Y-23284038D01*
D11*
X-49575962Y-23284038D02*
X-49575962Y-23317097D01*
D11*
X-49575962Y-23317097D02*
X-47000000Y-25893059D01*
D11*
X-47000000Y-25893059D02*
X-47000000Y-31000000D01*
D11*
X-47999750Y-02925050D02*
X-48000000Y-03333632D01*
D11*
X-48000000Y-03333632D02*
X-48213018Y-03546650D01*
D11*
X-48213018Y-03546650D02*
X-48347094Y-03546650D01*
D11*
X-48347094Y-03546650D02*
X-49301974Y-04501530D01*
D11*
X-49301974Y-04501530D02*
X-49301974Y-07211449D01*
D11*
X-49301974Y-07211449D02*
X-49678248Y-07587723D01*
D11*
X-49678248Y-07587723D02*
X-53584000Y-11493475D01*
D11*
X-53584000Y-11493475D02*
X-53584000Y-23773000D01*
D11*
X-53584000Y-23773000D02*
X-53584000Y-23773000D01*
D11*
X-53648000Y-26137000D02*
X-53648000Y-26137000D01*
D11*
X-53648000Y-26137000D02*
X-53625715Y-26159285D01*
D11*
X-53625715Y-26159285D02*
X-53625715Y-26319345D01*
D11*
X-53625715Y-26319345D02*
X-55000000Y-27693630D01*
D11*
X-55000000Y-27693630D02*
X-55000000Y-31000000D01*
D11*
X-55200000Y025310000D02*
X-58561000Y025310000D01*
D11*
X-58561000Y025310000D02*
X-58800000Y025549000D01*
D11*
X-41800000Y001710000D02*
X-39000000Y004510000D01*
D11*
X-39000000Y004510000D02*
X-39000000Y004949000D01*
D11*
X-45575050Y001100150D02*
X-45572962Y001102038D01*
D11*
X-45572962Y001102038D02*
X-45076340Y001102038D01*
D11*
X-45076340Y001102038D02*
X-44664302Y000690000D01*
D11*
X-44664302Y000690000D02*
X-41800000Y000690000D01*
D11*
X-48400000Y-05150000D02*
X-48400000Y-04433556D01*
D11*
X-48400000Y-04433556D02*
X-48423715Y-04409841D01*
D11*
X-48423715Y-04409841D02*
X-48423715Y-04369285D01*
D11*
X-48423715Y-04369285D02*
X-48522000Y-04271000D01*
D11*
X-48522000Y-04271000D02*
X-48522000Y-04271000D01*
D11*
X-49025000Y-03647000D02*
X-49025000Y-03647000D01*
D11*
X-49025000Y-03647000D02*
X-49200000Y-03472000D01*
D11*
X-49200000Y-03472000D02*
X-49200050Y-02925050D01*
D11*
X-46710000Y-09000000D02*
X-46710000Y-06840000D01*
D11*
X-46710000Y-06840000D02*
X-48400000Y-05150000D01*
D11*
X-50600000Y-06850000D02*
X-49600000Y-05850000D01*
D11*
X-49600000Y-05850000D02*
X-49600150Y-02925050D01*
D11*
X-57910000Y-11800000D02*
X-57310000Y-11200000D01*
D11*
X-57310000Y-11200000D02*
X-56200000Y-11200000D01*
D11*
X-56200000Y-11200000D02*
X-56200000Y-11200000D01*
D11*
X-55618000Y-15018000D02*
X-55618000Y-15018000D01*
D11*
X-55618000Y-15018000D02*
X-55597355Y-15038645D01*
D11*
X-55597355Y-15038645D02*
X-55413881Y-15038645D01*
D11*
X-55413881Y-15038645D02*
X-54353549Y-13978313D01*
D11*
X-54353549Y-13978313D02*
X-54353549Y-10603549D01*
D11*
X-54353549Y-10603549D02*
X-50600000Y-06850000D01*
D10*
X-50750000Y028875000D02*
X-50667958Y028957042D01*
D10*
X-50667958Y028957042D02*
X-50667958Y029314238D01*
D10*
X-50667958Y029314238D02*
X-50667958Y029451520D01*
D10*
X-50667958Y029451520D02*
X-50631821Y029551344D01*
D10*
X-50631821Y029551344D02*
X-50253821Y029648344D01*
D10*
X-50253821Y029648344D02*
X-50199961Y029790108D01*
D10*
X-50199961Y029790108D02*
X-49602904Y030295000D01*
D10*
X-49602904Y030295000D02*
X-49445929Y030295000D01*
D10*
X-49445929Y030295000D02*
X-48731929Y031009000D01*
D10*
X-48731929Y031009000D02*
X-47494000Y031009000D01*
D10*
X-47494000Y031009000D02*
X-47494000Y031009000D01*
D10*
X-46867000Y027602000D02*
X-46867000Y027602000D01*
D10*
X-46867000Y027602000D02*
X-46730064Y027465064D01*
D10*
X-46730064Y027465064D02*
X-46730064Y027410229D01*
D10*
X-46730064Y027410229D02*
X-45910000Y026590165D01*
D10*
X-45910000Y026590165D02*
X-45910000Y026500000D01*
D10*
X-47750000Y028875000D02*
X-47750000Y027550467D01*
D10*
X-47750000Y027550467D02*
X-47449221Y027249688D01*
D10*
X-47449221Y027249688D02*
X-47385359Y027185826D01*
D10*
X-47385359Y027185826D02*
X-47385359Y025526618D01*
D10*
X-47385359Y025526618D02*
X-47385359Y025402352D01*
D10*
X-47385359Y025402352D02*
X-48357870Y024429842D01*
D10*
X-48357870Y024429842D02*
X-49285432Y024429842D01*
D10*
X-49285432Y024429842D02*
X-49651735Y024796144D01*
D10*
X-49651735Y024796144D02*
X-49651735Y025541735D01*
D10*
X-49651735Y025541735D02*
X-49710000Y025600000D01*
D10*
X-46600000Y015990000D02*
X-47500000Y015090000D01*
D10*
X-47500000Y015090000D02*
X-47731000Y015090000D01*
D10*
X-47731000Y015090000D02*
X-47731000Y015090000D01*
D10*
X-48164000Y006644000D02*
X-48164000Y006644000D01*
D10*
X-48164000Y006644000D02*
X-48143097Y006623097D01*
D10*
X-48143097Y006623097D02*
X-48143097Y006615577D01*
D10*
X-48143097Y006615577D02*
X-47999750Y006472231D01*
D10*
X-47999750Y006472231D02*
X-47999750Y003925050D01*
D10*
X-45600000Y023010000D02*
X-45269885Y022679885D01*
D10*
X-45269885Y022679885D02*
X-45269885Y022494885D01*
D10*
X-45269885Y022494885D02*
X-45216000Y022500000D01*
D10*
X-45216000Y022500000D02*
X-45105000Y022299000D01*
D10*
X-45105000Y022299000D02*
X-45100000Y022100000D01*
D10*
X-45100000Y022100000D02*
X-45100000Y021700000D01*
D10*
X-45100000Y021700000D02*
X-45100000Y021541439D01*
D10*
X-45100000Y021541439D02*
X-45600000Y021100439D01*
D10*
X-45600000Y021100439D02*
X-45600000Y019977000D01*
D10*
X-45600000Y019977000D02*
X-45600000Y019977000D01*
D10*
X-46725000Y006304000D02*
X-46725000Y006304000D01*
D10*
X-46725000Y006304000D02*
X-46873954Y006155046D01*
D10*
X-46873954Y006155046D02*
X-46873954Y006124373D01*
D10*
X-46873954Y006124373D02*
X-47599650Y005398677D01*
D10*
X-47599650Y005398677D02*
X-47599650Y003925050D01*
D10*
X-48399850Y003925050D02*
X-48400050Y003925050D01*
D10*
X-48400050Y003925050D02*
X-48799950Y003925050D01*
D10*
X-53510000Y-06000000D02*
X-53510000Y-05000000D01*
D10*
X-45575050Y003100650D02*
X-46399913Y003100650D01*
D10*
X-46399913Y003100650D02*
X-46746507Y003447243D01*
D10*
X-46746507Y003447243D02*
X-46746507Y003872507D01*
D10*
X-46746507Y003872507D02*
X-46799450Y003925050D01*
D10*
X-46799450Y003925050D02*
X-46799000Y003543241D01*
D10*
X-46799000Y003543241D02*
X-46647861Y003392102D01*
D10*
X-46647861Y003392102D02*
X-46647861Y002988371D01*
D10*
X-46647861Y002988371D02*
X-46858113Y002778119D01*
D10*
X-46858113Y002778119D02*
X-47649330Y002778119D01*
D10*
X-47649330Y002778119D02*
X-47796454Y002925242D01*
D10*
X-47796454Y002925242D02*
X-48399850Y003528639D01*
D10*
X-48399850Y003528639D02*
X-48399850Y003925050D01*
D10*
X-57510000Y001600000D02*
X-57000000Y001090000D01*
D10*
X-57000000Y001090000D02*
X-57000000Y-00490000D01*
D10*
X-39710000Y018400000D02*
X-39710000Y018558585D01*
D10*
X-39710000Y018558585D02*
X-38959538Y019309048D01*
D10*
X-38959538Y019309048D02*
X-37999048Y019309048D01*
D10*
X-37999048Y019309048D02*
X-37000000Y018310000D01*
D10*
X-57510000Y001600000D02*
X-57510000Y003385000D01*
D10*
X-57510000Y003385000D02*
X-58325000Y004200000D01*
D10*
X-52510000Y006000000D02*
X-52510000Y005673477D01*
D10*
X-52510000Y005673477D02*
X-52632597Y005550880D01*
D10*
X-52632597Y005550880D02*
X-52632597Y005513403D01*
D10*
X-52632597Y005513403D02*
X-52697000Y005449000D01*
D10*
X-52697000Y005449000D02*
X-52697000Y005449000D01*
D10*
X-53800000Y002800000D02*
X-53800000Y002800000D01*
D10*
X-53800000Y002800000D02*
X-53499000Y003101000D01*
D10*
X-53499000Y003101000D02*
X-52424950Y003100650D01*
D10*
X-55099950Y021150000D02*
X-55200000Y021250000D01*
D10*
X-55200000Y021250000D02*
X-55200000Y024290000D01*
D10*
X-52424950Y-00500250D02*
X-52962350Y-00500250D01*
D10*
X-52962350Y-00500250D02*
X-53111353Y-00351248D01*
D10*
X-53111353Y-00351248D02*
X-53111353Y002835197D01*
D10*
X-53111353Y002835197D02*
X-52900652Y003045898D01*
D10*
X-52900652Y003045898D02*
X-52845900Y003100650D01*
D10*
X-52845900Y003100650D02*
X-52424950Y003100650D01*
D10*
X-48799950Y003925050D02*
X-48799950Y003634377D01*
D10*
X-48799950Y003634377D02*
X-48475207Y003309634D01*
D10*
X-48475207Y003309634D02*
X-48453634Y003309634D01*
D10*
X-48453634Y003309634D02*
X-48305000Y003161000D01*
D10*
X-48305000Y003161000D02*
X-48305000Y003161000D01*
D10*
X-48889000Y002592000D02*
X-48889000Y002592000D01*
D10*
X-48889000Y002592000D02*
X-51485511Y002592000D01*
D10*
X-51485511Y002592000D02*
X-51947135Y003053624D01*
D10*
X-51947135Y003053624D02*
X-52377624Y003053624D01*
D10*
X-52377624Y003053624D02*
X-52424950Y003100650D01*
D10*
X-38090000Y-05500000D02*
X-38614926Y-04975074D01*
D10*
X-38614926Y-04975074D02*
X-38742649Y-04975074D01*
D10*
X-38742649Y-04975074D02*
X-39810074Y-04975074D01*
D10*
X-39810074Y-04975074D02*
X-39937000Y-05102000D01*
D10*
X-39937000Y-05102000D02*
X-39937000Y-05102000D01*
D10*
X-40646097Y-03273680D02*
X-40646097Y-03273680D01*
D10*
X-40646097Y-03273680D02*
X-40517335Y-03144918D01*
D10*
X-40517335Y-03144918D02*
X-40517335Y-03117802D01*
D10*
X-40517335Y-03117802D02*
X-40500000Y-03100468D01*
D10*
X-40500000Y-03100468D02*
X-40500000Y-02625000D01*
D10*
X-55000000Y-09490000D02*
X-53510000Y-08000000D01*
D10*
X-53510000Y-08000000D02*
X-53510000Y-06000000D01*
D10*
X-48799950Y-02925050D02*
X-48799950Y-02531051D01*
D10*
X-48799950Y-02531051D02*
X-49581811Y-01749190D01*
D10*
X-49581811Y-01749190D02*
X-50564344Y-01749190D01*
D10*
X-50564344Y-01749190D02*
X-51813534Y-00500000D01*
D10*
X-51813534Y-00500000D02*
X-52425000Y-00500000D01*
D10*
X-52425000Y-00500000D02*
X-52424950Y-00500250D01*
D10*
X-57000000Y-00490000D02*
X-57472446Y-00490000D01*
D10*
X-57472446Y-00490000D02*
X-57478079Y-00495634D01*
D10*
X-57478079Y-00495634D02*
X-57509784Y-00463929D01*
D10*
X-57509784Y-00463929D02*
X-57509784Y-00463929D01*
D10*
X-53271192Y-00869458D02*
X-53271192Y-00869458D01*
D10*
X-53271192Y-00869458D02*
X-53131285Y-00802850D01*
D10*
X-53131285Y-00802850D02*
X-52840555Y-00512120D01*
D10*
X-52840555Y-00512120D02*
X-52437120Y-00512120D01*
D10*
X-52437120Y-00512120D02*
X-52424950Y-00500250D01*
D10*
X-45575050Y-00500250D02*
X-45986105Y-00500250D01*
D10*
X-45986105Y-00500250D02*
X-46369681Y-00116674D01*
D10*
X-46369681Y-00116674D02*
X-46369681Y003085081D01*
D10*
X-46369681Y003085081D02*
X-46736436Y003451837D01*
D10*
X-46736436Y003451837D02*
X-46736436Y003862436D01*
D10*
X-46736436Y003862436D02*
X-46799450Y003925050D01*
D10*
X-53510000Y-05000000D02*
X-53557233Y-05000000D01*
D10*
X-53557233Y-05000000D02*
X-54053995Y-04503238D01*
D10*
X-54053995Y-04503238D02*
X-54071238Y-04503238D01*
D10*
X-54071238Y-04503238D02*
X-54087000Y-04519000D01*
D10*
X-54087000Y-04519000D02*
X-54087000Y-04519000D01*
D10*
X-54091000Y-03717000D02*
X-54091000Y-03717000D01*
D10*
X-54091000Y-03717000D02*
X-54091000Y-03130220D01*
D10*
X-54091000Y-03130220D02*
X-53174673Y-02052500D01*
D10*
X-53174673Y-02052500D02*
X-53189794Y-02184401D01*
D10*
X-53189794Y-02184401D02*
X-52994794Y-00483401D01*
D10*
X-52994794Y-00483401D02*
X-52771000Y-00500000D01*
D10*
X-52771000Y-00500000D02*
X-52731000Y-00500000D01*
D10*
X-52731000Y-00500000D02*
X-52692000Y-00500000D01*
D10*
X-52692000Y-00500000D02*
X-52645000Y-00500000D01*
D10*
X-52645000Y-00500000D02*
X-52598000Y-00500000D01*
D10*
X-52598000Y-00500000D02*
X-52550000Y-00500000D01*
D10*
X-52550000Y-00500000D02*
X-52500000Y-00500000D01*
D10*
X-52500000Y-00500000D02*
X-52450000Y-00500000D01*
D10*
X-52450000Y-00500000D02*
X-52424950Y-00500250D01*
D10*
X-42310000Y014500000D02*
X-41778000Y015032000D01*
D10*
X-41778000Y015032000D02*
X-41778000Y015418000D01*
D10*
X-41778000Y015418000D02*
X-41778000Y015418000D01*
D10*
X-41049000Y018422000D02*
X-41049000Y018422000D01*
D10*
X-41049000Y018422000D02*
X-41021333Y018449667D01*
D10*
X-41021333Y018449667D02*
X-40939208Y018449667D01*
D10*
X-40939208Y018449667D02*
X-40889541Y018400000D01*
D10*
X-40889541Y018400000D02*
X-39710000Y018400000D01*
D10*
X-46799450Y003925050D02*
X-46799450Y005750247D01*
D10*
X-46799450Y005750247D02*
X-46322434Y006227263D01*
D10*
X-46322434Y006227263D02*
X-46322434Y006401713D01*
D10*
X-46322434Y006401713D02*
X-46905914Y006985193D01*
D10*
X-46905914Y006985193D02*
X-46907193Y006985193D01*
D10*
X-46907193Y006985193D02*
X-46968000Y007046000D01*
D10*
X-46968000Y007046000D02*
X-46968000Y007046000D01*
D10*
X-46994000Y008001000D02*
X-46994000Y008001000D01*
D10*
X-46994000Y008001000D02*
X-46994000Y008637000D01*
D10*
X-46994000Y008637000D02*
X-47107500Y008750000D01*
D10*
X-53990000Y010800000D02*
X-52510000Y009320000D01*
D10*
X-52510000Y009320000D02*
X-52510000Y006000000D01*
D10*
X-45575050Y-00500250D02*
X-45567129Y-00507871D01*
D10*
X-45567129Y-00507871D02*
X-45146065Y-00507871D01*
D10*
X-45146065Y-00507871D02*
X-45109183Y-00479592D01*
D10*
X-45109183Y-00479592D02*
X-44959183Y-00779592D01*
D10*
X-44959183Y-00779592D02*
X-44833910Y-00871315D01*
D10*
X-44833910Y-00871315D02*
X-43141450Y-02625000D01*
D10*
X-43141450Y-02625000D02*
X-40500000Y-02625000D01*
D10*
X-42310000Y014500000D02*
X-42357738Y014452262D01*
D10*
X-42357738Y014452262D02*
X-42357738Y014020281D01*
D10*
X-42357738Y014020281D02*
X-46349793Y010028227D01*
D10*
X-46349793Y010028227D02*
X-46349793Y009260414D01*
D10*
X-46349793Y009260414D02*
X-46860206Y008750000D01*
D10*
X-46860206Y008750000D02*
X-47107500Y008750000D01*
D10*
X-53990000Y010800000D02*
X-53990000Y015487547D01*
D10*
X-53990000Y015487547D02*
X-53946000Y015531547D01*
D10*
X-53946000Y015531547D02*
X-53946000Y015603000D01*
D10*
X-53946000Y015603000D02*
X-53946000Y015603000D01*
D10*
X-54271000Y020090000D02*
X-54271000Y020090000D01*
D10*
X-54271000Y020090000D02*
X-54271000Y020321000D01*
D10*
X-54271000Y020321000D02*
X-55099950Y021150000D01*
D10*
X-55000000Y-09490000D02*
X-54879000Y-09611000D01*
D10*
X-54879000Y-09611000D02*
X-54289000Y-09611000D01*
D10*
X-54289000Y-09611000D02*
X-54289000Y-09611000D01*
D10*
X-51350000Y-12418000D02*
X-51350000Y-12418000D01*
D10*
X-51350000Y-12418000D02*
X-51322034Y-12445966D01*
D10*
X-51322034Y-12445966D02*
X-51322034Y-12447199D01*
D10*
X-51322034Y-12447199D02*
X-43000000Y-20769233D01*
D10*
X-43000000Y-20769233D02*
X-43000000Y-31000000D01*
D10*
X-50000250Y003925050D02*
X-50000250Y004502634D01*
D10*
X-50000250Y004502634D02*
X-49163000Y005339884D01*
D10*
X-49163000Y005339884D02*
X-49163000Y006280312D01*
D10*
X-49163000Y006280312D02*
X-49901600Y007018912D01*
D10*
X-49901600Y007018912D02*
X-49901600Y007043600D01*
D10*
X-49901600Y007043600D02*
X-49932000Y007074000D01*
D10*
X-49932000Y007074000D02*
X-49932000Y007074000D01*
D10*
X-49687000Y009386000D02*
X-49687000Y009386000D01*
D10*
X-49687000Y009386000D02*
X-47716660Y009386000D01*
D10*
X-47716660Y009386000D02*
X-47353111Y009749549D01*
D10*
X-47353111Y009749549D02*
X-47107451Y009749549D01*
D10*
X-47107451Y009749549D02*
X-47107500Y009750000D01*
D10*
X-49600150Y003925050D02*
X-49600150Y004542422D01*
D10*
X-49600150Y004542422D02*
X-48800000Y005342572D01*
D10*
X-48800000Y005342572D02*
X-48800000Y006592157D01*
D10*
X-48800000Y006592157D02*
X-48800000Y006718000D01*
D10*
X-48800000Y006718000D02*
X-48800000Y006718000D01*
D10*
X-48607000Y008965000D02*
X-48607000Y008965000D01*
D10*
X-48607000Y008965000D02*
X-47637821Y008965000D01*
D10*
X-47637821Y008965000D02*
X-47353440Y009249381D01*
D10*
X-47353440Y009249381D02*
X-47107619Y009249381D01*
D10*
X-47107619Y009249381D02*
X-47107500Y009250000D01*
D10*
X-50800450Y003925050D02*
X-50800450Y006652926D01*
D10*
X-50800450Y006652926D02*
X-50784815Y006668561D01*
D10*
X-50784815Y006668561D02*
X-50784815Y006743185D01*
D10*
X-50784815Y006743185D02*
X-50678000Y006850000D01*
D10*
X-50678000Y006850000D02*
X-50678000Y006850000D01*
D10*
X-50384000Y010186000D02*
X-50384000Y010186000D01*
D10*
X-50384000Y010186000D02*
X-48658000Y011912000D01*
D10*
X-48658000Y011912000D02*
X-45100988Y011912000D01*
D10*
X-45100988Y011912000D02*
X-44951000Y011912000D01*
D10*
X-44951000Y011912000D02*
X-44951000Y011912000D01*
D10*
X-43621000Y009784000D02*
X-43621000Y009784000D01*
D10*
X-43621000Y009784000D02*
X-44058000Y009784000D01*
D10*
X-44058000Y009784000D02*
X-44092500Y009750000D01*
D10*
X-51200550Y003925050D02*
X-51200550Y003486126D01*
D10*
X-51200550Y003486126D02*
X-51157430Y003443007D01*
D10*
X-51157430Y003443007D02*
X-51157430Y003367128D01*
D10*
X-51157430Y003367128D02*
X-51069977Y003279674D01*
D10*
X-51069977Y003279674D02*
X-51069977Y003279674D01*
D10*
X-45697000Y007773000D02*
X-45697000Y007773000D01*
D10*
X-45697000Y007773000D02*
X-45697000Y007889141D01*
D10*
X-45697000Y007889141D02*
X-44337949Y009248192D01*
D10*
X-44337949Y009248192D02*
X-44093808Y009248192D01*
D10*
X-44093808Y009248192D02*
X-44092500Y009250000D01*
D10*
X-50400350Y003925050D02*
X-50400350Y004539357D01*
D10*
X-50400350Y004539357D02*
X-49597362Y005342345D01*
D10*
X-49597362Y005342345D02*
X-49597362Y005407638D01*
D10*
X-49597362Y005407638D02*
X-49554000Y005451000D01*
D10*
X-49554000Y005451000D02*
X-49554000Y005451000D01*
D10*
X-48987000Y009991000D02*
X-48987000Y009991000D01*
D10*
X-48987000Y009991000D02*
X-48728000Y010250000D01*
D10*
X-48728000Y010250000D02*
X-47107500Y010250000D01*
D10*
X-42500000Y022875000D02*
X-41181589Y021556589D01*
D10*
X-41181589Y021556589D02*
X-41181589Y019671874D01*
D10*
X-41181589Y019671874D02*
X-41470478Y019382985D01*
D10*
X-41470478Y019382985D02*
X-41470478Y018371053D01*
D10*
X-41470478Y018371053D02*
X-40291460Y017192035D01*
D10*
X-40291460Y017192035D02*
X-40209166Y017192035D01*
D10*
X-40209166Y017192035D02*
X-37097965Y017192035D01*
D10*
X-37097965Y017192035D02*
X-37000000Y017290000D01*
D10*
X-51600650Y003925050D02*
X-51600650Y003323481D01*
D10*
X-51600650Y003323481D02*
X-51495755Y003218586D01*
D10*
X-51495755Y003218586D02*
X-51495755Y003210058D01*
D10*
X-51495755Y003210058D02*
X-51475023Y003189326D01*
D10*
X-51475023Y003189326D02*
X-51475023Y003189326D01*
D10*
X-44126000Y008188000D02*
X-44126000Y008188000D01*
D10*
X-44126000Y008188000D02*
X-44126000Y008716000D01*
D10*
X-44126000Y008716000D02*
X-44092500Y008750000D01*
D10*
X-44092500Y008750000D02*
X-44052392Y008789608D01*
D10*
X-44052392Y008789608D02*
X-43858907Y008789608D01*
D10*
X-43858907Y008789608D02*
X-37000000Y015648515D01*
D10*
X-37000000Y015648515D02*
X-37000000Y017290000D01*
D10*
X-39110000Y-05500000D02*
X-41598346Y-05500000D01*
D10*
X-41598346Y-05500000D02*
X-43550919Y-03547427D01*
D10*
X-43550919Y-03547427D02*
X-46961068Y-03547427D01*
D10*
X-46961068Y-03547427D02*
X-47118073Y-03390423D01*
D10*
X-47118073Y-03390423D02*
X-47118073Y-03006927D01*
D10*
X-47118073Y-03006927D02*
X-47199550Y-02925050D01*
D10*
X-39110000Y-05500000D02*
X-39110000Y-09135000D01*
D10*
X-39110000Y-09135000D02*
X-44575000Y-14600000D01*
D11*
X-53700000Y017810000D02*
X-55860000Y017810000D01*
D11*
X-55860000Y017810000D02*
X-57300050Y019250000D01*
D11*
X-49750000Y028875000D02*
X-49719733Y028905267D01*
D11*
X-49719733Y028905267D02*
X-49719733Y029772636D01*
D11*
X-49719733Y029772636D02*
X-49523563Y029968805D01*
D11*
X-49523563Y029968805D02*
X-49126893Y029968805D01*
D11*
X-49126893Y029968805D02*
X-48750000Y029591913D01*
D11*
X-48750000Y029591913D02*
X-48750000Y028875000D01*
D11*
X-48750000Y028875000D02*
X-48644000Y028769000D01*
D11*
X-48644000Y028769000D02*
X-48644000Y026199000D01*
D11*
X-48644000Y026199000D02*
X-48644000Y026199000D01*
D11*
X-47815000Y021124000D02*
X-47815000Y021124000D01*
D11*
X-47815000Y021124000D02*
X-47735208Y021044208D01*
D11*
X-47735208Y021044208D02*
X-47718904Y021044208D01*
D11*
X-47718904Y021044208D02*
X-46600000Y019925304D01*
D11*
X-46600000Y019925304D02*
X-46600000Y017010000D01*
D11*
X-48250000Y028875000D02*
X-48250000Y030450000D01*
D11*
X-48250000Y030450000D02*
X-48373401Y030573401D01*
D11*
X-48373401Y030573401D02*
X-48400000Y030600000D01*
D11*
X-48400000Y030600000D02*
X-48400000Y030600000D01*
D11*
X-49259000Y029610000D02*
X-49259000Y029610000D01*
D11*
X-49259000Y029610000D02*
X-49259000Y028884000D01*
D11*
X-49259000Y028884000D02*
X-49250000Y028875000D01*
D11*
X-48250000Y028875000D02*
X-48250000Y027555521D01*
D11*
X-48250000Y027555521D02*
X-47954032Y027259554D01*
D11*
X-47954032Y027259554D02*
X-47954032Y027221032D01*
D11*
X-47954032Y027221032D02*
X-47924000Y027191000D01*
D11*
X-47924000Y027191000D02*
X-47924000Y027191000D01*
D11*
X-47014000Y023121000D02*
X-47014000Y023121000D01*
D11*
X-47014000Y023121000D02*
X-46731000Y023121000D01*
D11*
X-46731000Y023121000D02*
X-45600000Y021990000D01*
D62*
X-49066000Y003201000D03*
D62*
X-46998000Y003132000D03*
D62*
X-48400000Y-02216000D03*
D62*
X-46620000Y-04607000D03*
D62*
X-41883000Y-03623000D03*
D62*
X-41808000Y-02015000D03*
D62*
X-49209000Y-07688000D03*
D62*
X-52316000Y-06877000D03*
D62*
X-50142000Y-02141000D03*
D62*
X-50040000Y-01345000D03*
D62*
X-47768000Y025587000D03*
D62*
X-47550000Y024392000D03*
D62*
X-40800000Y-05000000D03*
D62*
X-42012000Y-05572000D03*
D62*
X-38794000Y018954000D03*
D62*
X-41687000Y019815000D03*
D62*
X-39703000Y015754000D03*
D62*
X-39408000Y017535000D03*
D62*
X-49049000Y024818000D03*
D62*
X-55800000Y024400000D03*
D62*
X-47265000Y-04211000D03*
D62*
X-49696000Y-23164000D03*
D62*
X-53584000Y-23773000D03*
D62*
X-53648000Y-26137000D03*
D62*
X-48522000Y-04271000D03*
D62*
X-49025000Y-03647000D03*
D62*
X-56200000Y-11200000D03*
D62*
X-55618000Y-15018000D03*
D62*
X-47494000Y031009000D03*
D62*
X-46867000Y027602000D03*
D62*
X-47731000Y015090000D03*
D62*
X-48164000Y006644000D03*
D62*
X-45600000Y019977000D03*
D62*
X-46725000Y006304000D03*
D62*
X-52697000Y005449000D03*
D62*
X-53800000Y002800000D03*
D62*
X-48305000Y003161000D03*
D62*
X-48889000Y002592000D03*
D62*
X-39937000Y-05102000D03*
D62*
X-40646097Y-03273680D03*
D62*
X-57509784Y-00463929D03*
D62*
X-53271192Y-00869458D03*
D62*
X-54087000Y-04519000D03*
D62*
X-54091000Y-03717000D03*
D62*
X-41778000Y015418000D03*
D62*
X-41049000Y018422000D03*
D62*
X-46968000Y007046000D03*
D62*
X-46994000Y008001000D03*
D62*
X-53946000Y015603000D03*
D62*
X-54271000Y020090000D03*
D62*
X-54289000Y-09611000D03*
D62*
X-51350000Y-12418000D03*
D62*
X-49932000Y007074000D03*
D62*
X-49687000Y009386000D03*
D62*
X-48800000Y006718000D03*
D62*
X-48607000Y008965000D03*
D62*
X-50678000Y006850000D03*
D62*
X-50384000Y010186000D03*
D62*
X-44951000Y011912000D03*
D62*
X-43621000Y009784000D03*
D62*
X-51069977Y003279674D03*
D62*
X-45697000Y007773000D03*
D62*
X-49554000Y005451000D03*
D62*
X-48987000Y009991000D03*
D62*
X-51475023Y003189326D03*
D62*
X-44126000Y008188000D03*
D62*
X-48644000Y026199000D03*
D62*
X-47815000Y021124000D03*
D62*
X-48400000Y030600000D03*
D62*
X-49259000Y029610000D03*
D62*
X-47924000Y027191000D03*
D62*
X-47014000Y023121000D03*
D11*
X041275000Y-07659000D02*
X041275000Y-07659000D01*
D11*
X041275000Y-07659000D02*
X041275000Y-14431404D01*
D11*
X041275000Y-14431404D02*
X042672630Y-15829033D01*
D11*
X042672630Y-15829033D02*
X042672630Y-15863630D01*
D11*
X042672630Y-15863630D02*
X042794000Y-15985000D01*
D11*
X042794000Y-15985000D02*
X042794000Y-15985000D01*
D11*
X022505000Y-08805000D02*
X022505000Y-08805000D01*
D11*
X022505000Y-08805000D02*
X022505000Y-14676853D01*
D11*
X022505000Y-14676853D02*
X023655530Y-15827383D01*
D11*
X023655530Y-15827383D02*
X023655530Y-15896530D01*
D11*
X023655530Y-15896530D02*
X023744000Y-15985000D01*
D11*
X023744000Y-15985000D02*
X023744000Y-15985000D01*
D11*
X003305000Y-08805000D02*
X003305000Y-08805000D01*
D11*
X003305000Y-08805000D02*
X003187000Y-08923000D01*
D11*
X003187000Y-08923000D02*
X003187000Y-08944498D01*
D11*
X003187000Y-08944498D02*
X003187000Y-13944000D01*
D11*
X003187000Y-13944000D02*
X003187000Y-13944000D01*
D11*
X020056000Y007543000D02*
X020056000Y007543000D01*
D11*
X020056000Y007543000D02*
X020138887Y007460113D01*
D11*
X020138887Y007460113D02*
X020149674Y007460113D01*
D11*
X020149674Y007460113D02*
X020380787Y007229000D01*
D11*
X020380787Y007229000D02*
X024803000Y007229000D01*
D11*
X024803000Y007229000D02*
X024803000Y007229000D01*
D11*
X000819000Y007027000D02*
X000819000Y007027000D01*
D11*
X000819000Y007027000D02*
X006227000Y007027000D01*
D11*
X006227000Y007027000D02*
X007174051Y007974051D01*
D11*
X007174051Y007974051D02*
X007200000Y008000000D01*
D11*
X007200000Y008000000D02*
X007200000Y008000000D01*
D11*
X037220000Y006672000D02*
X037220000Y006672000D01*
D11*
X037220000Y006672000D02*
X042371908Y006672000D01*
D11*
X042371908Y006672000D02*
X043324118Y005719790D01*
D11*
X043324118Y005719790D02*
X043408210Y005719790D01*
D11*
X043408210Y005719790D02*
X043460000Y005668000D01*
D11*
X043460000Y005668000D02*
X043460000Y005668000D01*
D62*
X041275000Y-07659000D03*
D62*
X042794000Y-15985000D03*
D62*
X022505000Y-08805000D03*
D62*
X023744000Y-15985000D03*
D62*
X003305000Y-08805000D03*
D62*
X003187000Y-13944000D03*
D62*
X020056000Y007543000D03*
D62*
X024803000Y007229000D03*
D62*
X000819000Y007027000D03*
D62*
X007200000Y008000000D03*
D62*
X037220000Y006672000D03*
D62*
X043460000Y005668000D03*
M02*