%TF.GenerationSoftware,tscircuit,circuit-json-to-gerber,0.0.93*%
%TF.CreationDate,2026-08-16T00:00:55.430Z*%
%TF.SameCoordinates,Original*%
%TF.FileFunction,Other,Fab,Top*%
%TF.FilePolarity,Positive*%
%FSLAX46Y46*%
%MOMM*%
G04 Gerber Fmt 4.6, Leading zero omitted, Abs format (unit mm)*
G04 Created by tscircuit (builder) date 2026-08-16T00:00:55.430Z*
G01*
%LPD*%
G75*
G04 APERTURE MACROS START*
%AMHORZPILL*
0 Horizontal pill (stadium) shape macro*
0 Parameters:*
0 $1 = Total width*
0 $2 = Total height*
0 $3 = Circle diameter (equal to height)*
0 $4 = Circle center offset
0 21 = Center Line(Exposure, Width, Height, Center X, Center Y, Rotation)*
0 1 = Circle(Exposure, Diameter, Center X, Center Y, Rotation)*
21,1,$1-$3,$2,0.0,0.0,0.0*
1,1,$3,0.0-$4,0.0*
1,1,$3,$4,0.0*%
%AMVERTPILL*
0 Vertical pill (stadium) shape macro*
0 Parameters:*
0 $1 = Total width*
0 $2 = Total height*
0 $3 = Circle diameter (equal to width)*
0 $4 = Circle center offset
0 21 = Center Line(Exposure, Width, Height, Center X, Center Y, Rotation)*
21,1,$1,$2-$3,0.0,0.0,0.0*
1,1,$3,0.0,0.0-$4*
1,1,$3,0.0,$4*%
%AMROUNDRECT*
0 Rectangle with rounded corners*
0 $1 Corner radius*
0 $2 $3 $4 $5 $6 $7 $8 $9 X,Y Position of each corner*
0 Polygon box body*
4,1,4,$2,$3,$4,$5,$6,$7,$8,$9,$2,$3,0*
0 Circles for rounded corners*
1,1,$1+$1,$2,$3*
1,1,$1+$1,$4,$5*
1,1,$1+$1,$6,$7*
1,1,$1+$1,$8,$9*
0 Rectangles between the rounded corners*
20,1,$1+$1,$2,$3,$4,$5,0*
20,1,$1+$1,$4,$5,$6,$7,0*
20,1,$1+$1,$6,$7,$8,$9,0*
20,1,$1+$1,$8,$9,$2,$3,0*%
G04 APERTURE MACROS END*
G04 aperture START LIST*
%ADD10C,0.100000*%
%ADD11C,0.150000*%
%ADD12C,0.033250*%
%ADD13C,0.021375*%
%ADD14C,0.042000*%
%ADD15C,0.027000*%
%TD*%
G04 aperture END LIST*
D12*
X-51000000Y020667500D02*
X-51000000Y020787200D01*
D12*
X-51266000Y020787200D02*
X-51000000Y021212800D01*
X-50734000Y020787200D01*
X-51266000Y020787200D01*
D12*
X-51266000Y021212800D02*
X-50734000Y021212800D01*
D12*
X-51000000Y021212800D02*
X-51000000Y021332500D01*
D13*
X-50971995Y019199962D02*
X-50971995Y019285766D01*
X-51011933Y019242864D02*
X-50932060Y019242864D01*
D13*
X-50969072Y022671718D02*
X-50969072Y022714011D01*
D14*
X-08155000Y025550000D02*
X-08306200Y025550000D01*
D14*
X-08306200Y025886000D02*
X-08843800Y025550000D01*
X-08306200Y025214000D01*
X-08306200Y025886000D01*
D14*
X-08843800Y025886000D02*
X-08843800Y025214000D01*
D14*
X-08843800Y025550000D02*
X-08995000Y025550000D01*
D15*
X-06905216Y025585375D02*
X-07013600Y025585375D01*
X-06959407Y025534927D02*
X-06959407Y025635819D01*
D15*
X-10082696Y025589067D02*
X-10136119Y025589067D01*
D14*
X010895000Y025550000D02*
X010743800Y025550000D01*
D14*
X010743800Y025886000D02*
X010206200Y025550000D01*
X010743800Y025214000D01*
X010743800Y025886000D01*
D14*
X010206200Y025886000D02*
X010206200Y025214000D01*
D14*
X010206200Y025550000D02*
X010055000Y025550000D01*
D15*
X012144784Y025585375D02*
X012036400Y025585375D01*
X012090593Y025534927D02*
X012090593Y025635819D01*
D15*
X008967304Y025589067D02*
X008913881Y025589067D01*
D14*
X029945000Y025550000D02*
X029793800Y025550000D01*
D14*
X029793800Y025886000D02*
X029256200Y025550000D01*
X029793800Y025214000D01*
X029793800Y025886000D01*
D14*
X029256200Y025886000D02*
X029256200Y025214000D01*
D14*
X029256200Y025550000D02*
X029105000Y025550000D01*
D15*
X031194784Y025585374D02*
X031086400Y025585374D01*
X031140593Y025534927D02*
X031140593Y025635819D01*
D15*
X028017304Y025589067D02*
X027963881Y025589067D01*
D14*
X048995000Y025550000D02*
X048843800Y025550000D01*
D14*
X048843800Y025886000D02*
X048306200Y025550000D01*
X048843800Y025214000D01*
X048843800Y025886000D01*
D14*
X048306200Y025886000D02*
X048306200Y025214000D01*
D14*
X048306200Y025550000D02*
X048155000Y025550000D01*
D15*
X050244784Y025585375D02*
X050136400Y025585375D01*
X050190593Y025534927D02*
X050190593Y025635819D01*
D15*
X047067304Y025589067D02*
X047013881Y025589067D01*
D14*
X-08155000Y006500000D02*
X-08306200Y006500000D01*
D14*
X-08306200Y006836000D02*
X-08843800Y006500000D01*
X-08306200Y006164000D01*
X-08306200Y006836000D01*
D14*
X-08843800Y006836000D02*
X-08843800Y006164000D01*
D14*
X-08843800Y006500000D02*
X-08995000Y006500000D01*
D15*
X-06905216Y006535375D02*
X-07013600Y006535375D01*
X-06959407Y006484927D02*
X-06959407Y006585819D01*
D15*
X-10082696Y006539067D02*
X-10136119Y006539067D01*
D14*
X010895000Y006500000D02*
X010743800Y006500000D01*
D14*
X010743800Y006836000D02*
X010206200Y006500000D01*
X010743800Y006164000D01*
X010743800Y006836000D01*
D14*
X010206200Y006836000D02*
X010206200Y006164000D01*
D14*
X010206200Y006500000D02*
X010055000Y006500000D01*
D15*
X012144784Y006535375D02*
X012036400Y006535375D01*
X012090593Y006484927D02*
X012090593Y006585819D01*
D15*
X008967304Y006539067D02*
X008913881Y006539067D01*
D14*
X029945000Y006500000D02*
X029793800Y006500000D01*
D14*
X029793800Y006836000D02*
X029256200Y006500000D01*
X029793800Y006164000D01*
X029793800Y006836000D01*
D14*
X029256200Y006836000D02*
X029256200Y006164000D01*
D14*
X029256200Y006500000D02*
X029105000Y006500000D01*
D15*
X031194784Y006535375D02*
X031086400Y006535375D01*
X031140593Y006484927D02*
X031140593Y006585819D01*
D15*
X028017304Y006539067D02*
X027963881Y006539067D01*
D14*
X048995000Y006500000D02*
X048843800Y006500000D01*
D14*
X048843800Y006836000D02*
X048306200Y006500000D01*
X048843800Y006164000D01*
X048843800Y006836000D01*
D14*
X048306200Y006836000D02*
X048306200Y006164000D01*
D14*
X048306200Y006500000D02*
X048155000Y006500000D01*
D15*
X050244784Y006535375D02*
X050136400Y006535375D01*
X050190593Y006484927D02*
X050190593Y006585819D01*
D15*
X047067304Y006539067D02*
X047013881Y006539067D01*
D14*
X-08155000Y-12550000D02*
X-08306200Y-12550000D01*
D14*
X-08306200Y-12214000D02*
X-08843800Y-12550000D01*
X-08306200Y-12886000D01*
X-08306200Y-12214000D01*
D14*
X-08843800Y-12214000D02*
X-08843800Y-12886000D01*
D14*
X-08843800Y-12550000D02*
X-08995000Y-12550000D01*
D15*
X-06905216Y-12514626D02*
X-07013600Y-12514626D01*
X-06959407Y-12565073D02*
X-06959407Y-12464181D01*
D15*
X-10082696Y-12510933D02*
X-10136119Y-12510933D01*
D14*
X010895000Y-12550000D02*
X010743800Y-12550000D01*
D14*
X010743800Y-12214000D02*
X010206200Y-12550000D01*
X010743800Y-12886000D01*
X010743800Y-12214000D01*
D14*
X010206200Y-12214000D02*
X010206200Y-12886000D01*
D14*
X010206200Y-12550000D02*
X010055000Y-12550000D01*
D15*
X012144784Y-12514626D02*
X012036400Y-12514626D01*
X012090593Y-12565073D02*
X012090593Y-12464181D01*
D15*
X008967304Y-12510933D02*
X008913881Y-12510933D01*
D14*
X029945000Y-12550000D02*
X029793800Y-12550000D01*
D14*
X029793800Y-12214000D02*
X029256200Y-12550000D01*
X029793800Y-12886000D01*
X029793800Y-12214000D01*
D14*
X029256200Y-12214000D02*
X029256200Y-12886000D01*
D14*
X029256200Y-12550000D02*
X029105000Y-12550000D01*
D15*
X031194784Y-12514626D02*
X031086400Y-12514626D01*
X031140593Y-12565073D02*
X031140593Y-12464181D01*
D15*
X028017304Y-12510933D02*
X027963881Y-12510933D01*
D14*
X048995000Y-12550000D02*
X048843800Y-12550000D01*
D14*
X048843800Y-12214000D02*
X048306200Y-12550000D01*
X048843800Y-12886000D01*
X048843800Y-12214000D01*
D14*
X048306200Y-12214000D02*
X048306200Y-12886000D01*
D14*
X048306200Y-12550000D02*
X048155000Y-12550000D01*
D15*
X050244784Y-12514626D02*
X050136400Y-12514626D01*
X050190593Y-12565073D02*
X050190593Y-12464181D01*
D15*
X047067304Y-12510933D02*
X047013881Y-12510933D01*
M02*