%TF.GenerationSoftware,tscircuit,circuit-json-to-gerber,0.0.93*%
%TF.CreationDate,2026-08-16T00:00:55.429Z*%
%TF.SameCoordinates,Original*%
%TF.FileFunction,Paste,Top*%
%TF.FilePolarity,Positive*%
%FSLAX46Y46*%
%MOMM*%
G04 Gerber Fmt 4.6, Leading zero omitted, Abs format (unit mm)*
G04 Created by tscircuit (builder) date 2026-08-16T00:00:55.430Z*
G01*
%LPD*%
G75*
G04 APERTURE MACROS START*
%AMHORZPILL*
0 Horizontal pill (stadium) shape macro*
0 Parameters:*
0 $1 = Total width*
0 $2 = Total height*
0 $3 = Circle diameter (equal to height)*
0 $4 = Circle center offset
0 21 = Center Line(Exposure, Width, Height, Center X, Center Y, Rotation)*
0 1 = Circle(Exposure, Diameter, Center X, Center Y, Rotation)*
21,1,$1-$3,$2,0.0,0.0,0.0*
1,1,$3,0.0-$4,0.0*
1,1,$3,$4,0.0*%
%AMVERTPILL*
0 Vertical pill (stadium) shape macro*
0 Parameters:*
0 $1 = Total width*
0 $2 = Total height*
0 $3 = Circle diameter (equal to width)*
0 $4 = Circle center offset
0 21 = Center Line(Exposure, Width, Height, Center X, Center Y, Rotation)*
21,1,$1,$2-$3,0.0,0.0,0.0*
1,1,$3,0.0,0.0-$4*
1,1,$3,0.0,$4*%
%AMROUNDRECT*
0 Rectangle with rounded corners*
0 $1 Corner radius*
0 $2 $3 $4 $5 $6 $7 $8 $9 X,Y Position of each corner*
0 Polygon box body*
4,1,4,$2,$3,$4,$5,$6,$7,$8,$9,$2,$3,0*
0 Circles for rounded corners*
1,1,$1+$1,$2,$3*
1,1,$1+$1,$4,$5*
1,1,$1+$1,$6,$7*
1,1,$1+$1,$8,$9*
0 Rectangles between the rounded corners*
20,1,$1+$1,$2,$3,$4,$5,0*
20,1,$1+$1,$4,$5,$6,$7,0*
20,1,$1+$1,$6,$7,$8,$9,0*
20,1,$1+$1,$8,$9,$2,$3,0*%
G04 APERTURE MACROS END*
G04 aperture START LIST*
%ADD10C,0.100000*%
%ADD11C,0.150000*%
%ADD12R,0.950000X1.200000*%
%ADD13R,0.665000X0.840000*%
%ADD14C,0.100000*%
%ADD15C,0.045000*%
%ADD16R,0.640000X0.540000*%
%ADD17R,0.448000X0.378000*%
%ADD18C,0.120000*%
%ADD19C,0.036000*%
%ADD20R,0.540000X0.640000*%
%ADD21R,0.378000X0.448000*%
%ADD22VERTPILL,1.100000X2.000000X1.100000X0.450000*%
%ADD23HORZPILL,2.000000X1.100000X1.100000X0.450000*%
%ADD24VERTPILL,1.200000X1.800000X1.200000X0.300000*%
%ADD25HORZPILL,1.800000X1.200000X1.200000X0.300000*%
%ADD26R,0.550000X1.100000*%
%ADD27R,0.385000X0.770000*%
%ADD28R,0.300000X1.100000*%
%ADD29R,0.210000X0.770000*%
%ADD30C,0.063000*%
%ADD31R,0.850000X0.200000*%
%ADD32R,0.595000X0.140000*%
%ADD33R,0.200000X0.850000*%
%ADD34R,0.140000X0.595000*%
%ADD35R,3.100000X3.100000*%
%ADD36R,2.170000X2.170000*%
%ADD37C,0.000000*%
%ADD38R,0.600000X0.280000*%
%ADD39R,0.420000X0.196000*%
%ADD40R,0.300000X1.700000*%
%ADD41R,0.210000X1.190000*%
%ADD42ROUNDRECT,0.075000X-0.425000X0.225000X0.425000X0.225000X0.425000X-0.225000X-0.425000X-0.225000*%
%ADD43R,0.700000X0.420000*%
%ADD44C,0.040313*%
%ADD45R,1.400000X1.200000*%
%ADD46R,0.980000X0.840000*%
%ADD47R,1.050000X0.700000*%
%ADD48R,0.735000X0.490000*%
%ADD49R,0.700000X1.050000*%
%ADD50R,0.490000X0.735000*%
%ADD51R,0.800000X0.800000*%
%ADD52R,0.560000X0.560000*%
%ADD53R,0.950000X0.800000*%
%ADD54R,0.665000X0.560000*%
%ADD55R,0.800000X0.950000*%
%ADD56R,0.560000X0.665000*%
%ADD57C,1.100000*%
%ADD58C,0.770000*%
%ADD59C,0.072000*%
%ADD60C,0.081000*%
%ADD61C,0.090000*%
%ADD62C,0.300000*%
%TD*%
G04 aperture END LIST*
D13*
X-51000000Y019300000D03*
D13*
X-51000000Y022700000D03*
D17*
X-53700000Y016790000D03*
D17*
X-53700000Y017810000D03*
D21*
X-53510000Y-05000000D03*
D21*
X-52490000Y-05000000D03*
D21*
X-52510000Y006000000D03*
D21*
X-51490000Y006000000D03*
D17*
X-57000000Y-00490000D03*
D17*
X-57000000Y-01510000D03*
D21*
X-53510000Y-06000000D03*
D21*
X-52490000Y-06000000D03*
D17*
X-55000000Y-09490000D03*
D17*
X-55000000Y-10510000D03*
D21*
X-57510000Y001600000D03*
D21*
X-56490000Y001600000D03*
D21*
X-39110000Y-05500000D03*
D21*
X-38090000Y-05500000D03*
D21*
X-53990000Y010800000D03*
D21*
X-55010000Y010800000D03*
D21*
X-42310000Y014500000D03*
D21*
X-41290000Y014500000D03*
D21*
X-41510000Y-04400000D03*
D21*
X-40490000Y-04400000D03*
D22*
%LR180*%
X-44675000Y029425000D03*
%LR0*%
D22*
%LR180*%
X-53325000Y029425000D03*
%LR0*%
D24*
%LR180*%
X-44675000Y033625000D03*
%LR0*%
D24*
%LR180*%
X-53325000Y033625000D03*
%LR0*%
D27*
X-45800000Y028875000D03*
D27*
X-46600000Y028875000D03*
D29*
X-47250000Y028875000D03*
D29*
X-47750000Y028875000D03*
D29*
X-48250000Y028875000D03*
D29*
X-48750000Y028875000D03*
D29*
X-49250000Y028875000D03*
D29*
X-49750000Y028875000D03*
D29*
X-50250000Y028875000D03*
D29*
X-50750000Y028875000D03*
D27*
X-51400000Y028875000D03*
D27*
X-52200000Y028875000D03*
D32*
X-52424950Y003100650D03*
D32*
X-52424950Y002700550D03*
D32*
X-52424950Y002300450D03*
D32*
X-52424950Y001900350D03*
D32*
X-52424950Y001500250D03*
D32*
X-52424950Y001100150D03*
D32*
X-52424950Y000700050D03*
D32*
X-52424950Y000299950D03*
D32*
X-52424950Y-00100150D03*
D32*
X-52424950Y-00500250D03*
D32*
X-52424950Y-00900350D03*
D32*
X-52424950Y-01300450D03*
D32*
X-52424950Y-01700550D03*
D32*
X-52424950Y-02100650D03*
D34*
X-51600650Y-02925050D03*
D34*
X-51200550Y-02925050D03*
D34*
X-50800450Y-02925050D03*
D34*
X-50400350Y-02925050D03*
D34*
X-50000250Y-02925050D03*
D34*
X-49600150Y-02925050D03*
D34*
X-49200050Y-02925050D03*
D34*
X-48799950Y-02925050D03*
D34*
X-48399850Y-02925050D03*
D34*
X-47999750Y-02925050D03*
D34*
X-47599650Y-02925050D03*
D34*
X-47199550Y-02925050D03*
D34*
X-46799450Y-02925050D03*
D34*
X-46399350Y-02925050D03*
D32*
X-45575050Y-02100650D03*
D32*
X-45575050Y-01700550D03*
D32*
X-45575050Y-01300450D03*
D32*
X-45575050Y-00900350D03*
D32*
X-45575050Y-00500250D03*
D32*
X-45575050Y-00100150D03*
D32*
X-45575050Y000299950D03*
D32*
X-45575050Y000700050D03*
D32*
X-45575050Y001100150D03*
D32*
X-45575050Y001500250D03*
D32*
X-45575050Y001900350D03*
D32*
X-45575050Y002300450D03*
D32*
X-45575050Y002700550D03*
D32*
X-45575050Y003100650D03*
D34*
X-46399350Y003925050D03*
D34*
X-46799450Y003925050D03*
D34*
X-47199550Y003925050D03*
D34*
X-47599650Y003925050D03*
D34*
X-47999750Y003925050D03*
D34*
X-48399850Y003925050D03*
D34*
X-48799950Y003925050D03*
D34*
X-49200050Y003925050D03*
D34*
X-49600150Y003925050D03*
D34*
X-50000250Y003925050D03*
D34*
X-50400350Y003925050D03*
D34*
X-50800450Y003925050D03*
D34*
X-51200550Y003925050D03*
D34*
X-51600650Y003925050D03*
D36*
X-49000000Y000500000D03*
D39*
X-44092500Y008750000D03*
D39*
X-47107500Y008750000D03*
D39*
X-44092500Y009250000D03*
D39*
X-47107500Y009250000D03*
D39*
X-44092500Y009750000D03*
D39*
X-47107500Y009750000D03*
D39*
X-44092500Y010250000D03*
D39*
X-47107500Y010250000D03*
D41*
X-45600000Y009500000D03*
D43*
X-57300050Y021150000D03*
D43*
X-57300050Y020200000D03*
D43*
X-57300050Y019250000D03*
D43*
X-55099950Y019250000D03*
D43*
X-55099950Y021150000D03*
D46*
X-50600000Y-06850000D03*
D46*
X-48400000Y-06850000D03*
D46*
X-48400000Y-05150000D03*
D46*
X-50600000Y-05150000D03*
D48*
X-42500000Y022875000D03*
D48*
X-38300000Y022875000D03*
D48*
X-42500000Y020725000D03*
D48*
X-38300000Y020725000D03*
D50*
X-44575000Y-14600000D03*
D50*
X-44575000Y-10400000D03*
D50*
X-42425000Y-14600000D03*
D50*
X-42425000Y-10400000D03*
D52*
X-39000000Y003451000D03*
D52*
X-39000000Y004949000D03*
D52*
X-58800000Y024051000D03*
D52*
X-58800000Y025549000D03*
D17*
X-37000000Y017290000D03*
D17*
X-37000000Y018310000D03*
D17*
X-41800000Y000690000D03*
D17*
X-41800000Y001710000D03*
D17*
X-55200000Y024290000D03*
D17*
X-55200000Y025310000D03*
D21*
X-49710000Y025600000D03*
D21*
X-48690000Y025600000D03*
D21*
X-45910000Y026500000D03*
D21*
X-44890000Y026500000D03*
D17*
X-45600000Y021990000D03*
D17*
X-45600000Y023010000D03*
D17*
X-46600000Y017010000D03*
D17*
X-46600000Y015990000D03*
D54*
X-51800000Y025475000D03*
D54*
X-51800000Y027125000D03*
D56*
X-58325000Y004200000D03*
D56*
X-56675000Y004200000D03*
D21*
X-45710000Y-05500000D03*
D21*
X-44690000Y-05500000D03*
D21*
X-39710000Y018400000D03*
D21*
X-38690000Y018400000D03*
D21*
X-57910000Y-11800000D03*
D21*
X-56890000Y-11800000D03*
D21*
X-46710000Y-09000000D03*
D21*
X-45690000Y-09000000D03*
D54*
X-40500000Y-02625000D03*
D54*
X-40500000Y-00975000D03*
D58*
X-55000000Y-31000000D03*
D58*
X-51000000Y-31000000D03*
D58*
X-47000000Y-31000000D03*
D58*
X-43000000Y-31000000D03*
M02*