%TF.GenerationSoftware,tscircuit,circuit-json-to-gerber,0.0.93*%
%TF.CreationDate,2026-08-16T00:00:55.429Z*%
%TF.SameCoordinates,Original*%
%TF.FileFunction,Legend,Top*%
%TF.FilePolarity,Positive*%
%FSLAX46Y46*%
%MOMM*%
G04 Gerber Fmt 4.6, Leading zero omitted, Abs format (unit mm)*
G04 Created by tscircuit (builder) date 2026-08-16T00:00:55.429Z*
G01*
%LPD*%
G75*
G04 APERTURE MACROS START*
%AMHORZPILL*
0 Horizontal pill (stadium) shape macro*
0 Parameters:*
0 $1 = Total width*
0 $2 = Total height*
0 $3 = Circle diameter (equal to height)*
0 $4 = Circle center offset
0 21 = Center Line(Exposure, Width, Height, Center X, Center Y, Rotation)*
0 1 = Circle(Exposure, Diameter, Center X, Center Y, Rotation)*
21,1,$1-$3,$2,0.0,0.0,0.0*
1,1,$3,0.0-$4,0.0*
1,1,$3,$4,0.0*%
%AMVERTPILL*
0 Vertical pill (stadium) shape macro*
0 Parameters:*
0 $1 = Total width*
0 $2 = Total height*
0 $3 = Circle diameter (equal to width)*
0 $4 = Circle center offset
0 21 = Center Line(Exposure, Width, Height, Center X, Center Y, Rotation)*
21,1,$1,$2-$3,0.0,0.0,0.0*
1,1,$3,0.0,0.0-$4*
1,1,$3,0.0,$4*%
%AMROUNDRECT*
0 Rectangle with rounded corners*
0 $1 Corner radius*
0 $2 $3 $4 $5 $6 $7 $8 $9 X,Y Position of each corner*
0 Polygon box body*
4,1,4,$2,$3,$4,$5,$6,$7,$8,$9,$2,$3,0*
0 Circles for rounded corners*
1,1,$1+$1,$2,$3*
1,1,$1+$1,$4,$5*
1,1,$1+$1,$6,$7*
1,1,$1+$1,$8,$9*
0 Rectangles between the rounded corners*
20,1,$1+$1,$2,$3,$4,$5,0*
20,1,$1+$1,$4,$5,$6,$7,0*
20,1,$1+$1,$6,$7,$8,$9,0*
20,1,$1+$1,$8,$9,$2,$3,0*%
G04 APERTURE MACROS END*
G04 aperture START LIST*
%ADD10C,0.100000*%
%ADD11C,0.150000*%
%ADD12R,0.950000X1.200000*%
%ADD13R,0.665000X0.840000*%
%ADD14C,0.100000*%
%ADD15C,0.045000*%
%ADD16R,0.640000X0.540000*%
%ADD17R,0.448000X0.378000*%
%ADD18C,0.120000*%
%ADD19C,0.036000*%
%ADD20R,0.540000X0.640000*%
%ADD21R,0.378000X0.448000*%
%ADD22VERTPILL,1.100000X2.000000X1.100000X0.450000*%
%ADD23HORZPILL,2.000000X1.100000X1.100000X0.450000*%
%ADD24VERTPILL,1.200000X1.800000X1.200000X0.300000*%
%ADD25HORZPILL,1.800000X1.200000X1.200000X0.300000*%
%ADD26R,0.550000X1.100000*%
%ADD27R,0.385000X0.770000*%
%ADD28R,0.300000X1.100000*%
%ADD29R,0.210000X0.770000*%
%ADD30C,0.063000*%
%ADD31R,0.850000X0.200000*%
%ADD32R,0.595000X0.140000*%
%ADD33R,0.200000X0.850000*%
%ADD34R,0.140000X0.595000*%
%ADD35R,3.100000X3.100000*%
%ADD36R,2.170000X2.170000*%
%ADD37C,0.000000*%
%ADD38R,0.600000X0.280000*%
%ADD39R,0.420000X0.196000*%
%ADD40R,0.300000X1.700000*%
%ADD41R,0.210000X1.190000*%
%ADD42ROUNDRECT,0.075000X-0.425000X0.225000X0.425000X0.225000X0.425000X-0.225000X-0.425000X-0.225000*%
%ADD43R,0.700000X0.420000*%
%ADD44C,0.040313*%
%ADD45R,1.400000X1.200000*%
%ADD46R,0.980000X0.840000*%
%ADD47R,1.050000X0.700000*%
%ADD48R,0.735000X0.490000*%
%ADD49R,0.700000X1.050000*%
%ADD50R,0.490000X0.735000*%
%ADD51R,0.800000X0.800000*%
%ADD52R,0.560000X0.560000*%
%ADD53R,0.950000X0.800000*%
%ADD54R,0.665000X0.560000*%
%ADD55R,0.800000X0.950000*%
%ADD56R,0.560000X0.665000*%
%ADD57C,1.100000*%
%ADD58C,0.770000*%
%ADD59C,0.072000*%
%ADD60C,0.081000*%
%ADD61C,0.090000*%
%ADD62C,0.300000*%
%TD*%
G04 aperture END LIST*
D10*
X-51850000Y022700000D02*
X-51850000Y018600000D01*
X-50150000Y018600000D01*
X-50150000Y022700000D01*
D15*
X-52042861Y019984481D02*
X-52275223Y019987065D01*
X-52275223Y019987065D02*
X-52280151Y020021848D01*
X-52280151Y020021848D02*
X-52279578Y020048494D01*
X-52279578Y020048494D02*
X-52267873Y020091776D01*
X-52267873Y020091776D02*
X-52242594Y020123783D01*
X-52242594Y020123783D02*
X-52208556Y020142084D01*
X-52208556Y020142084D02*
X-52173263Y020149379D01*
X-52173263Y020149379D02*
X-52146690Y020150082D01*
X-52146690Y020150082D02*
X-52123917Y020146745D01*
X-52123917Y020146745D02*
X-52104653Y020139919D01*
X-52104653Y020139919D02*
X-52075507Y020118004D01*
X-52075507Y020118004D02*
X-52056952Y020088747D01*
X-52056952Y020088747D02*
X-52043948Y020040743D01*
X-52043948Y020040743D02*
X-52042861Y019984481D01*
X-51968790Y020307948D02*
X-51968790Y020518666D01*
X-52280151Y020663715D02*
X-52042861Y020766003D01*
X-52042861Y020766003D02*
X-52280151Y020854951D01*
X-52042861Y021022388D02*
X-52277366Y021022388D01*
X-52277366Y021022388D02*
X-52280151Y021073275D01*
X-52280151Y021073275D02*
X-52271962Y021119870D01*
X-52271962Y021119870D02*
X-52244478Y021151263D01*
X-52244478Y021151263D02*
X-52204295Y021146378D01*
X-52204295Y021146378D02*
X-52182792Y021109440D01*
X-52182792Y021109440D02*
X-52173564Y021029655D01*
X-52173564Y021029655D02*
X-52168698Y021107232D01*
X-52168698Y021107232D02*
X-52148390Y021164107D01*
X-52148390Y021164107D02*
X-52117170Y021188330D01*
X-52117170Y021188330D02*
X-52076793Y021186340D01*
X-52076793Y021186340D02*
X-52058956Y021175436D01*
X-52058956Y021175436D02*
X-52044461Y021148243D01*
X-52044461Y021148243D02*
X-52042861Y021022388D01*
X-52280151Y021371234D02*
X-52147894Y021371604D01*
X-52147894Y021371604D02*
X-52111916Y021374156D01*
X-52111916Y021374156D02*
X-52085265Y021380684D01*
X-52085265Y021380684D02*
X-52064995Y021393201D01*
X-52064995Y021393201D02*
X-52051592Y021409576D01*
X-52051592Y021409576D02*
X-52041912Y021434038D01*
X-52041912Y021434038D02*
X-52038251Y021464905D01*
X-52038251Y021464905D02*
X-52041916Y021486570D01*
X-52041916Y021486570D02*
X-52051570Y021504338D01*
X-52051570Y021504338D02*
X-52062880Y021514971D01*
X-52062880Y021514971D02*
X-52070315Y021519537D01*
X-52070315Y021519537D02*
X-52089271Y021526521D01*
X-52089271Y021526521D02*
X-52114381Y021529781D01*
X-52114381Y021529781D02*
X-52279794Y021531537D01*
X-52247483Y021861115D02*
X-52281383Y021834717D01*
X-52281383Y021834717D02*
X-52284765Y021772143D01*
X-52284765Y021772143D02*
X-52260352Y021737070D01*
X-52260352Y021737070D02*
X-52215561Y021722751D01*
X-52215561Y021722751D02*
X-52193446Y021728682D01*
X-52193446Y021728682D02*
X-52174343Y021750871D01*
X-52174343Y021750871D02*
X-52158939Y021838800D01*
X-52158939Y021838800D02*
X-52140730Y021868381D01*
X-52140730Y021868381D02*
X-52109237Y021879357D01*
X-52109237Y021879357D02*
X-52059981Y021864898D01*
X-52059981Y021864898D02*
X-52038575Y021820736D01*
X-52038575Y021820736D02*
X-52040169Y021763955D01*
X-52040169Y021763955D02*
X-52057537Y021732901D01*
X-52057537Y021732901D02*
X-52098383Y021715465D01*
D18*
X-54080000Y017146359D02*
X-54080000Y017453641D01*
D18*
X-53320000Y017146359D02*
X-53320000Y017453641D01*
D19*
X-54795649Y016202492D02*
X-54979204Y016202492D01*
X-54979204Y016202492D02*
X-54984121Y016256312D01*
X-54984121Y016256312D02*
X-54982477Y016294087D01*
X-54982477Y016294087D02*
X-54977426Y016316875D01*
X-54977426Y016316875D02*
X-54973308Y016326457D01*
X-54973308Y016326457D02*
X-54967948Y016334343D01*
X-54967948Y016334343D02*
X-54961211Y016340169D01*
X-54961211Y016340169D02*
X-54942943Y016345306D01*
X-54942943Y016345306D02*
X-54926742Y016344824D01*
X-54926742Y016344824D02*
X-54915011Y016339566D01*
X-54915011Y016339566D02*
X-54906975Y016330130D01*
X-54906975Y016330130D02*
X-54901856Y016317111D01*
X-54901856Y016317111D02*
X-54897953Y016292171D01*
X-54897953Y016292171D02*
X-54894904Y016206060D01*
X-54887154Y016277572D02*
X-54794288Y016351516D01*
X-54735032Y016469538D02*
X-54735032Y016638112D01*
X-54963380Y016769208D02*
X-54971623Y016779722D01*
X-54971623Y016779722D02*
X-54980455Y016796477D01*
X-54980455Y016796477D02*
X-54987812Y016817833D01*
X-54987812Y016817833D02*
X-54986343Y016844116D01*
X-54986343Y016844116D02*
X-54978983Y016867114D01*
X-54978983Y016867114D02*
X-54965735Y016883542D01*
X-54965735Y016883542D02*
X-54949543Y016893398D01*
X-54949543Y016893398D02*
X-54931878Y016890112D01*
X-54931878Y016890112D02*
X-54918630Y016876971D01*
X-54918630Y016876971D02*
X-54908326Y016853972D01*
X-54908326Y016853972D02*
X-54902438Y016827688D01*
X-54902438Y016827688D02*
X-54899494Y016804691D01*
X-54899494Y016804691D02*
X-54896550Y016827688D01*
X-54896550Y016827688D02*
X-54889190Y016853972D01*
X-54889190Y016853972D02*
X-54877414Y016876971D01*
X-54877414Y016876971D02*
X-54861222Y016891755D01*
X-54861222Y016891755D02*
X-54843558Y016895040D01*
X-54843558Y016895040D02*
X-54824422Y016888470D01*
X-54824422Y016888470D02*
X-54808230Y016873685D01*
X-54808230Y016873685D02*
X-54794982Y016850686D01*
X-54794982Y016850686D02*
X-54790860Y016833274D01*
X-54790860Y016833274D02*
X-54791449Y016805019D01*
X-54791449Y016805019D02*
X-54794982Y016782021D01*
X-54794982Y016782021D02*
X-54799692Y016766251D01*
X-54984121Y017030972D02*
X-54794288Y017112802D01*
X-54794288Y017112802D02*
X-54984121Y017183961D01*
X-54963380Y017322850D02*
X-54971623Y017333363D01*
X-54971623Y017333363D02*
X-54980455Y017350119D01*
X-54980455Y017350119D02*
X-54987812Y017371474D01*
X-54987812Y017371474D02*
X-54986343Y017397757D01*
X-54986343Y017397757D02*
X-54978983Y017420756D01*
X-54978983Y017420756D02*
X-54965735Y017437183D01*
X-54965735Y017437183D02*
X-54949543Y017447039D01*
X-54949543Y017447039D02*
X-54931878Y017443754D01*
X-54931878Y017443754D02*
X-54918630Y017430612D01*
X-54918630Y017430612D02*
X-54908326Y017407614D01*
X-54908326Y017407614D02*
X-54902438Y017381330D01*
X-54902438Y017381330D02*
X-54899494Y017358332D01*
X-54899494Y017358332D02*
X-54896550Y017381330D01*
X-54896550Y017381330D02*
X-54889190Y017407614D01*
X-54889190Y017407614D02*
X-54877414Y017430612D01*
X-54877414Y017430612D02*
X-54861222Y017445397D01*
X-54861222Y017445397D02*
X-54843558Y017448682D01*
X-54843558Y017448682D02*
X-54824422Y017442111D01*
X-54824422Y017442111D02*
X-54808230Y017427327D01*
X-54808230Y017427327D02*
X-54794982Y017404328D01*
X-54794982Y017404328D02*
X-54790860Y017386915D01*
X-54790860Y017386915D02*
X-54791449Y017358661D01*
X-54791449Y017358661D02*
X-54794982Y017335663D01*
X-54794982Y017335663D02*
X-54799692Y017319893D01*
X-54735032Y017576821D02*
X-54735032Y017745395D01*
X-54984121Y017876063D02*
X-54794288Y017876063D01*
X-54984121Y017876063D02*
X-54984121Y017999794D01*
X-54889205Y017876063D02*
X-54889205Y017962675D01*
X-54794288Y017876063D02*
X-54794288Y017999794D01*
X-54794288Y018149466D02*
X-54984121Y018149466D01*
X-54984121Y018149466D02*
X-54794288Y018280033D01*
X-54794288Y018280033D02*
X-54984121Y018277471D01*
D10*
X-52490000Y-04280000D02*
X-53980000Y-04280000D01*
X-53980000Y-05720000D01*
X-52490000Y-05720000D01*
D19*
X-53959148Y-03757557D02*
X-53967724Y-03736655D01*
X-53967724Y-03736655D02*
X-53983457Y-03721855D01*
X-53983457Y-03721855D02*
X-54013251Y-03712188D01*
X-54013251Y-03712188D02*
X-54035267Y-03715140D01*
X-54035267Y-03715140D02*
X-54054670Y-03725049D01*
X-54054670Y-03725049D02*
X-54073615Y-03747921D01*
X-54073615Y-03747921D02*
X-54086844Y-03807956D01*
X-54086844Y-03807956D02*
X-54076463Y-03868308D01*
X-54076463Y-03868308D02*
X-54060977Y-03892611D01*
X-54060977Y-03892611D02*
X-54044876Y-03903984D01*
X-54044876Y-03903984D02*
X-54013510Y-03909140D01*
X-54013510Y-03909140D02*
X-53986175Y-03902550D01*
X-53986175Y-03902550D02*
X-53965935Y-03883320D01*
X-53965935Y-03883320D02*
X-53959148Y-03856178D01*
X-53830462Y-03964968D02*
X-53661888Y-03964968D01*
X-53469354Y-03715879D02*
X-53469354Y-03905712D01*
X-53196379Y-03909140D02*
X-53221260Y-03901399D01*
X-53221260Y-03901399D02*
X-53244005Y-03877846D01*
X-53244005Y-03877846D02*
X-53260825Y-03797905D01*
X-53260825Y-03797905D02*
X-53244803Y-03738071D01*
X-53244803Y-03738071D02*
X-53225147Y-03721030D01*
X-53225147Y-03721030D02*
X-53191113Y-03712188D01*
X-53191113Y-03712188D02*
X-53159070Y-03722802D01*
X-53159070Y-03722802D02*
X-53140309Y-03742201D01*
X-53140309Y-03742201D02*
X-53124242Y-03815082D01*
X-53124242Y-03815082D02*
X-53132238Y-03861095D01*
X-53132238Y-03861095D02*
X-53146488Y-03887687D01*
X-53146488Y-03887687D02*
X-53171797Y-03905800D01*
X-53171797Y-03905800D02*
X-53196379Y-03909140D01*
X-52992207Y-03715879D02*
X-52910377Y-03905712D01*
X-52910377Y-03905712D02*
X-52839218Y-03715879D01*
X-52705132Y-03905712D02*
X-52703065Y-03719822D01*
X-52703065Y-03719822D02*
X-52675238Y-03715879D01*
X-52675238Y-03715879D02*
X-52653922Y-03716337D01*
X-52653922Y-03716337D02*
X-52619296Y-03725702D01*
X-52619296Y-03725702D02*
X-52593690Y-03745925D01*
X-52593690Y-03745925D02*
X-52579050Y-03773155D01*
X-52579050Y-03773155D02*
X-52573214Y-03801390D01*
X-52573214Y-03801390D02*
X-52572651Y-03822648D01*
X-52572651Y-03822648D02*
X-52575321Y-03840867D01*
X-52575321Y-03840867D02*
X-52580782Y-03856277D01*
X-52580782Y-03856277D02*
X-52598314Y-03879595D01*
X-52598314Y-03879595D02*
X-52621720Y-03894439D01*
X-52621720Y-03894439D02*
X-52660122Y-03904841D01*
X-52660122Y-03904841D02*
X-52705132Y-03905712D01*
X-52428311Y-03905712D02*
X-52426244Y-03719822D01*
X-52426244Y-03719822D02*
X-52398418Y-03715879D01*
X-52398418Y-03715879D02*
X-52377101Y-03716337D01*
X-52377101Y-03716337D02*
X-52342476Y-03725702D01*
X-52342476Y-03725702D02*
X-52316869Y-03745925D01*
X-52316869Y-03745925D02*
X-52302229Y-03773155D01*
X-52302229Y-03773155D02*
X-52296393Y-03801390D01*
X-52296393Y-03801390D02*
X-52295831Y-03822648D01*
X-52295831Y-03822648D02*
X-52298500Y-03840867D01*
X-52298500Y-03840867D02*
X-52303961Y-03856277D01*
X-52303961Y-03856277D02*
X-52321493Y-03879595D01*
X-52321493Y-03879595D02*
X-52344899Y-03894439D01*
X-52344899Y-03894439D02*
X-52383302Y-03904841D01*
X-52383302Y-03904841D02*
X-52428311Y-03905712D01*
X-52107818Y-03754366D02*
X-52062682Y-03715879D01*
X-52062682Y-03715879D02*
X-52062682Y-03905710D01*
D10*
X-51490000Y006720000D02*
X-52980000Y006720000D01*
X-52980000Y005280000D01*
X-51490000Y005280000D01*
D19*
X-52959148Y007242443D02*
X-52967724Y007263345D01*
X-52967724Y007263345D02*
X-52983457Y007278145D01*
X-52983457Y007278145D02*
X-53013251Y007287812D01*
X-53013251Y007287812D02*
X-53035267Y007284860D01*
X-53035267Y007284860D02*
X-53054670Y007274951D01*
X-53054670Y007274951D02*
X-53073615Y007252079D01*
X-53073615Y007252079D02*
X-53086844Y007192044D01*
X-53086844Y007192044D02*
X-53076463Y007131692D01*
X-53076463Y007131692D02*
X-53060977Y007107389D01*
X-53060977Y007107389D02*
X-53044876Y007096016D01*
X-53044876Y007096016D02*
X-53013510Y007090860D01*
X-53013510Y007090860D02*
X-52986175Y007097450D01*
X-52986175Y007097450D02*
X-52965935Y007116680D01*
X-52965935Y007116680D02*
X-52959148Y007143822D01*
X-52830462Y007035032D02*
X-52661888Y007035032D01*
X-52469354Y007284121D02*
X-52469354Y007094288D01*
X-52196379Y007090860D02*
X-52221260Y007098601D01*
X-52221260Y007098601D02*
X-52244005Y007122154D01*
X-52244005Y007122154D02*
X-52260825Y007202095D01*
X-52260825Y007202095D02*
X-52244803Y007261929D01*
X-52244803Y007261929D02*
X-52225147Y007278970D01*
X-52225147Y007278970D02*
X-52191113Y007287812D01*
X-52191113Y007287812D02*
X-52159070Y007277198D01*
X-52159070Y007277198D02*
X-52140309Y007257799D01*
X-52140309Y007257799D02*
X-52124242Y007184918D01*
X-52124242Y007184918D02*
X-52132238Y007138905D01*
X-52132238Y007138905D02*
X-52146488Y007112313D01*
X-52146488Y007112313D02*
X-52171797Y007094200D01*
X-52171797Y007094200D02*
X-52196379Y007090860D01*
X-51992207Y007284121D02*
X-51910377Y007094288D01*
X-51910377Y007094288D02*
X-51839218Y007284121D01*
X-51705132Y007094288D02*
X-51703065Y007280178D01*
X-51703065Y007280178D02*
X-51675238Y007284121D01*
X-51675238Y007284121D02*
X-51653922Y007283663D01*
X-51653922Y007283663D02*
X-51619296Y007274298D01*
X-51619296Y007274298D02*
X-51593690Y007254075D01*
X-51593690Y007254075D02*
X-51579050Y007226845D01*
X-51579050Y007226845D02*
X-51573214Y007198610D01*
X-51573214Y007198610D02*
X-51572651Y007177352D01*
X-51572651Y007177352D02*
X-51575321Y007159133D01*
X-51575321Y007159133D02*
X-51580782Y007143723D01*
X-51580782Y007143723D02*
X-51598314Y007120405D01*
X-51598314Y007120405D02*
X-51621720Y007105561D01*
X-51621720Y007105561D02*
X-51660122Y007095159D01*
X-51660122Y007095159D02*
X-51705132Y007094288D01*
X-51428311Y007094288D02*
X-51426244Y007280178D01*
X-51426244Y007280178D02*
X-51398418Y007284121D01*
X-51398418Y007284121D02*
X-51377101Y007283663D01*
X-51377101Y007283663D02*
X-51342476Y007274298D01*
X-51342476Y007274298D02*
X-51316869Y007254075D01*
X-51316869Y007254075D02*
X-51302229Y007226845D01*
X-51302229Y007226845D02*
X-51296393Y007198610D01*
X-51296393Y007198610D02*
X-51295831Y007177352D01*
X-51295831Y007177352D02*
X-51298500Y007159133D01*
X-51298500Y007159133D02*
X-51303961Y007143723D01*
X-51303961Y007143723D02*
X-51321493Y007120405D01*
X-51321493Y007120405D02*
X-51344899Y007105561D01*
X-51344899Y007105561D02*
X-51383302Y007095159D01*
X-51383302Y007095159D02*
X-51428311Y007094288D01*
X-51138623Y007250206D02*
X-51134364Y007264158D01*
X-51134364Y007264158D02*
X-51121778Y007277170D01*
X-51121778Y007277170D02*
X-51101151Y007285993D01*
X-51101151Y007285993D02*
X-51087913Y007287812D01*
X-51087913Y007287812D02*
X-51065008Y007286136D01*
X-51065008Y007286136D02*
X-51047826Y007278603D01*
X-51047826Y007278603D02*
X-51038431Y007267050D01*
X-51038431Y007267050D02*
X-51035056Y007253624D01*
X-51035056Y007253624D02*
X-51035280Y007244694D01*
X-51035280Y007244694D02*
X-51039313Y007229746D01*
X-51039313Y007229746D02*
X-51056818Y007200683D01*
X-51056818Y007200683D02*
X-51100900Y007145397D01*
X-51100900Y007145397D02*
X-51147252Y007094547D01*
X-51147252Y007094547D02*
X-51023248Y007094547D01*
D10*
X-56280000Y-01510000D02*
X-56280000Y-00020000D01*
X-57720000Y-00020000D01*
X-57720000Y-01510000D01*
D19*
X-55757557Y-00040852D02*
X-55736655Y-00032276D01*
X-55736655Y-00032276D02*
X-55721855Y-00016543D01*
X-55721855Y-00016543D02*
X-55712188Y000013251D01*
X-55712188Y000013251D02*
X-55715140Y000035267D01*
X-55715140Y000035267D02*
X-55725049Y000054670D01*
X-55725049Y000054670D02*
X-55747921Y000073615D01*
X-55747921Y000073615D02*
X-55807956Y000086844D01*
X-55807956Y000086844D02*
X-55868308Y000076463D01*
X-55868308Y000076463D02*
X-55892611Y000060977D01*
X-55892611Y000060977D02*
X-55903984Y000044876D01*
X-55903984Y000044876D02*
X-55909140Y000013510D01*
X-55909140Y000013510D02*
X-55902550Y-00013825D01*
X-55902550Y-00013825D02*
X-55883320Y-00034065D01*
X-55883320Y-00034065D02*
X-55856178Y-00040852D01*
X-55964968Y-00169538D02*
X-55964968Y-00338112D01*
X-55715879Y-00530646D02*
X-55905712Y-00530646D01*
X-55909140Y-00803621D02*
X-55901399Y-00778740D01*
X-55901399Y-00778740D02*
X-55877846Y-00755995D01*
X-55877846Y-00755995D02*
X-55797905Y-00739175D01*
X-55797905Y-00739175D02*
X-55738071Y-00755197D01*
X-55738071Y-00755197D02*
X-55721030Y-00774853D01*
X-55721030Y-00774853D02*
X-55712188Y-00808887D01*
X-55712188Y-00808887D02*
X-55722802Y-00840930D01*
X-55722802Y-00840930D02*
X-55742201Y-00859691D01*
X-55742201Y-00859691D02*
X-55815082Y-00875758D01*
X-55815082Y-00875758D02*
X-55861095Y-00867762D01*
X-55861095Y-00867762D02*
X-55887687Y-00853512D01*
X-55887687Y-00853512D02*
X-55905800Y-00828203D01*
X-55905800Y-00828203D02*
X-55909140Y-00803621D01*
X-55715879Y-01007793D02*
X-55905712Y-01089623D01*
X-55905712Y-01089623D02*
X-55715879Y-01160782D01*
X-55905712Y-01294868D02*
X-55719822Y-01296935D01*
X-55719822Y-01296935D02*
X-55715879Y-01324762D01*
X-55715879Y-01324762D02*
X-55716337Y-01346078D01*
X-55716337Y-01346078D02*
X-55725702Y-01380704D01*
X-55725702Y-01380704D02*
X-55745925Y-01406310D01*
X-55745925Y-01406310D02*
X-55773155Y-01420950D01*
X-55773155Y-01420950D02*
X-55801390Y-01426786D01*
X-55801390Y-01426786D02*
X-55822648Y-01427349D01*
X-55822648Y-01427349D02*
X-55840867Y-01424679D01*
X-55840867Y-01424679D02*
X-55856277Y-01419218D01*
X-55856277Y-01419218D02*
X-55879595Y-01401686D01*
X-55879595Y-01401686D02*
X-55894439Y-01378280D01*
X-55894439Y-01378280D02*
X-55904841Y-01339878D01*
X-55904841Y-01339878D02*
X-55905712Y-01294868D01*
X-55905712Y-01571689D02*
X-55719822Y-01573756D01*
X-55719822Y-01573756D02*
X-55715879Y-01601582D01*
X-55715879Y-01601582D02*
X-55716337Y-01622899D01*
X-55716337Y-01622899D02*
X-55725702Y-01657524D01*
X-55725702Y-01657524D02*
X-55745925Y-01683131D01*
X-55745925Y-01683131D02*
X-55773155Y-01697771D01*
X-55773155Y-01697771D02*
X-55801390Y-01703607D01*
X-55801390Y-01703607D02*
X-55822648Y-01704169D01*
X-55822648Y-01704169D02*
X-55840867Y-01701500D01*
X-55840867Y-01701500D02*
X-55856277Y-01696039D01*
X-55856277Y-01696039D02*
X-55879595Y-01678507D01*
X-55879595Y-01678507D02*
X-55894439Y-01655101D01*
X-55894439Y-01655101D02*
X-55904841Y-01616698D01*
X-55904841Y-01616698D02*
X-55905712Y-01571689D01*
X-55736620Y-01853312D02*
X-55728377Y-01863826D01*
X-55728377Y-01863826D02*
X-55719545Y-01880581D01*
X-55719545Y-01880581D02*
X-55712188Y-01901937D01*
X-55712188Y-01901937D02*
X-55713657Y-01928220D01*
X-55713657Y-01928220D02*
X-55721017Y-01951218D01*
X-55721017Y-01951218D02*
X-55734265Y-01967646D01*
X-55734265Y-01967646D02*
X-55750457Y-01977502D01*
X-55750457Y-01977502D02*
X-55768122Y-01974216D01*
X-55768122Y-01974216D02*
X-55781370Y-01961075D01*
X-55781370Y-01961075D02*
X-55791674Y-01938076D01*
X-55791674Y-01938076D02*
X-55797562Y-01911792D01*
X-55797562Y-01911792D02*
X-55800506Y-01888795D01*
X-55800506Y-01888795D02*
X-55803450Y-01911792D01*
X-55803450Y-01911792D02*
X-55810810Y-01938076D01*
X-55810810Y-01938076D02*
X-55822586Y-01961075D01*
X-55822586Y-01961075D02*
X-55838778Y-01975859D01*
X-55838778Y-01975859D02*
X-55856442Y-01979144D01*
X-55856442Y-01979144D02*
X-55875578Y-01972574D01*
X-55875578Y-01972574D02*
X-55891770Y-01957789D01*
X-55891770Y-01957789D02*
X-55905018Y-01934790D01*
X-55905018Y-01934790D02*
X-55909140Y-01917378D01*
X-55909140Y-01917378D02*
X-55908551Y-01889123D01*
X-55908551Y-01889123D02*
X-55905018Y-01866125D01*
X-55905018Y-01866125D02*
X-55900308Y-01850355D01*
D10*
X-52490000Y-05280000D02*
X-53980000Y-05280000D01*
X-53980000Y-06720000D01*
X-52490000Y-06720000D01*
D19*
X-53959148Y-07197557D02*
X-53967724Y-07176655D01*
X-53967724Y-07176655D02*
X-53983457Y-07161855D01*
X-53983457Y-07161855D02*
X-54013251Y-07152188D01*
X-54013251Y-07152188D02*
X-54035267Y-07155140D01*
X-54035267Y-07155140D02*
X-54054670Y-07165049D01*
X-54054670Y-07165049D02*
X-54073615Y-07187921D01*
X-54073615Y-07187921D02*
X-54086844Y-07247956D01*
X-54086844Y-07247956D02*
X-54076463Y-07308308D01*
X-54076463Y-07308308D02*
X-54060977Y-07332611D01*
X-54060977Y-07332611D02*
X-54044876Y-07343984D01*
X-54044876Y-07343984D02*
X-54013510Y-07349140D01*
X-54013510Y-07349140D02*
X-53986175Y-07342550D01*
X-53986175Y-07342550D02*
X-53965935Y-07323320D01*
X-53965935Y-07323320D02*
X-53959148Y-07296178D01*
X-53830462Y-07404968D02*
X-53661888Y-07404968D01*
X-53469354Y-07155879D02*
X-53469354Y-07345712D01*
X-53196379Y-07349140D02*
X-53221260Y-07341399D01*
X-53221260Y-07341399D02*
X-53244005Y-07317846D01*
X-53244005Y-07317846D02*
X-53260825Y-07237905D01*
X-53260825Y-07237905D02*
X-53244803Y-07178071D01*
X-53244803Y-07178071D02*
X-53225147Y-07161030D01*
X-53225147Y-07161030D02*
X-53191113Y-07152188D01*
X-53191113Y-07152188D02*
X-53159070Y-07162802D01*
X-53159070Y-07162802D02*
X-53140309Y-07182201D01*
X-53140309Y-07182201D02*
X-53124242Y-07255082D01*
X-53124242Y-07255082D02*
X-53132238Y-07301095D01*
X-53132238Y-07301095D02*
X-53146488Y-07327687D01*
X-53146488Y-07327687D02*
X-53171797Y-07345800D01*
X-53171797Y-07345800D02*
X-53196379Y-07349140D01*
X-52992207Y-07155879D02*
X-52910377Y-07345712D01*
X-52910377Y-07345712D02*
X-52839218Y-07155879D01*
X-52705132Y-07345712D02*
X-52703065Y-07159822D01*
X-52703065Y-07159822D02*
X-52675238Y-07155879D01*
X-52675238Y-07155879D02*
X-52653922Y-07156337D01*
X-52653922Y-07156337D02*
X-52619296Y-07165702D01*
X-52619296Y-07165702D02*
X-52593690Y-07185925D01*
X-52593690Y-07185925D02*
X-52579050Y-07213155D01*
X-52579050Y-07213155D02*
X-52573214Y-07241390D01*
X-52573214Y-07241390D02*
X-52572651Y-07262648D01*
X-52572651Y-07262648D02*
X-52575321Y-07280867D01*
X-52575321Y-07280867D02*
X-52580782Y-07296277D01*
X-52580782Y-07296277D02*
X-52598314Y-07319595D01*
X-52598314Y-07319595D02*
X-52621720Y-07334439D01*
X-52621720Y-07334439D02*
X-52660122Y-07344841D01*
X-52660122Y-07344841D02*
X-52705132Y-07345712D01*
X-52428311Y-07345712D02*
X-52426244Y-07159822D01*
X-52426244Y-07159822D02*
X-52398418Y-07155879D01*
X-52398418Y-07155879D02*
X-52377101Y-07156337D01*
X-52377101Y-07156337D02*
X-52342476Y-07165702D01*
X-52342476Y-07165702D02*
X-52316869Y-07185925D01*
X-52316869Y-07185925D02*
X-52302229Y-07213155D01*
X-52302229Y-07213155D02*
X-52296393Y-07241390D01*
X-52296393Y-07241390D02*
X-52295831Y-07262648D01*
X-52295831Y-07262648D02*
X-52298500Y-07280867D01*
X-52298500Y-07280867D02*
X-52303961Y-07296277D01*
X-52303961Y-07296277D02*
X-52321493Y-07319595D01*
X-52321493Y-07319595D02*
X-52344899Y-07334439D01*
X-52344899Y-07334439D02*
X-52383302Y-07344841D01*
X-52383302Y-07344841D02*
X-52428311Y-07345712D01*
X-52052359Y-07155879D02*
X-52155866Y-07282776D01*
X-52155866Y-07282776D02*
X-52014635Y-07282776D01*
X-52053567Y-07241887D02*
X-52053567Y-07345712D01*
D10*
X-54280000Y-10510000D02*
X-54280000Y-09020000D01*
X-55720000Y-09020000D01*
X-55720000Y-10510000D01*
D19*
X-53757557Y-09040852D02*
X-53736655Y-09032276D01*
X-53736655Y-09032276D02*
X-53721855Y-09016543D01*
X-53721855Y-09016543D02*
X-53712188Y-08986749D01*
X-53712188Y-08986749D02*
X-53715140Y-08964733D01*
X-53715140Y-08964733D02*
X-53725049Y-08945330D01*
X-53725049Y-08945330D02*
X-53747921Y-08926385D01*
X-53747921Y-08926385D02*
X-53807956Y-08913156D01*
X-53807956Y-08913156D02*
X-53868308Y-08923537D01*
X-53868308Y-08923537D02*
X-53892611Y-08939023D01*
X-53892611Y-08939023D02*
X-53903984Y-08955124D01*
X-53903984Y-08955124D02*
X-53909140Y-08986490D01*
X-53909140Y-08986490D02*
X-53902550Y-09013825D01*
X-53902550Y-09013825D02*
X-53883320Y-09034065D01*
X-53883320Y-09034065D02*
X-53856178Y-09040852D01*
X-53964968Y-09169538D02*
X-53964968Y-09338112D01*
X-53715879Y-09530646D02*
X-53905712Y-09530646D01*
X-53909140Y-09803621D02*
X-53901399Y-09778740D01*
X-53901399Y-09778740D02*
X-53877846Y-09755995D01*
X-53877846Y-09755995D02*
X-53797905Y-09739175D01*
X-53797905Y-09739175D02*
X-53738071Y-09755197D01*
X-53738071Y-09755197D02*
X-53721030Y-09774853D01*
X-53721030Y-09774853D02*
X-53712188Y-09808887D01*
X-53712188Y-09808887D02*
X-53722802Y-09840930D01*
X-53722802Y-09840930D02*
X-53742201Y-09859691D01*
X-53742201Y-09859691D02*
X-53815082Y-09875758D01*
X-53815082Y-09875758D02*
X-53861095Y-09867762D01*
X-53861095Y-09867762D02*
X-53887687Y-09853512D01*
X-53887687Y-09853512D02*
X-53905800Y-09828203D01*
X-53905800Y-09828203D02*
X-53909140Y-09803621D01*
X-53715879Y-10007793D02*
X-53905712Y-10089623D01*
X-53905712Y-10089623D02*
X-53715879Y-10160782D01*
X-53905712Y-10294868D02*
X-53719822Y-10296935D01*
X-53719822Y-10296935D02*
X-53715879Y-10324762D01*
X-53715879Y-10324762D02*
X-53716337Y-10346078D01*
X-53716337Y-10346078D02*
X-53725702Y-10380704D01*
X-53725702Y-10380704D02*
X-53745925Y-10406310D01*
X-53745925Y-10406310D02*
X-53773155Y-10420950D01*
X-53773155Y-10420950D02*
X-53801390Y-10426786D01*
X-53801390Y-10426786D02*
X-53822648Y-10427349D01*
X-53822648Y-10427349D02*
X-53840867Y-10424679D01*
X-53840867Y-10424679D02*
X-53856277Y-10419218D01*
X-53856277Y-10419218D02*
X-53879595Y-10401686D01*
X-53879595Y-10401686D02*
X-53894439Y-10378280D01*
X-53894439Y-10378280D02*
X-53904841Y-10339878D01*
X-53904841Y-10339878D02*
X-53905712Y-10294868D01*
X-53905712Y-10571689D02*
X-53719822Y-10573756D01*
X-53719822Y-10573756D02*
X-53715879Y-10601582D01*
X-53715879Y-10601582D02*
X-53716337Y-10622899D01*
X-53716337Y-10622899D02*
X-53725702Y-10657524D01*
X-53725702Y-10657524D02*
X-53745925Y-10683131D01*
X-53745925Y-10683131D02*
X-53773155Y-10697771D01*
X-53773155Y-10697771D02*
X-53801390Y-10703607D01*
X-53801390Y-10703607D02*
X-53822648Y-10704169D01*
X-53822648Y-10704169D02*
X-53840867Y-10701500D01*
X-53840867Y-10701500D02*
X-53856277Y-10696039D01*
X-53856277Y-10696039D02*
X-53879595Y-10678507D01*
X-53879595Y-10678507D02*
X-53894439Y-10655101D01*
X-53894439Y-10655101D02*
X-53904841Y-10616698D01*
X-53904841Y-10616698D02*
X-53905712Y-10571689D01*
X-53715879Y-10851449D02*
X-53812116Y-10851449D01*
X-53812116Y-10851449D02*
X-53799460Y-10905406D01*
X-53799460Y-10905406D02*
X-53804221Y-10943932D01*
X-53804221Y-10943932D02*
X-53812813Y-10959263D01*
X-53812813Y-10959263D02*
X-53825005Y-10969910D01*
X-53825005Y-10969910D02*
X-53858232Y-10978051D01*
X-53858232Y-10978051D02*
X-53875494Y-10974201D01*
X-53875494Y-10974201D02*
X-53889079Y-10964099D01*
X-53889079Y-10964099D02*
X-53901696Y-10944248D01*
X-53901696Y-10944248D02*
X-53908334Y-10921307D01*
X-53908334Y-10921307D02*
X-53909399Y-10899734D01*
X-53909399Y-10899734D02*
X-53905935Y-10881567D01*
X-53905935Y-10881567D02*
X-53899142Y-10866881D01*
X-53899142Y-10866881D02*
X-53885170Y-10851449D01*
X-53715879Y-10851449D02*
X-53715879Y-10978051D01*
D10*
X-56490000Y002320000D02*
X-57980000Y002320000D01*
X-57980000Y000880000D01*
X-56490000Y000880000D01*
D19*
X-57959148Y002842443D02*
X-57967724Y002863345D01*
X-57967724Y002863345D02*
X-57983457Y002878145D01*
X-57983457Y002878145D02*
X-58013251Y002887812D01*
X-58013251Y002887812D02*
X-58035267Y002884860D01*
X-58035267Y002884860D02*
X-58054670Y002874951D01*
X-58054670Y002874951D02*
X-58073615Y002852079D01*
X-58073615Y002852079D02*
X-58086844Y002792044D01*
X-58086844Y002792044D02*
X-58076463Y002731692D01*
X-58076463Y002731692D02*
X-58060977Y002707389D01*
X-58060977Y002707389D02*
X-58044876Y002696016D01*
X-58044876Y002696016D02*
X-58013510Y002690860D01*
X-58013510Y002690860D02*
X-57986175Y002697450D01*
X-57986175Y002697450D02*
X-57965935Y002716680D01*
X-57965935Y002716680D02*
X-57959148Y002743822D01*
X-57830462Y002635032D02*
X-57661888Y002635032D01*
X-57469354Y002884121D02*
X-57469354Y002694288D01*
X-57196379Y002690860D02*
X-57221260Y002698601D01*
X-57221260Y002698601D02*
X-57244005Y002722154D01*
X-57244005Y002722154D02*
X-57260825Y002802095D01*
X-57260825Y002802095D02*
X-57244803Y002861929D01*
X-57244803Y002861929D02*
X-57225147Y002878970D01*
X-57225147Y002878970D02*
X-57191113Y002887812D01*
X-57191113Y002887812D02*
X-57159070Y002877198D01*
X-57159070Y002877198D02*
X-57140309Y002857799D01*
X-57140309Y002857799D02*
X-57124242Y002784918D01*
X-57124242Y002784918D02*
X-57132238Y002738905D01*
X-57132238Y002738905D02*
X-57146488Y002712313D01*
X-57146488Y002712313D02*
X-57171797Y002694200D01*
X-57171797Y002694200D02*
X-57196379Y002690860D01*
X-56992207Y002884121D02*
X-56910377Y002694288D01*
X-56910377Y002694288D02*
X-56839218Y002884121D01*
X-56705132Y002694288D02*
X-56703065Y002880178D01*
X-56703065Y002880178D02*
X-56675238Y002884121D01*
X-56675238Y002884121D02*
X-56653922Y002883663D01*
X-56653922Y002883663D02*
X-56619296Y002874298D01*
X-56619296Y002874298D02*
X-56593690Y002854075D01*
X-56593690Y002854075D02*
X-56579050Y002826845D01*
X-56579050Y002826845D02*
X-56573214Y002798610D01*
X-56573214Y002798610D02*
X-56572651Y002777352D01*
X-56572651Y002777352D02*
X-56575321Y002759133D01*
X-56575321Y002759133D02*
X-56580782Y002743723D01*
X-56580782Y002743723D02*
X-56598314Y002720405D01*
X-56598314Y002720405D02*
X-56621720Y002705561D01*
X-56621720Y002705561D02*
X-56660122Y002695159D01*
X-56660122Y002695159D02*
X-56705132Y002694288D01*
X-56428311Y002694288D02*
X-56426244Y002880178D01*
X-56426244Y002880178D02*
X-56398418Y002884121D01*
X-56398418Y002884121D02*
X-56377101Y002883663D01*
X-56377101Y002883663D02*
X-56342476Y002874298D01*
X-56342476Y002874298D02*
X-56316869Y002854075D01*
X-56316869Y002854075D02*
X-56302229Y002826845D01*
X-56302229Y002826845D02*
X-56296393Y002798610D01*
X-56296393Y002798610D02*
X-56295831Y002777352D01*
X-56295831Y002777352D02*
X-56298500Y002759133D01*
X-56298500Y002759133D02*
X-56303961Y002743723D01*
X-56303961Y002743723D02*
X-56321493Y002720405D01*
X-56321493Y002720405D02*
X-56344899Y002705561D01*
X-56344899Y002705561D02*
X-56383302Y002695159D01*
X-56383302Y002695159D02*
X-56428311Y002694288D01*
X-56049544Y002887812D02*
X-56073936Y002880185D01*
X-56073936Y002880185D02*
X-56096533Y002872612D01*
X-56096533Y002872612D02*
X-56115725Y002859149D01*
X-56115725Y002859149D02*
X-56130645Y002844929D01*
X-56130645Y002844929D02*
X-56142036Y002819882D01*
X-56142036Y002819882D02*
X-56149868Y002796405D01*
X-56149868Y002796405D02*
X-56150704Y002772200D01*
X-56150704Y002772200D02*
X-56151292Y002748078D01*
X-56151292Y002748078D02*
X-56145132Y002730128D01*
X-56145132Y002730128D02*
X-56139251Y002718908D01*
X-56139251Y002718908D02*
X-56125321Y002704323D01*
X-56125321Y002704323D02*
X-56110463Y002694506D01*
X-56110463Y002694506D02*
X-56087556Y002690860D01*
X-56087556Y002690860D02*
X-56061864Y002692262D01*
X-56061864Y002692262D02*
X-56041743Y002701238D01*
X-56041743Y002701238D02*
X-56027504Y002713298D01*
X-56027504Y002713298D02*
X-56019766Y002729847D01*
X-56019766Y002729847D02*
X-56019147Y002743871D01*
X-56019147Y002743871D02*
X-56023480Y002758737D01*
X-56023480Y002758737D02*
X-56029981Y002771358D01*
X-56029981Y002771358D02*
X-56039886Y002781736D01*
X-56039886Y002781736D02*
X-56053506Y002788187D01*
X-56053506Y002788187D02*
X-56072389Y002792395D01*
X-56072389Y002792395D02*
X-56090342Y002793236D01*
X-56090342Y002793236D02*
X-56109225Y002790431D01*
X-56109225Y002790431D02*
X-56128726Y002780334D01*
X-56128726Y002780334D02*
X-56138941Y002769956D01*
X-56138941Y002769956D02*
X-56151354Y002757278D01*
D18*
X-38753641Y-05120000D02*
X-38446359Y-05120000D01*
D18*
X-38753641Y-05880000D02*
X-38446359Y-05880000D01*
D19*
X-39282277Y-04404351D02*
X-39282277Y-04220796D01*
X-39282277Y-04220796D02*
X-39228456Y-04215879D01*
X-39228456Y-04215879D02*
X-39190681Y-04217523D01*
X-39190681Y-04217523D02*
X-39167894Y-04222574D01*
X-39167894Y-04222574D02*
X-39158312Y-04226692D01*
X-39158312Y-04226692D02*
X-39150425Y-04232052D01*
X-39150425Y-04232052D02*
X-39144600Y-04238789D01*
X-39144600Y-04238789D02*
X-39139462Y-04257057D01*
X-39139462Y-04257057D02*
X-39139945Y-04273258D01*
X-39139945Y-04273258D02*
X-39145202Y-04284989D01*
X-39145202Y-04284989D02*
X-39154639Y-04293025D01*
X-39154639Y-04293025D02*
X-39167658Y-04298144D01*
X-39167658Y-04298144D02*
X-39192597Y-04302047D01*
X-39192597Y-04302047D02*
X-39278709Y-04305096D01*
X-39207197Y-04312846D02*
X-39133253Y-04405712D01*
X-39015231Y-04464968D02*
X-38846657Y-04464968D01*
X-38728635Y-04404351D02*
X-38728635Y-04220796D01*
X-38728635Y-04220796D02*
X-38674815Y-04215879D01*
X-38674815Y-04215879D02*
X-38637040Y-04217523D01*
X-38637040Y-04217523D02*
X-38614252Y-04222574D01*
X-38614252Y-04222574D02*
X-38604670Y-04226692D01*
X-38604670Y-04226692D02*
X-38596784Y-04232052D01*
X-38596784Y-04232052D02*
X-38590958Y-04238789D01*
X-38590958Y-04238789D02*
X-38585821Y-04257057D01*
X-38585821Y-04257057D02*
X-38586303Y-04273258D01*
X-38586303Y-04273258D02*
X-38591561Y-04284989D01*
X-38591561Y-04284989D02*
X-38600998Y-04293025D01*
X-38600998Y-04293025D02*
X-38614016Y-04298144D01*
X-38614016Y-04298144D02*
X-38638956Y-04302047D01*
X-38638956Y-04302047D02*
X-38725068Y-04305096D01*
X-38653555Y-04312846D02*
X-38579611Y-04405712D01*
X-38441423Y-04215879D02*
X-38441127Y-04321685D01*
X-38441127Y-04321685D02*
X-38439085Y-04350468D01*
X-38439085Y-04350468D02*
X-38433863Y-04371788D01*
X-38433863Y-04371788D02*
X-38423850Y-04388004D01*
X-38423850Y-04388004D02*
X-38410750Y-04398726D01*
X-38410750Y-04398726D02*
X-38391180Y-04406470D01*
X-38391180Y-04406470D02*
X-38366486Y-04409399D01*
X-38366486Y-04409399D02*
X-38349155Y-04406467D01*
X-38349155Y-04406467D02*
X-38334940Y-04398744D01*
X-38334940Y-04398744D02*
X-38326433Y-04389696D01*
X-38326433Y-04389696D02*
X-38322781Y-04383748D01*
X-38322781Y-04383748D02*
X-38317194Y-04368584D01*
X-38317194Y-04368584D02*
X-38314586Y-04348495D01*
X-38314586Y-04348495D02*
X-38313181Y-04216165D01*
X-38165765Y-04405712D02*
X-38165765Y-04215879D01*
X-38165765Y-04215879D02*
X-38035198Y-04405712D01*
X-38035198Y-04405712D02*
X-38037760Y-04215879D01*
D10*
X-55010000Y010080000D02*
X-53520000Y010080000D01*
X-53520000Y011520000D01*
X-55010000Y011520000D01*
D19*
X-53679262Y009557557D02*
X-53670686Y009536655D01*
X-53670686Y009536655D02*
X-53654954Y009521855D01*
X-53654954Y009521855D02*
X-53625160Y009512188D01*
X-53625160Y009512188D02*
X-53603143Y009515140D01*
X-53603143Y009515140D02*
X-53583741Y009525049D01*
X-53583741Y009525049D02*
X-53564795Y009547921D01*
X-53564795Y009547921D02*
X-53551567Y009607956D01*
X-53551567Y009607956D02*
X-53561948Y009668308D01*
X-53561948Y009668308D02*
X-53577434Y009692611D01*
X-53577434Y009692611D02*
X-53593534Y009703984D01*
X-53593534Y009703984D02*
X-53624900Y009709140D01*
X-53624900Y009709140D02*
X-53652236Y009702550D01*
X-53652236Y009702550D02*
X-53672476Y009683320D01*
X-53672476Y009683320D02*
X-53679262Y009656178D01*
X-53807948Y009764968D02*
X-53976523Y009764968D01*
X-54108968Y009515879D02*
X-54108968Y009705712D01*
X-54110334Y009517170D02*
X-54229144Y009517170D01*
X-54110334Y009610150D02*
X-54210025Y009610150D01*
X-54382713Y009515879D02*
X-54382713Y009705712D01*
X-54382713Y009705712D02*
X-54509041Y009705712D01*
X-54643469Y009705712D02*
X-54719661Y009515879D01*
X-54719661Y009515879D02*
X-54801926Y009705712D01*
X-54681895Y009631666D02*
X-54759804Y009631666D01*
X-55050482Y009542013D02*
X-55029363Y009514894D01*
X-55029363Y009514894D02*
X-54979304Y009512188D01*
X-54979304Y009512188D02*
X-54951246Y009531718D01*
X-54951246Y009531718D02*
X-54939791Y009567551D01*
X-54939791Y009567551D02*
X-54944535Y009585244D01*
X-54944535Y009585244D02*
X-54962286Y009600526D01*
X-54962286Y009600526D02*
X-55032630Y009612849D01*
X-55032630Y009612849D02*
X-55056294Y009627416D01*
X-55056294Y009627416D02*
X-55065075Y009652611D01*
X-55065075Y009652611D02*
X-55053508Y009692015D01*
X-55053508Y009692015D02*
X-55018178Y009709140D01*
X-55018178Y009709140D02*
X-54972753Y009707865D01*
X-54972753Y009707865D02*
X-54947910Y009693971D01*
X-54947910Y009693971D02*
X-54933962Y009661294D01*
X-55210783Y009515879D02*
X-55210783Y009705712D01*
X-55210783Y009606784D02*
X-55340455Y009606784D01*
X-55341896Y009515879D02*
X-55341896Y009705712D01*
D10*
X-41290000Y015220000D02*
X-42780000Y015220000D01*
X-42780000Y013780000D01*
X-41290000Y013780000D01*
D19*
X-42897558Y015742443D02*
X-42906135Y015763345D01*
X-42906135Y015763345D02*
X-42921867Y015778145D01*
X-42921867Y015778145D02*
X-42951661Y015787812D01*
X-42951661Y015787812D02*
X-42973678Y015784860D01*
X-42973678Y015784860D02*
X-42993080Y015774951D01*
X-42993080Y015774951D02*
X-43012026Y015752079D01*
X-43012026Y015752079D02*
X-43025254Y015692044D01*
X-43025254Y015692044D02*
X-43014873Y015631692D01*
X-43014873Y015631692D02*
X-42999387Y015607389D01*
X-42999387Y015607389D02*
X-42983286Y015596016D01*
X-42983286Y015596016D02*
X-42951920Y015590860D01*
X-42951920Y015590860D02*
X-42924585Y015597450D01*
X-42924585Y015597450D02*
X-42904345Y015616680D01*
X-42904345Y015616680D02*
X-42897558Y015643822D01*
X-42768873Y015535032D02*
X-42600298Y015535032D01*
X-42471886Y015784121D02*
X-42471590Y015678315D01*
X-42471590Y015678315D02*
X-42469548Y015649532D01*
X-42469548Y015649532D02*
X-42464325Y015628212D01*
X-42464325Y015628212D02*
X-42454312Y015611996D01*
X-42454312Y015611996D02*
X-42441212Y015601274D01*
X-42441212Y015601274D02*
X-42421642Y015593530D01*
X-42421642Y015593530D02*
X-42396949Y015590601D01*
X-42396949Y015590601D02*
X-42379617Y015593533D01*
X-42379617Y015593533D02*
X-42365402Y015601256D01*
X-42365402Y015601256D02*
X-42356896Y015610304D01*
X-42356896Y015610304D02*
X-42353243Y015616252D01*
X-42353243Y015616252D02*
X-42347656Y015631416D01*
X-42347656Y015631416D02*
X-42345048Y015651505D01*
X-42345048Y015651505D02*
X-42343643Y015783835D01*
X-42079981Y015757987D02*
X-42101100Y015785106D01*
X-42101100Y015785106D02*
X-42151159Y015787812D01*
X-42151159Y015787812D02*
X-42179217Y015768282D01*
X-42179217Y015768282D02*
X-42190672Y015732449D01*
X-42190672Y015732449D02*
X-42185928Y015714756D01*
X-42185928Y015714756D02*
X-42168176Y015699474D01*
X-42168176Y015699474D02*
X-42097833Y015687151D01*
X-42097833Y015687151D02*
X-42074168Y015672584D01*
X-42074168Y015672584D02*
X-42065387Y015647389D01*
X-42065387Y015647389D02*
X-42076954Y015607985D01*
X-42076954Y015607985D02*
X-42112284Y015590860D01*
X-42112284Y015590860D02*
X-42157709Y015592135D01*
X-42157709Y015592135D02*
X-42182552Y015606029D01*
X-42182552Y015606029D02*
X-42196501Y015638706D01*
X-41920500Y015594288D02*
X-41920500Y015781893D01*
X-41920500Y015781893D02*
X-41879791Y015784121D01*
X-41879791Y015784121D02*
X-41842514Y015777570D01*
X-41842514Y015777570D02*
X-41817400Y015755582D01*
X-41817400Y015755582D02*
X-41821308Y015723436D01*
X-41821308Y015723436D02*
X-41850858Y015706234D01*
X-41850858Y015706234D02*
X-41914687Y015698851D01*
X-41914687Y015698851D02*
X-41852625Y015694958D01*
X-41852625Y015694958D02*
X-41807125Y015678712D01*
X-41807125Y015678712D02*
X-41787746Y015653736D01*
X-41787746Y015653736D02*
X-41789338Y015621434D01*
X-41789338Y015621434D02*
X-41798061Y015607165D01*
X-41798061Y015607165D02*
X-41819816Y015595569D01*
X-41819816Y015595569D02*
X-41920500Y015594288D01*
X-41661590Y015535032D02*
X-41493015Y015535032D01*
X-41376976Y015784121D02*
X-41295146Y015594288D01*
X-41295146Y015594288D02*
X-41223987Y015784121D01*
X-41089901Y015594288D02*
X-41087833Y015780178D01*
X-41087833Y015780178D02*
X-41060007Y015784121D01*
X-41060007Y015784121D02*
X-41038691Y015783663D01*
X-41038691Y015783663D02*
X-41004065Y015774298D01*
X-41004065Y015774298D02*
X-40978459Y015754075D01*
X-40978459Y015754075D02*
X-40963819Y015726845D01*
X-40963819Y015726845D02*
X-40957983Y015698610D01*
X-40957983Y015698610D02*
X-40957420Y015677352D01*
X-40957420Y015677352D02*
X-40960090Y015659133D01*
X-40960090Y015659133D02*
X-40965551Y015643723D01*
X-40965551Y015643723D02*
X-40983083Y015620405D01*
X-40983083Y015620405D02*
X-41006488Y015605561D01*
X-41006488Y015605561D02*
X-41044891Y015595159D01*
X-41044891Y015595159D02*
X-41089901Y015594288D01*
X-40813080Y015594288D02*
X-40811013Y015780178D01*
X-40811013Y015780178D02*
X-40783186Y015784121D01*
X-40783186Y015784121D02*
X-40761870Y015783663D01*
X-40761870Y015783663D02*
X-40727244Y015774298D01*
X-40727244Y015774298D02*
X-40701638Y015754075D01*
X-40701638Y015754075D02*
X-40686998Y015726845D01*
X-40686998Y015726845D02*
X-40681162Y015698610D01*
X-40681162Y015698610D02*
X-40680599Y015677352D01*
X-40680599Y015677352D02*
X-40683269Y015659133D01*
X-40683269Y015659133D02*
X-40688730Y015643723D01*
X-40688730Y015643723D02*
X-40706262Y015620405D01*
X-40706262Y015620405D02*
X-40729668Y015605561D01*
X-40729668Y015605561D02*
X-40768070Y015595159D01*
X-40768070Y015595159D02*
X-40813080Y015594288D01*
D10*
X-40490000Y-03680000D02*
X-41980000Y-03680000D01*
X-41980000Y-05120000D01*
X-40490000Y-05120000D01*
D19*
X-41543917Y-05597557D02*
X-41552493Y-05576655D01*
X-41552493Y-05576655D02*
X-41568225Y-05561855D01*
X-41568225Y-05561855D02*
X-41598020Y-05552188D01*
X-41598020Y-05552188D02*
X-41620036Y-05555140D01*
X-41620036Y-05555140D02*
X-41639438Y-05565049D01*
X-41639438Y-05565049D02*
X-41658384Y-05587921D01*
X-41658384Y-05587921D02*
X-41671613Y-05647956D01*
X-41671613Y-05647956D02*
X-41661232Y-05708308D01*
X-41661232Y-05708308D02*
X-41645745Y-05732611D01*
X-41645745Y-05732611D02*
X-41629645Y-05743984D01*
X-41629645Y-05743984D02*
X-41598279Y-05749140D01*
X-41598279Y-05749140D02*
X-41570944Y-05742550D01*
X-41570944Y-05742550D02*
X-41550704Y-05723320D01*
X-41550704Y-05723320D02*
X-41543917Y-05696178D01*
X-41415231Y-05804968D02*
X-41246657Y-05804968D01*
X-41133352Y-05745712D02*
X-41057160Y-05555879D01*
X-41057160Y-05555879D02*
X-40974894Y-05745712D01*
X-41094926Y-05671666D02*
X-41017017Y-05671666D01*
X-40843542Y-05745712D02*
X-40841475Y-05559822D01*
X-40841475Y-05559822D02*
X-40813649Y-05555879D01*
X-40813649Y-05555879D02*
X-40792332Y-05556337D01*
X-40792332Y-05556337D02*
X-40757707Y-05565702D01*
X-40757707Y-05565702D02*
X-40732101Y-05585925D01*
X-40732101Y-05585925D02*
X-40717460Y-05613155D01*
X-40717460Y-05613155D02*
X-40711624Y-05641390D01*
X-40711624Y-05641390D02*
X-40711062Y-05662648D01*
X-40711062Y-05662648D02*
X-40713731Y-05680867D01*
X-40713731Y-05680867D02*
X-40719192Y-05696277D01*
X-40719192Y-05696277D02*
X-40736724Y-05719595D01*
X-40736724Y-05719595D02*
X-40760130Y-05734439D01*
X-40760130Y-05734439D02*
X-40798533Y-05744841D01*
X-40798533Y-05744841D02*
X-40843542Y-05745712D01*
X-40436634Y-05597557D02*
X-40445210Y-05576655D01*
X-40445210Y-05576655D02*
X-40460942Y-05561855D01*
X-40460942Y-05561855D02*
X-40490736Y-05552188D01*
X-40490736Y-05552188D02*
X-40512753Y-05555140D01*
X-40512753Y-05555140D02*
X-40532155Y-05565049D01*
X-40532155Y-05565049D02*
X-40551101Y-05587921D01*
X-40551101Y-05587921D02*
X-40564329Y-05647956D01*
X-40564329Y-05647956D02*
X-40553948Y-05708308D01*
X-40553948Y-05708308D02*
X-40538462Y-05732611D01*
X-40538462Y-05732611D02*
X-40522362Y-05743984D01*
X-40522362Y-05743984D02*
X-40490996Y-05749140D01*
X-40490996Y-05749140D02*
X-40463660Y-05742550D01*
X-40463660Y-05742550D02*
X-40443420Y-05723320D01*
X-40443420Y-05723320D02*
X-40436634Y-05696178D01*
D10*
X-45175000Y032525000D02*
X-45175000Y030625000D01*
D10*
X-52825000Y032525000D02*
X-52825000Y030625000D01*
D10*
X-45175000Y036225000D02*
X-52825000Y036225000D01*
D30*
X-48037260Y027212788D02*
X-48037738Y027463275D01*
X-48037738Y027463275D02*
X-48033158Y027494622D01*
X-48033158Y027494622D02*
X-48024468Y027511587D01*
X-48024468Y027511587D02*
X-48012282Y027525077D01*
X-48012282Y027525077D02*
X-47997696Y027535410D01*
X-47997696Y027535410D02*
X-47965675Y027547858D01*
X-47965675Y027547858D02*
X-47937138Y027551448D01*
X-47937138Y027551448D02*
X-47898460Y027547283D01*
X-47898460Y027547283D02*
X-47869945Y027535853D01*
X-47869945Y027535853D02*
X-47856074Y027524780D01*
X-47856074Y027524780D02*
X-47845959Y027511353D01*
X-47845959Y027511353D02*
X-47839292Y027495921D01*
X-47839292Y027495921D02*
X-47835769Y027478834D01*
X-47835769Y027478834D02*
X-47835086Y027460442D01*
X-48273345Y027648694D02*
X-48568351Y027648694D01*
X-48793073Y027212788D02*
X-48793591Y027397949D01*
X-48793591Y027397949D02*
X-48797164Y027448318D01*
X-48797164Y027448318D02*
X-48806304Y027485628D01*
X-48806304Y027485628D02*
X-48823827Y027514007D01*
X-48823827Y027514007D02*
X-48846752Y027532771D01*
X-48846752Y027532771D02*
X-48880999Y027546323D01*
X-48880999Y027546323D02*
X-48924213Y027551448D01*
X-48924213Y027551448D02*
X-48954543Y027546317D01*
X-48954543Y027546317D02*
X-48979419Y027532802D01*
X-48979419Y027532802D02*
X-48994305Y027516968D01*
X-48994305Y027516968D02*
X-49000697Y027506559D01*
X-49000697Y027506559D02*
X-49010474Y027480021D01*
X-49010474Y027480021D02*
X-49015039Y027444867D01*
X-49015039Y027444867D02*
X-49017497Y027213288D01*
X-49478906Y027258523D02*
X-49441949Y027211064D01*
X-49441949Y027211064D02*
X-49354345Y027206328D01*
X-49354345Y027206328D02*
X-49305243Y027240507D01*
X-49305243Y027240507D02*
X-49285197Y027303214D01*
X-49285197Y027303214D02*
X-49293500Y027334176D01*
X-49293500Y027334176D02*
X-49324565Y027360920D01*
X-49324565Y027360920D02*
X-49447665Y027382486D01*
X-49447665Y027382486D02*
X-49489078Y027407978D01*
X-49489078Y027407978D02*
X-49504445Y027452069D01*
X-49504445Y027452069D02*
X-49484203Y027521027D01*
X-49484203Y027521027D02*
X-49422376Y027550995D01*
X-49422376Y027550995D02*
X-49342882Y027548764D01*
X-49342882Y027548764D02*
X-49299407Y027524449D01*
X-49299407Y027524449D02*
X-49274997Y027467264D01*
X-49757997Y027544995D02*
X-49757997Y027216687D01*
X-49757997Y027216687D02*
X-49829239Y027212788D01*
X-49829239Y027212788D02*
X-49894473Y027224253D01*
X-49894473Y027224253D02*
X-49938422Y027262731D01*
X-49938422Y027262731D02*
X-49931584Y027318988D01*
X-49931584Y027318988D02*
X-49879871Y027349091D01*
X-49879871Y027349091D02*
X-49768171Y027362010D01*
X-49768171Y027362010D02*
X-49876779Y027368823D01*
X-49876779Y027368823D02*
X-49956404Y027397253D01*
X-49956404Y027397253D02*
X-49990317Y027440962D01*
X-49990317Y027440962D02*
X-49987531Y027497490D01*
X-49987531Y027497490D02*
X-49972266Y027522462D01*
X-49972266Y027522462D02*
X-49934194Y027542755D01*
X-49934194Y027542755D02*
X-49757997Y027544995D01*
D37*
X-52549950Y004450050D02*
X-52749950Y004450050D01*
D10*
X-52949950Y004250050D02*
X-52949950Y004050050D01*
D10*
X-53149950Y004650050D02*
X-52949950Y004450050D01*
X-52749950Y004650050D01*
X-53149950Y004650050D01*
D10*
X-52549950Y-03450050D02*
X-52949950Y-03450050D01*
X-52949950Y-03050050D01*
D10*
X-45450050Y-03450050D02*
X-45050050Y-03450050D01*
X-45050050Y-03050050D01*
D10*
X-45450050Y004450050D02*
X-45050050Y004450050D01*
X-45050050Y004050050D01*
D15*
X-49320818Y005030201D02*
X-49320448Y004897944D01*
X-49320448Y004897944D02*
X-49317896Y004861966D01*
X-49317896Y004861966D02*
X-49311368Y004835315D01*
X-49311368Y004835315D02*
X-49298851Y004815045D01*
X-49298851Y004815045D02*
X-49282476Y004801642D01*
X-49282476Y004801642D02*
X-49258014Y004791962D01*
X-49258014Y004791962D02*
X-49227147Y004788301D01*
X-49227147Y004788301D02*
X-49205482Y004791966D01*
X-49205482Y004791966D02*
X-49187714Y004801620D01*
X-49187714Y004801620D02*
X-49177081Y004812930D01*
X-49177081Y004812930D02*
X-49172515Y004820365D01*
X-49172515Y004820365D02*
X-49165531Y004839321D01*
X-49165531Y004839321D02*
X-49162271Y004864431D01*
X-49162271Y004864431D02*
X-49160515Y005029844D01*
X-48922851Y004982093D02*
X-48866431Y005030201D01*
X-48866431Y005030201D02*
X-48866431Y004792912D01*
D10*
X-44100000Y008500000D02*
X-47100000Y008500000D01*
D10*
X-44100000Y010500000D02*
X-47100000Y010500000D01*
D30*
X-48119712Y009050854D02*
X-47934551Y009051373D01*
X-47934551Y009051373D02*
X-47884182Y009054946D01*
X-47884182Y009054946D02*
X-47846872Y009064085D01*
X-47846872Y009064085D02*
X-47818493Y009081609D01*
X-47818493Y009081609D02*
X-47799729Y009104533D01*
X-47799729Y009104533D02*
X-47786177Y009138781D01*
X-47786177Y009138781D02*
X-47781052Y009181995D01*
X-47781052Y009181995D02*
X-47786183Y009212325D01*
X-47786183Y009212325D02*
X-47799698Y009237200D01*
X-47799698Y009237200D02*
X-47815532Y009252087D01*
X-47815532Y009252087D02*
X-47825941Y009258479D01*
X-47825941Y009258479D02*
X-47852479Y009268256D01*
X-47852479Y009268256D02*
X-47887633Y009272820D01*
X-47887633Y009272820D02*
X-48119212Y009275279D01*
X-48060361Y009554100D02*
X-48084776Y009561554D01*
X-48084776Y009561554D02*
X-48107547Y009583580D01*
X-48107547Y009583580D02*
X-48122988Y009619676D01*
X-48122988Y009619676D02*
X-48126172Y009642844D01*
X-48126172Y009642844D02*
X-48123238Y009682926D01*
X-48123238Y009682926D02*
X-48110055Y009712995D01*
X-48110055Y009712995D02*
X-48089837Y009729437D01*
X-48089837Y009729437D02*
X-48066343Y009735343D01*
X-48066343Y009735343D02*
X-48050715Y009734951D01*
X-48050715Y009734951D02*
X-48024556Y009727893D01*
X-48024556Y009727893D02*
X-47973696Y009697260D01*
X-47973696Y009697260D02*
X-47876945Y009620116D01*
X-47876945Y009620116D02*
X-47787958Y009538999D01*
X-47787958Y009538999D02*
X-47787958Y009756006D01*
D44*
X-55912600Y022015698D02*
X-55912932Y022134179D01*
X-55912932Y022134179D02*
X-55915218Y022166409D01*
X-55915218Y022166409D02*
X-55921067Y022190283D01*
X-55921067Y022190283D02*
X-55932279Y022208442D01*
X-55932279Y022208442D02*
X-55946948Y022220449D01*
X-55946948Y022220449D02*
X-55968863Y022229120D01*
X-55968863Y022229120D02*
X-55996514Y022232400D01*
X-55996514Y022232400D02*
X-56015922Y022229117D01*
X-56015922Y022229117D02*
X-56031840Y022220469D01*
X-56031840Y022220469D02*
X-56041365Y022210337D01*
X-56041365Y022210337D02*
X-56045455Y022203676D01*
X-56045455Y022203676D02*
X-56051711Y022186695D01*
X-56051711Y022186695D02*
X-56054632Y022164200D01*
X-56054632Y022164200D02*
X-56056205Y022016018D01*
X-56225587Y022038924D02*
X-56237360Y022029693D01*
X-56237360Y022029693D02*
X-56256123Y022019804D01*
X-56256123Y022019804D02*
X-56280036Y022011564D01*
X-56280036Y022011564D02*
X-56309468Y022013210D01*
X-56309468Y022013210D02*
X-56335221Y022021452D01*
X-56335221Y022021452D02*
X-56353617Y022036287D01*
X-56353617Y022036287D02*
X-56364654Y022054419D01*
X-56364654Y022054419D02*
X-56360974Y022074199D01*
X-56360974Y022074199D02*
X-56346258Y022089034D01*
X-56346258Y022089034D02*
X-56320505Y022100572D01*
X-56320505Y022100572D02*
X-56291073Y022107165D01*
X-56291073Y022107165D02*
X-56265320Y022110462D01*
X-56265320Y022110462D02*
X-56291073Y022113759D01*
X-56291073Y022113759D02*
X-56320505Y022122001D01*
X-56320505Y022122001D02*
X-56346258Y022135187D01*
X-56346258Y022135187D02*
X-56362814Y022153319D01*
X-56362814Y022153319D02*
X-56366493Y022173099D01*
X-56366493Y022173099D02*
X-56359135Y022194528D01*
X-56359135Y022194528D02*
X-56342579Y022212659D01*
X-56342579Y022212659D02*
X-56316826Y022227494D01*
X-56316826Y022227494D02*
X-56297327Y022232110D01*
X-56297327Y022232110D02*
X-56265688Y022231450D01*
X-56265688Y022231450D02*
X-56239935Y022227494D01*
X-56239935Y022227494D02*
X-56222276Y022222220D01*
D10*
X-57087550Y021687500D02*
X-58037550Y021687500D01*
X-58037550Y020737500D01*
D10*
X-55312450Y021687500D02*
X-54362450Y021687500D01*
X-54362450Y020737500D01*
D10*
X-57087550Y018712500D02*
X-58037550Y018712500D01*
X-58037550Y019662500D01*
D10*
X-55312450Y018712500D02*
X-54362450Y018712500D01*
X-54362450Y019662500D01*
D10*
X-58156300Y021212500D02*
X-58393800Y021450000D01*
X-58393800Y020975000D01*
X-58156300Y021212500D01*
D10*
X-51500000Y-07650000D02*
X-47500000Y-07650000D01*
X-47500000Y-04350000D01*
X-51500000Y-04350000D01*
X-51500000Y-07650000D01*
D30*
X-49975584Y-03637788D02*
X-49840802Y-03786326D01*
X-49698283Y-03638260D02*
X-49839909Y-03787269D01*
X-49839909Y-03787269D02*
X-49834851Y-03969995D01*
X-49391991Y-03705141D02*
X-49313003Y-03637788D01*
X-49313003Y-03637788D02*
X-49313003Y-03969993D01*
D10*
X-41825000Y023325000D02*
X-38975000Y023325000D01*
D10*
X-41825000Y020275000D02*
X-38975000Y020275000D01*
D10*
X-42500000Y021225000D02*
X-42500000Y022375000D01*
D10*
X-38300000Y021225000D02*
X-38300000Y022375000D01*
D30*
X-41858839Y023991477D02*
X-41895797Y024038936D01*
X-41895797Y024038936D02*
X-41983401Y024043672D01*
X-41983401Y024043672D02*
X-42032502Y024009493D01*
X-42032502Y024009493D02*
X-42052549Y023946786D01*
X-42052549Y023946786D02*
X-42044246Y023915824D01*
X-42044246Y023915824D02*
X-42013181Y023889080D01*
X-42013181Y023889080D02*
X-41890080Y023867514D01*
X-41890080Y023867514D02*
X-41848667Y023842022D01*
X-41848667Y023842022D02*
X-41833300Y023797931D01*
X-41833300Y023797931D02*
X-41853543Y023728973D01*
X-41853543Y023728973D02*
X-41915370Y023699005D01*
X-41915370Y023699005D02*
X-41994864Y023701236D01*
X-41994864Y023701236D02*
X-42038339Y023725551D01*
X-42038339Y023725551D02*
X-42062749Y023782736D01*
X-41611091Y024037212D02*
X-41571989Y023709215D01*
X-41571989Y023709215D02*
X-41471344Y023938287D01*
X-41471344Y023938287D02*
X-41363516Y023705005D01*
X-41363516Y023705005D02*
X-41316086Y024037212D01*
X-41126655Y023601306D02*
X-40831649Y023601306D01*
X-40610875Y023705005D02*
X-40610875Y024033313D01*
X-40610875Y024033313D02*
X-40539634Y024037212D01*
X-40539634Y024037212D02*
X-40474400Y024025747D01*
X-40474400Y024025747D02*
X-40430450Y023987269D01*
X-40430450Y023987269D02*
X-40437288Y023931012D01*
X-40437288Y023931012D02*
X-40489002Y023900909D01*
X-40489002Y023900909D02*
X-40600701Y023887990D01*
X-40600701Y023887990D02*
X-40492093Y023881177D01*
X-40492093Y023881177D02*
X-40412468Y023852747D01*
X-40412468Y023852747D02*
X-40378556Y023809038D01*
X-40378556Y023809038D02*
X-40381342Y023752510D01*
X-40381342Y023752510D02*
X-40396607Y023727538D01*
X-40396607Y023727538D02*
X-40434679Y023707245D01*
X-40434679Y023707245D02*
X-40610875Y023705005D01*
X-40017008Y023699005D02*
X-40060551Y023712552D01*
X-40060551Y023712552D02*
X-40100354Y023753769D01*
X-40100354Y023753769D02*
X-40129789Y023893667D01*
X-40129789Y023893667D02*
X-40101751Y023998375D01*
X-40101751Y023998375D02*
X-40067352Y024028198D01*
X-40067352Y024028198D02*
X-40007792Y024043672D01*
X-40007792Y024043672D02*
X-39951717Y024025097D01*
X-39951717Y024025097D02*
X-39918886Y023991149D01*
X-39918886Y023991149D02*
X-39890770Y023863606D01*
X-39890770Y023863606D02*
X-39904762Y023783084D01*
X-39904762Y023783084D02*
X-39929699Y023736548D01*
X-39929699Y023736548D02*
X-39973991Y023704849D01*
X-39973991Y023704849D02*
X-40017008Y023699005D01*
X-39532572Y023699005D02*
X-39576115Y023712552D01*
X-39576115Y023712552D02*
X-39615917Y023753769D01*
X-39615917Y023753769D02*
X-39645352Y023893667D01*
X-39645352Y023893667D02*
X-39617315Y023998375D01*
X-39617315Y023998375D02*
X-39582916Y024028198D01*
X-39582916Y024028198D02*
X-39523356Y024043672D01*
X-39523356Y024043672D02*
X-39467281Y024025097D01*
X-39467281Y024025097D02*
X-39434449Y023991149D01*
X-39434449Y023991149D02*
X-39406333Y023863606D01*
X-39406333Y023863606D02*
X-39420326Y023783084D01*
X-39420326Y023783084D02*
X-39445262Y023736548D01*
X-39445262Y023736548D02*
X-39489554Y023704849D01*
X-39489554Y023704849D02*
X-39532572Y023699005D01*
X-39177664Y024037212D02*
X-38905149Y024037212D01*
X-39037360Y024037212D02*
X-39037360Y023705005D01*
D10*
X-45025000Y-13925000D02*
X-45025000Y-11075000D01*
D10*
X-41975000Y-13925000D02*
X-41975000Y-11075000D01*
D10*
X-42925000Y-14600000D02*
X-44075000Y-14600000D01*
D10*
X-42925000Y-10400000D02*
X-44075000Y-10400000D01*
D30*
X-45691477Y-13716621D02*
X-45738936Y-13753579D01*
X-45738936Y-13753579D02*
X-45743672Y-13841183D01*
X-45743672Y-13841183D02*
X-45709493Y-13890284D01*
X-45709493Y-13890284D02*
X-45646786Y-13910330D01*
X-45646786Y-13910330D02*
X-45615824Y-13902028D01*
X-45615824Y-13902028D02*
X-45589080Y-13870963D01*
X-45589080Y-13870963D02*
X-45567514Y-13747862D01*
X-45567514Y-13747862D02*
X-45542022Y-13706449D01*
X-45542022Y-13706449D02*
X-45497931Y-13691082D01*
X-45497931Y-13691082D02*
X-45428973Y-13711325D01*
X-45428973Y-13711325D02*
X-45399005Y-13773152D01*
X-45399005Y-13773152D02*
X-45401236Y-13852646D01*
X-45401236Y-13852646D02*
X-45425551Y-13896121D01*
X-45425551Y-13896121D02*
X-45482736Y-13920531D01*
X-45737212Y-13468873D02*
X-45409215Y-13429771D01*
X-45409215Y-13429771D02*
X-45638287Y-13329126D01*
X-45638287Y-13329126D02*
X-45405005Y-13221298D01*
X-45405005Y-13221298D02*
X-45737212Y-13173867D01*
X-45301306Y-12984436D02*
X-45301306Y-12689431D01*
X-45407385Y-12482893D02*
X-45728608Y-12482893D01*
X-45728608Y-12482893D02*
X-45737212Y-12388708D01*
X-45737212Y-12388708D02*
X-45734335Y-12322601D01*
X-45734335Y-12322601D02*
X-45725496Y-12282723D01*
X-45725496Y-12282723D02*
X-45718289Y-12265954D01*
X-45718289Y-12265954D02*
X-45708909Y-12252154D01*
X-45708909Y-12252154D02*
X-45697120Y-12241958D01*
X-45697120Y-12241958D02*
X-45665150Y-12232968D01*
X-45665150Y-12232968D02*
X-45636799Y-12233812D01*
X-45636799Y-12233812D02*
X-45616270Y-12243013D01*
X-45616270Y-12243013D02*
X-45602206Y-12259528D01*
X-45602206Y-12259528D02*
X-45593248Y-12282310D01*
X-45593248Y-12282310D02*
X-45586418Y-12325954D01*
X-45586418Y-12325954D02*
X-45581083Y-12476650D01*
X-45567520Y-12351504D02*
X-45405005Y-12222101D01*
X-45737212Y-11980273D02*
X-45552051Y-11979754D01*
X-45552051Y-11979754D02*
X-45501682Y-11976181D01*
X-45501682Y-11976181D02*
X-45464372Y-11967042D01*
X-45464372Y-11967042D02*
X-45435993Y-11949518D01*
X-45435993Y-11949518D02*
X-45417229Y-11926594D01*
X-45417229Y-11926594D02*
X-45403677Y-11892346D01*
X-45403677Y-11892346D02*
X-45398552Y-11849133D01*
X-45398552Y-11849133D02*
X-45403683Y-11818803D01*
X-45403683Y-11818803D02*
X-45417198Y-11793927D01*
X-45417198Y-11793927D02*
X-45433032Y-11779040D01*
X-45433032Y-11779040D02*
X-45443441Y-11772649D01*
X-45443441Y-11772649D02*
X-45469979Y-11762871D01*
X-45469979Y-11762871D02*
X-45505133Y-11758307D01*
X-45505133Y-11758307D02*
X-45736712Y-11755848D01*
X-45405005Y-11497870D02*
X-45737212Y-11497870D01*
X-45737212Y-11497870D02*
X-45405005Y-11269379D01*
X-45405005Y-11269379D02*
X-45737212Y-11273862D01*
D10*
X-39800000Y003451000D02*
X-39800000Y005549000D01*
X-38200000Y005549000D01*
X-38200000Y003451000D01*
D10*
X-59600000Y024051000D02*
X-59600000Y026149000D01*
X-58000000Y026149000D01*
X-58000000Y024051000D01*
D18*
X-37380000Y017646359D02*
X-37380000Y017953641D01*
D18*
X-36620000Y017646359D02*
X-36620000Y017953641D01*
D19*
X-38095649Y016979313D02*
X-38279204Y016979313D01*
X-38279204Y016979313D02*
X-38284121Y017033133D01*
X-38284121Y017033133D02*
X-38282477Y017070908D01*
X-38282477Y017070908D02*
X-38277426Y017093696D01*
X-38277426Y017093696D02*
X-38273308Y017103278D01*
X-38273308Y017103278D02*
X-38267948Y017111164D01*
X-38267948Y017111164D02*
X-38261211Y017116990D01*
X-38261211Y017116990D02*
X-38242943Y017122127D01*
X-38242943Y017122127D02*
X-38226742Y017121645D01*
X-38226742Y017121645D02*
X-38215011Y017116387D01*
X-38215011Y017116387D02*
X-38206975Y017106950D01*
X-38206975Y017106950D02*
X-38201856Y017093932D01*
X-38201856Y017093932D02*
X-38197953Y017068992D01*
X-38197953Y017068992D02*
X-38194904Y016982880D01*
X-38187154Y017054393D02*
X-38094288Y017128337D01*
X-38035032Y017246358D02*
X-38035032Y017414933D01*
X-38094288Y017541089D02*
X-38281893Y017541089D01*
X-38281893Y017541089D02*
X-38284121Y017581799D01*
X-38284121Y017581799D02*
X-38277570Y017619075D01*
X-38277570Y017619075D02*
X-38255582Y017644189D01*
X-38255582Y017644189D02*
X-38223436Y017640282D01*
X-38223436Y017640282D02*
X-38206234Y017610731D01*
X-38206234Y017610731D02*
X-38198851Y017546903D01*
X-38198851Y017546903D02*
X-38194958Y017608965D01*
X-38194958Y017608965D02*
X-38178712Y017654465D01*
X-38178712Y017654465D02*
X-38153736Y017673844D01*
X-38153736Y017673844D02*
X-38121434Y017672251D01*
X-38121434Y017672251D02*
X-38107165Y017663528D01*
X-38107165Y017663528D02*
X-38095569Y017641773D01*
X-38095569Y017641773D02*
X-38094288Y017541089D01*
X-38090860Y017880442D02*
X-38098601Y017855560D01*
X-38098601Y017855560D02*
X-38122154Y017832816D01*
X-38122154Y017832816D02*
X-38202095Y017815996D01*
X-38202095Y017815996D02*
X-38261929Y017832017D01*
X-38261929Y017832017D02*
X-38278970Y017851674D01*
X-38278970Y017851674D02*
X-38287812Y017885708D01*
X-38287812Y017885708D02*
X-38277198Y017917751D01*
X-38277198Y017917751D02*
X-38257799Y017936512D01*
X-38257799Y017936512D02*
X-38184918Y017952578D01*
X-38184918Y017952578D02*
X-38138905Y017944582D01*
X-38138905Y017944582D02*
X-38112313Y017930333D01*
X-38112313Y017930333D02*
X-38094200Y017905024D01*
X-38094200Y017905024D02*
X-38090860Y017880442D01*
X-38090860Y018157263D02*
X-38098601Y018132381D01*
X-38098601Y018132381D02*
X-38122154Y018109637D01*
X-38122154Y018109637D02*
X-38202095Y018092817D01*
X-38202095Y018092817D02*
X-38261929Y018108838D01*
X-38261929Y018108838D02*
X-38278970Y018128495D01*
X-38278970Y018128495D02*
X-38287812Y018162529D01*
X-38287812Y018162529D02*
X-38277198Y018194572D01*
X-38277198Y018194572D02*
X-38257799Y018213333D01*
X-38257799Y018213333D02*
X-38184918Y018229399D01*
X-38184918Y018229399D02*
X-38138905Y018221403D01*
X-38138905Y018221403D02*
X-38112313Y018207154D01*
X-38112313Y018207154D02*
X-38094200Y018181844D01*
X-38094200Y018181844D02*
X-38090860Y018157263D01*
X-38284121Y018360067D02*
X-38284121Y018515790D01*
X-38284121Y018440241D02*
X-38094288Y018440241D01*
D18*
X-42180000Y001046359D02*
X-42180000Y001353641D01*
D18*
X-41420000Y001046359D02*
X-41420000Y001353641D01*
D19*
X-42895649Y000517723D02*
X-43079204Y000517723D01*
X-43079204Y000517723D02*
X-43084121Y000571544D01*
X-43084121Y000571544D02*
X-43082477Y000609319D01*
X-43082477Y000609319D02*
X-43077426Y000632106D01*
X-43077426Y000632106D02*
X-43073308Y000641688D01*
X-43073308Y000641688D02*
X-43067948Y000649575D01*
X-43067948Y000649575D02*
X-43061211Y000655400D01*
X-43061211Y000655400D02*
X-43042943Y000660538D01*
X-43042943Y000660538D02*
X-43026742Y000660055D01*
X-43026742Y000660055D02*
X-43015011Y000654798D01*
X-43015011Y000654798D02*
X-43006975Y000645361D01*
X-43006975Y000645361D02*
X-43001856Y000632342D01*
X-43001856Y000632342D02*
X-42997953Y000607403D01*
X-42997953Y000607403D02*
X-42994904Y000521291D01*
X-42987154Y000592803D02*
X-42894288Y000666747D01*
X-42835032Y000784769D02*
X-42835032Y000953343D01*
X-43084121Y001082713D02*
X-42894288Y001082713D01*
X-42894288Y001082713D02*
X-42894288Y001209041D01*
X-43084121Y001360832D02*
X-42894288Y001360832D01*
X-43084121Y001360832D02*
X-43084121Y001484563D01*
X-42989205Y001360832D02*
X-42989205Y001447444D01*
X-42894288Y001360832D02*
X-42894288Y001484563D01*
X-42894288Y001633278D02*
X-43080178Y001635346D01*
X-43080178Y001635346D02*
X-43084121Y001663172D01*
X-43084121Y001663172D02*
X-43083663Y001684489D01*
X-43083663Y001684489D02*
X-43074298Y001719114D01*
X-43074298Y001719114D02*
X-43054075Y001744720D01*
X-43054075Y001744720D02*
X-43026845Y001759361D01*
X-43026845Y001759361D02*
X-42998610Y001765197D01*
X-42998610Y001765197D02*
X-42977352Y001765759D01*
X-42977352Y001765759D02*
X-42959133Y001763089D01*
X-42959133Y001763089D02*
X-42943723Y001757629D01*
X-42943723Y001757629D02*
X-42920405Y001740097D01*
X-42920405Y001740097D02*
X-42905561Y001716691D01*
X-42905561Y001716691D02*
X-42895159Y001678288D01*
X-42895159Y001678288D02*
X-42894288Y001633278D01*
D18*
X-55580000Y024646359D02*
X-55580000Y024953641D01*
D18*
X-54820000Y024646359D02*
X-54820000Y024953641D01*
D19*
X-56295649Y023564082D02*
X-56479204Y023564082D01*
X-56479204Y023564082D02*
X-56484121Y023617902D01*
X-56484121Y023617902D02*
X-56482477Y023655677D01*
X-56482477Y023655677D02*
X-56477426Y023678465D01*
X-56477426Y023678465D02*
X-56473308Y023688047D01*
X-56473308Y023688047D02*
X-56467948Y023695933D01*
X-56467948Y023695933D02*
X-56461211Y023701759D01*
X-56461211Y023701759D02*
X-56442943Y023706896D01*
X-56442943Y023706896D02*
X-56426742Y023706414D01*
X-56426742Y023706414D02*
X-56415011Y023701156D01*
X-56415011Y023701156D02*
X-56406975Y023691719D01*
X-56406975Y023691719D02*
X-56401856Y023678701D01*
X-56401856Y023678701D02*
X-56397953Y023653761D01*
X-56397953Y023653761D02*
X-56394904Y023567649D01*
X-56387154Y023639162D02*
X-56294288Y023713106D01*
X-56235032Y023831127D02*
X-56235032Y023999702D01*
X-56294288Y024127704D02*
X-56480539Y024127704D01*
X-56480539Y024127704D02*
X-56484121Y024165919D01*
X-56484121Y024165919D02*
X-56481882Y024200106D01*
X-56481882Y024200106D02*
X-56475856Y024222335D01*
X-56475856Y024222335D02*
X-56470986Y024232274D01*
X-56470986Y024232274D02*
X-56456700Y024248126D01*
X-56456700Y024248126D02*
X-56441356Y024255171D01*
X-56441356Y024255171D02*
X-56418925Y024256767D01*
X-56418925Y024256767D02*
X-56404823Y024250450D01*
X-56404823Y024250450D02*
X-56397028Y024240591D01*
X-56397028Y024240591D02*
X-56390778Y024224870D01*
X-56390778Y024224870D02*
X-56386296Y024202133D01*
X-56386296Y024202133D02*
X-56383805Y024171232D01*
X-56383805Y024171232D02*
X-56383528Y024131011D01*
X-56484121Y024384769D02*
X-56296694Y024407113D01*
X-56296694Y024407113D02*
X-56427592Y024464624D01*
X-56427592Y024464624D02*
X-56294288Y024526240D01*
X-56294288Y024526240D02*
X-56484121Y024553343D01*
X-56295649Y024671365D02*
X-56479204Y024671365D01*
X-56479204Y024671365D02*
X-56484121Y024725185D01*
X-56484121Y024725185D02*
X-56482477Y024762960D01*
X-56482477Y024762960D02*
X-56477426Y024785748D01*
X-56477426Y024785748D02*
X-56473308Y024795330D01*
X-56473308Y024795330D02*
X-56467948Y024803216D01*
X-56467948Y024803216D02*
X-56461211Y024809042D01*
X-56461211Y024809042D02*
X-56442943Y024814179D01*
X-56442943Y024814179D02*
X-56426742Y024813697D01*
X-56426742Y024813697D02*
X-56415011Y024808439D01*
X-56415011Y024808439D02*
X-56406975Y024799002D01*
X-56406975Y024799002D02*
X-56401856Y024785984D01*
X-56401856Y024785984D02*
X-56397953Y024761044D01*
X-56397953Y024761044D02*
X-56394904Y024674932D01*
X-56387154Y024746445D02*
X-56294288Y024820389D01*
X-56235032Y024938410D02*
X-56235032Y025106985D01*
X-56484121Y025236354D02*
X-56294288Y025236354D01*
X-56294288Y025236354D02*
X-56294288Y025362683D01*
X-56484121Y025514474D02*
X-56294288Y025514474D01*
X-56484121Y025514474D02*
X-56484121Y025638205D01*
X-56389205Y025514474D02*
X-56389205Y025601085D01*
X-56294288Y025514474D02*
X-56294288Y025638205D01*
X-56294288Y025786920D02*
X-56480178Y025788987D01*
X-56480178Y025788987D02*
X-56484121Y025816814D01*
X-56484121Y025816814D02*
X-56483663Y025838130D01*
X-56483663Y025838130D02*
X-56474298Y025872756D01*
X-56474298Y025872756D02*
X-56454075Y025898362D01*
X-56454075Y025898362D02*
X-56426845Y025913002D01*
X-56426845Y025913002D02*
X-56398610Y025918838D01*
X-56398610Y025918838D02*
X-56377352Y025919401D01*
X-56377352Y025919401D02*
X-56359133Y025916731D01*
X-56359133Y025916731D02*
X-56343723Y025911270D01*
X-56343723Y025911270D02*
X-56320405Y025893738D01*
X-56320405Y025893738D02*
X-56305561Y025870332D01*
X-56305561Y025870332D02*
X-56295159Y025831930D01*
X-56295159Y025831930D02*
X-56294288Y025786920D01*
D18*
X-49353641Y025980000D02*
X-49046359Y025980000D01*
D18*
X-49353641Y025220000D02*
X-49046359Y025220000D01*
D19*
X-49882277Y026695649D02*
X-49882277Y026879204D01*
X-49882277Y026879204D02*
X-49828456Y026884121D01*
X-49828456Y026884121D02*
X-49790681Y026882477D01*
X-49790681Y026882477D02*
X-49767894Y026877426D01*
X-49767894Y026877426D02*
X-49758312Y026873308D01*
X-49758312Y026873308D02*
X-49750425Y026867948D01*
X-49750425Y026867948D02*
X-49744600Y026861211D01*
X-49744600Y026861211D02*
X-49739462Y026842943D01*
X-49739462Y026842943D02*
X-49739945Y026826742D01*
X-49739945Y026826742D02*
X-49745202Y026815011D01*
X-49745202Y026815011D02*
X-49754639Y026806975D01*
X-49754639Y026806975D02*
X-49767658Y026801856D01*
X-49767658Y026801856D02*
X-49792597Y026797953D01*
X-49792597Y026797953D02*
X-49878709Y026794904D01*
X-49807197Y026787154D02*
X-49733253Y026694288D01*
X-49615231Y026635032D02*
X-49446657Y026635032D01*
X-49190275Y026842443D02*
X-49198851Y026863345D01*
X-49198851Y026863345D02*
X-49214584Y026878145D01*
X-49214584Y026878145D02*
X-49244378Y026887812D01*
X-49244378Y026887812D02*
X-49266395Y026884860D01*
X-49266395Y026884860D02*
X-49285797Y026874951D01*
X-49285797Y026874951D02*
X-49304742Y026852079D01*
X-49304742Y026852079D02*
X-49317971Y026792044D01*
X-49317971Y026792044D02*
X-49307590Y026731692D01*
X-49307590Y026731692D02*
X-49292104Y026707389D01*
X-49292104Y026707389D02*
X-49276003Y026696016D01*
X-49276003Y026696016D02*
X-49244637Y026690860D01*
X-49244637Y026690860D02*
X-49217302Y026697450D01*
X-49217302Y026697450D02*
X-49197062Y026716680D01*
X-49197062Y026716680D02*
X-49190275Y026743822D01*
X-48913454Y026842443D02*
X-48922031Y026863345D01*
X-48922031Y026863345D02*
X-48937763Y026878145D01*
X-48937763Y026878145D02*
X-48967557Y026887812D01*
X-48967557Y026887812D02*
X-48989574Y026884860D01*
X-48989574Y026884860D02*
X-49008976Y026874951D01*
X-49008976Y026874951D02*
X-49027922Y026852079D01*
X-49027922Y026852079D02*
X-49041150Y026792044D01*
X-49041150Y026792044D02*
X-49030769Y026731692D01*
X-49030769Y026731692D02*
X-49015283Y026707389D01*
X-49015283Y026707389D02*
X-48999182Y026696016D01*
X-48999182Y026696016D02*
X-48967816Y026690860D01*
X-48967816Y026690860D02*
X-48940481Y026697450D01*
X-48940481Y026697450D02*
X-48920241Y026716680D01*
X-48920241Y026716680D02*
X-48913454Y026743822D01*
X-48723050Y026845634D02*
X-48677914Y026884121D01*
X-48677914Y026884121D02*
X-48677914Y026694290D01*
D18*
X-45553641Y026880000D02*
X-45246359Y026880000D01*
D18*
X-45553641Y026120000D02*
X-45246359Y026120000D01*
D19*
X-46082277Y027595649D02*
X-46082277Y027779204D01*
X-46082277Y027779204D02*
X-46028456Y027784121D01*
X-46028456Y027784121D02*
X-45990681Y027782477D01*
X-45990681Y027782477D02*
X-45967894Y027777426D01*
X-45967894Y027777426D02*
X-45958312Y027773308D01*
X-45958312Y027773308D02*
X-45950425Y027767948D01*
X-45950425Y027767948D02*
X-45944600Y027761211D01*
X-45944600Y027761211D02*
X-45939462Y027742943D01*
X-45939462Y027742943D02*
X-45939945Y027726742D01*
X-45939945Y027726742D02*
X-45945202Y027715011D01*
X-45945202Y027715011D02*
X-45954639Y027706975D01*
X-45954639Y027706975D02*
X-45967658Y027701856D01*
X-45967658Y027701856D02*
X-45992597Y027697953D01*
X-45992597Y027697953D02*
X-46078709Y027694904D01*
X-46007197Y027687154D02*
X-45933253Y027594288D01*
X-45815231Y027535032D02*
X-45646657Y027535032D01*
X-45390275Y027742443D02*
X-45398851Y027763345D01*
X-45398851Y027763345D02*
X-45414584Y027778145D01*
X-45414584Y027778145D02*
X-45444378Y027787812D01*
X-45444378Y027787812D02*
X-45466395Y027784860D01*
X-45466395Y027784860D02*
X-45485797Y027774951D01*
X-45485797Y027774951D02*
X-45504742Y027752079D01*
X-45504742Y027752079D02*
X-45517971Y027692044D01*
X-45517971Y027692044D02*
X-45507590Y027631692D01*
X-45507590Y027631692D02*
X-45492104Y027607389D01*
X-45492104Y027607389D02*
X-45476003Y027596016D01*
X-45476003Y027596016D02*
X-45444637Y027590860D01*
X-45444637Y027590860D02*
X-45417302Y027597450D01*
X-45417302Y027597450D02*
X-45397062Y027616680D01*
X-45397062Y027616680D02*
X-45390275Y027643822D01*
X-45113454Y027742443D02*
X-45122031Y027763345D01*
X-45122031Y027763345D02*
X-45137763Y027778145D01*
X-45137763Y027778145D02*
X-45167557Y027787812D01*
X-45167557Y027787812D02*
X-45189574Y027784860D01*
X-45189574Y027784860D02*
X-45208976Y027774951D01*
X-45208976Y027774951D02*
X-45227922Y027752079D01*
X-45227922Y027752079D02*
X-45241150Y027692044D01*
X-45241150Y027692044D02*
X-45230769Y027631692D01*
X-45230769Y027631692D02*
X-45215283Y027607389D01*
X-45215283Y027607389D02*
X-45199182Y027596016D01*
X-45199182Y027596016D02*
X-45167816Y027590860D01*
X-45167816Y027590860D02*
X-45140481Y027597450D01*
X-45140481Y027597450D02*
X-45120241Y027616680D01*
X-45120241Y027616680D02*
X-45113454Y027643822D01*
X-44953854Y027750206D02*
X-44949595Y027764158D01*
X-44949595Y027764158D02*
X-44937009Y027777170D01*
X-44937009Y027777170D02*
X-44916382Y027785993D01*
X-44916382Y027785993D02*
X-44903144Y027787812D01*
X-44903144Y027787812D02*
X-44880239Y027786136D01*
X-44880239Y027786136D02*
X-44863058Y027778603D01*
X-44863058Y027778603D02*
X-44853662Y027767050D01*
X-44853662Y027767050D02*
X-44850287Y027753624D01*
X-44850287Y027753624D02*
X-44850511Y027744694D01*
X-44850511Y027744694D02*
X-44854544Y027729746D01*
X-44854544Y027729746D02*
X-44872049Y027700683D01*
X-44872049Y027700683D02*
X-44916131Y027645397D01*
X-44916131Y027645397D02*
X-44962484Y027594547D01*
X-44962484Y027594547D02*
X-44838479Y027594547D01*
D18*
X-45980000Y022346359D02*
X-45980000Y022653641D01*
D18*
X-45220000Y022346359D02*
X-45220000Y022653641D01*
D19*
X-46695649Y021679313D02*
X-46879204Y021679313D01*
X-46879204Y021679313D02*
X-46884121Y021733133D01*
X-46884121Y021733133D02*
X-46882477Y021770908D01*
X-46882477Y021770908D02*
X-46877426Y021793696D01*
X-46877426Y021793696D02*
X-46873308Y021803278D01*
X-46873308Y021803278D02*
X-46867948Y021811164D01*
X-46867948Y021811164D02*
X-46861211Y021816990D01*
X-46861211Y021816990D02*
X-46842943Y021822127D01*
X-46842943Y021822127D02*
X-46826742Y021821645D01*
X-46826742Y021821645D02*
X-46815011Y021816387D01*
X-46815011Y021816387D02*
X-46806975Y021806950D01*
X-46806975Y021806950D02*
X-46801856Y021793932D01*
X-46801856Y021793932D02*
X-46797953Y021768992D01*
X-46797953Y021768992D02*
X-46794904Y021682880D01*
X-46787154Y021754393D02*
X-46694288Y021828337D01*
X-46635032Y021946358D02*
X-46635032Y022114933D01*
X-46884121Y022243345D02*
X-46778315Y022243642D01*
X-46778315Y022243642D02*
X-46749532Y022245683D01*
X-46749532Y022245683D02*
X-46728212Y022250906D01*
X-46728212Y022250906D02*
X-46711996Y022260919D01*
X-46711996Y022260919D02*
X-46701274Y022274019D01*
X-46701274Y022274019D02*
X-46693530Y022293589D01*
X-46693530Y022293589D02*
X-46690601Y022318283D01*
X-46690601Y022318283D02*
X-46693533Y022335614D01*
X-46693533Y022335614D02*
X-46701256Y022349829D01*
X-46701256Y022349829D02*
X-46710304Y022358335D01*
X-46710304Y022358335D02*
X-46716252Y022361988D01*
X-46716252Y022361988D02*
X-46731416Y022367575D01*
X-46731416Y022367575D02*
X-46751505Y022370183D01*
X-46751505Y022370183D02*
X-46883835Y022371588D01*
X-46857987Y022635250D02*
X-46885106Y022614132D01*
X-46885106Y022614132D02*
X-46887812Y022564072D01*
X-46887812Y022564072D02*
X-46868282Y022536014D01*
X-46868282Y022536014D02*
X-46832449Y022524559D01*
X-46832449Y022524559D02*
X-46814756Y022529304D01*
X-46814756Y022529304D02*
X-46799474Y022547055D01*
X-46799474Y022547055D02*
X-46787151Y022617398D01*
X-46787151Y022617398D02*
X-46772584Y022641063D01*
X-46772584Y022641063D02*
X-46747389Y022649844D01*
X-46747389Y022649844D02*
X-46707985Y022638277D01*
X-46707985Y022638277D02*
X-46690860Y022602947D01*
X-46690860Y022602947D02*
X-46692135Y022557522D01*
X-46692135Y022557522D02*
X-46706029Y022532679D01*
X-46706029Y022532679D02*
X-46738706Y022518731D01*
X-46694288Y022794731D02*
X-46881893Y022794731D01*
X-46881893Y022794731D02*
X-46884121Y022835440D01*
X-46884121Y022835440D02*
X-46877570Y022872717D01*
X-46877570Y022872717D02*
X-46855582Y022897831D01*
X-46855582Y022897831D02*
X-46823436Y022893924D01*
X-46823436Y022893924D02*
X-46806234Y022864373D01*
X-46806234Y022864373D02*
X-46798851Y022800545D01*
X-46798851Y022800545D02*
X-46794958Y022862606D01*
X-46794958Y022862606D02*
X-46778712Y022908106D01*
X-46778712Y022908106D02*
X-46753736Y022927485D01*
X-46753736Y022927485D02*
X-46721434Y022925893D01*
X-46721434Y022925893D02*
X-46707165Y022917170D01*
X-46707165Y022917170D02*
X-46695569Y022895415D01*
X-46695569Y022895415D02*
X-46694288Y022794731D01*
X-46845634Y023115361D02*
X-46884121Y023160497D01*
X-46884121Y023160497D02*
X-46694290Y023160497D01*
D18*
X-46220000Y016653641D02*
X-46220000Y016346359D01*
D18*
X-46980000Y016653641D02*
X-46980000Y016346359D01*
D19*
X-45504351Y017320687D02*
X-45320796Y017320687D01*
X-45320796Y017320687D02*
X-45315879Y017266867D01*
X-45315879Y017266867D02*
X-45317523Y017229092D01*
X-45317523Y017229092D02*
X-45322574Y017206304D01*
X-45322574Y017206304D02*
X-45326692Y017196722D01*
X-45326692Y017196722D02*
X-45332052Y017188836D01*
X-45332052Y017188836D02*
X-45338789Y017183010D01*
X-45338789Y017183010D02*
X-45357057Y017177873D01*
X-45357057Y017177873D02*
X-45373258Y017178355D01*
X-45373258Y017178355D02*
X-45384989Y017183613D01*
X-45384989Y017183613D02*
X-45393025Y017193050D01*
X-45393025Y017193050D02*
X-45398144Y017206068D01*
X-45398144Y017206068D02*
X-45402047Y017231008D01*
X-45402047Y017231008D02*
X-45405096Y017317120D01*
X-45412846Y017245607D02*
X-45505712Y017171663D01*
X-45564968Y017053642D02*
X-45564968Y016885067D01*
X-45315879Y016756655D02*
X-45421685Y016756358D01*
X-45421685Y016756358D02*
X-45450468Y016754317D01*
X-45450468Y016754317D02*
X-45471788Y016749094D01*
X-45471788Y016749094D02*
X-45488004Y016739081D01*
X-45488004Y016739081D02*
X-45498726Y016725981D01*
X-45498726Y016725981D02*
X-45506470Y016706411D01*
X-45506470Y016706411D02*
X-45509399Y016681717D01*
X-45509399Y016681717D02*
X-45506467Y016664386D01*
X-45506467Y016664386D02*
X-45498744Y016650171D01*
X-45498744Y016650171D02*
X-45489696Y016641665D01*
X-45489696Y016641665D02*
X-45483748Y016638012D01*
X-45483748Y016638012D02*
X-45468584Y016632425D01*
X-45468584Y016632425D02*
X-45448495Y016629817D01*
X-45448495Y016629817D02*
X-45316165Y016628412D01*
X-45342013Y016364750D02*
X-45314894Y016385868D01*
X-45314894Y016385868D02*
X-45312188Y016435928D01*
X-45312188Y016435928D02*
X-45331718Y016463986D01*
X-45331718Y016463986D02*
X-45367551Y016475441D01*
X-45367551Y016475441D02*
X-45385244Y016470696D01*
X-45385244Y016470696D02*
X-45400526Y016452945D01*
X-45400526Y016452945D02*
X-45412849Y016382602D01*
X-45412849Y016382602D02*
X-45427416Y016358937D01*
X-45427416Y016358937D02*
X-45452611Y016350156D01*
X-45452611Y016350156D02*
X-45492015Y016361723D01*
X-45492015Y016361723D02*
X-45509140Y016397053D01*
X-45509140Y016397053D02*
X-45507865Y016442478D01*
X-45507865Y016442478D02*
X-45493971Y016467321D01*
X-45493971Y016467321D02*
X-45461294Y016481269D01*
X-45505712Y016205269D02*
X-45318107Y016205269D01*
X-45318107Y016205269D02*
X-45315879Y016164560D01*
X-45315879Y016164560D02*
X-45322430Y016127283D01*
X-45322430Y016127283D02*
X-45344418Y016102169D01*
X-45344418Y016102169D02*
X-45376564Y016106076D01*
X-45376564Y016106076D02*
X-45393766Y016135627D01*
X-45393766Y016135627D02*
X-45401149Y016199455D01*
X-45401149Y016199455D02*
X-45405042Y016137394D01*
X-45405042Y016137394D02*
X-45421288Y016091894D01*
X-45421288Y016091894D02*
X-45446264Y016072515D01*
X-45446264Y016072515D02*
X-45478566Y016074107D01*
X-45478566Y016074107D02*
X-45492835Y016082830D01*
X-45492835Y016082830D02*
X-45504431Y016104585D01*
X-45504431Y016104585D02*
X-45505712Y016205269D01*
X-45349794Y015915444D02*
X-45335842Y015911185D01*
X-45335842Y015911185D02*
X-45322830Y015898599D01*
X-45322830Y015898599D02*
X-45314007Y015877972D01*
X-45314007Y015877972D02*
X-45312188Y015864733D01*
X-45312188Y015864733D02*
X-45313864Y015841829D01*
X-45313864Y015841829D02*
X-45321397Y015824647D01*
X-45321397Y015824647D02*
X-45332950Y015815251D01*
X-45332950Y015815251D02*
X-45346376Y015811877D01*
X-45346376Y015811877D02*
X-45355306Y015812101D01*
X-45355306Y015812101D02*
X-45370254Y015816134D01*
X-45370254Y015816134D02*
X-45399317Y015833639D01*
X-45399317Y015833639D02*
X-45454603Y015877721D01*
X-45454603Y015877721D02*
X-45505453Y015924073D01*
X-45505453Y015924073D02*
X-45505453Y015800069D01*
D10*
X-52675000Y027125000D02*
X-52675000Y024875000D01*
X-50925000Y024875000D01*
X-50925000Y027125000D01*
D19*
X-53197443Y025617673D02*
X-53218345Y025609097D01*
X-53218345Y025609097D02*
X-53233145Y025593364D01*
X-53233145Y025593364D02*
X-53242812Y025563570D01*
X-53242812Y025563570D02*
X-53239860Y025541553D01*
X-53239860Y025541553D02*
X-53229951Y025522151D01*
X-53229951Y025522151D02*
X-53207079Y025503206D01*
X-53207079Y025503206D02*
X-53147044Y025489977D01*
X-53147044Y025489977D02*
X-53086692Y025500358D01*
X-53086692Y025500358D02*
X-53062389Y025515844D01*
X-53062389Y025515844D02*
X-53051016Y025531945D01*
X-53051016Y025531945D02*
X-53045860Y025563311D01*
X-53045860Y025563311D02*
X-53052450Y025590646D01*
X-53052450Y025590646D02*
X-53071680Y025610886D01*
X-53071680Y025610886D02*
X-53098822Y025617673D01*
X-52990032Y025746358D02*
X-52990032Y025914933D01*
X-53239121Y026030972D02*
X-53049288Y026112802D01*
X-53049288Y026112802D02*
X-53239121Y026183961D01*
X-53049288Y026317910D02*
X-53236893Y026317910D01*
X-53236893Y026317910D02*
X-53239121Y026358620D01*
X-53239121Y026358620D02*
X-53232570Y026395896D01*
X-53232570Y026395896D02*
X-53210582Y026421010D01*
X-53210582Y026421010D02*
X-53178436Y026417103D01*
X-53178436Y026417103D02*
X-53161234Y026387552D01*
X-53161234Y026387552D02*
X-53153851Y026323724D01*
X-53153851Y026323724D02*
X-53149958Y026385786D01*
X-53149958Y026385786D02*
X-53133712Y026431286D01*
X-53133712Y026431286D02*
X-53108736Y026450664D01*
X-53108736Y026450664D02*
X-53076434Y026449072D01*
X-53076434Y026449072D02*
X-53062165Y026440349D01*
X-53062165Y026440349D02*
X-53050569Y026418594D01*
X-53050569Y026418594D02*
X-53049288Y026317910D01*
X-53239121Y026596987D02*
X-53133315Y026597283D01*
X-53133315Y026597283D02*
X-53104532Y026599325D01*
X-53104532Y026599325D02*
X-53083212Y026604548D01*
X-53083212Y026604548D02*
X-53066996Y026614561D01*
X-53066996Y026614561D02*
X-53056274Y026627661D01*
X-53056274Y026627661D02*
X-53048530Y026647231D01*
X-53048530Y026647231D02*
X-53045601Y026671924D01*
X-53045601Y026671924D02*
X-53048533Y026689256D01*
X-53048533Y026689256D02*
X-53056256Y026703470D01*
X-53056256Y026703470D02*
X-53065304Y026711977D01*
X-53065304Y026711977D02*
X-53071252Y026715629D01*
X-53071252Y026715629D02*
X-53086416Y026721217D01*
X-53086416Y026721217D02*
X-53106505Y026723825D01*
X-53106505Y026723825D02*
X-53238835Y026725229D01*
X-53212987Y026988892D02*
X-53240106Y026967773D01*
X-53240106Y026967773D02*
X-53242812Y026917714D01*
X-53242812Y026917714D02*
X-53223282Y026889656D01*
X-53223282Y026889656D02*
X-53187449Y026878201D01*
X-53187449Y026878201D02*
X-53169756Y026882945D01*
X-53169756Y026882945D02*
X-53154474Y026900697D01*
X-53154474Y026900697D02*
X-53142151Y026971040D01*
X-53142151Y026971040D02*
X-53127584Y026994704D01*
X-53127584Y026994704D02*
X-53102389Y027003486D01*
X-53102389Y027003486D02*
X-53062985Y026991918D01*
X-53062985Y026991918D02*
X-53045860Y026956589D01*
X-53045860Y026956589D02*
X-53047135Y026911164D01*
X-53047135Y026911164D02*
X-53061029Y026886321D01*
X-53061029Y026886321D02*
X-53093706Y026872372D01*
D10*
X-56675000Y005075000D02*
X-58925000Y005075000D01*
X-58925000Y003325000D01*
X-56675000Y003325000D01*
D19*
X-58043917Y005597443D02*
X-58052493Y005618345D01*
X-58052493Y005618345D02*
X-58068225Y005633145D01*
X-58068225Y005633145D02*
X-58098020Y005642812D01*
X-58098020Y005642812D02*
X-58120036Y005639860D01*
X-58120036Y005639860D02*
X-58139438Y005629951D01*
X-58139438Y005629951D02*
X-58158384Y005607079D01*
X-58158384Y005607079D02*
X-58171613Y005547044D01*
X-58171613Y005547044D02*
X-58161232Y005486692D01*
X-58161232Y005486692D02*
X-58145745Y005462389D01*
X-58145745Y005462389D02*
X-58129645Y005451016D01*
X-58129645Y005451016D02*
X-58098279Y005445860D01*
X-58098279Y005445860D02*
X-58070944Y005452450D01*
X-58070944Y005452450D02*
X-58050704Y005471680D01*
X-58050704Y005471680D02*
X-58043917Y005498822D01*
X-57915231Y005390032D02*
X-57746657Y005390032D01*
X-57615561Y005618380D02*
X-57605047Y005626623D01*
X-57605047Y005626623D02*
X-57588292Y005635455D01*
X-57588292Y005635455D02*
X-57566936Y005642812D01*
X-57566936Y005642812D02*
X-57540653Y005641343D01*
X-57540653Y005641343D02*
X-57517655Y005633983D01*
X-57517655Y005633983D02*
X-57501227Y005620735D01*
X-57501227Y005620735D02*
X-57491371Y005604543D01*
X-57491371Y005604543D02*
X-57494656Y005586878D01*
X-57494656Y005586878D02*
X-57507798Y005573630D01*
X-57507798Y005573630D02*
X-57530797Y005563326D01*
X-57530797Y005563326D02*
X-57557080Y005557438D01*
X-57557080Y005557438D02*
X-57580078Y005554494D01*
X-57580078Y005554494D02*
X-57557080Y005551550D01*
X-57557080Y005551550D02*
X-57530797Y005544190D01*
X-57530797Y005544190D02*
X-57507798Y005532414D01*
X-57507798Y005532414D02*
X-57493014Y005516222D01*
X-57493014Y005516222D02*
X-57489728Y005498558D01*
X-57489728Y005498558D02*
X-57496299Y005479422D01*
X-57496299Y005479422D02*
X-57511084Y005463230D01*
X-57511084Y005463230D02*
X-57534082Y005449982D01*
X-57534082Y005449982D02*
X-57551495Y005445860D01*
X-57551495Y005445860D02*
X-57579750Y005446449D01*
X-57579750Y005446449D02*
X-57602748Y005449982D01*
X-57602748Y005449982D02*
X-57618518Y005454692D01*
X-57353797Y005639121D02*
X-57271966Y005449288D01*
X-57271966Y005449288D02*
X-57200808Y005639121D01*
X-57061919Y005618380D02*
X-57051406Y005626623D01*
X-57051406Y005626623D02*
X-57034650Y005635455D01*
X-57034650Y005635455D02*
X-57013295Y005642812D01*
X-57013295Y005642812D02*
X-56987012Y005641343D01*
X-56987012Y005641343D02*
X-56964013Y005633983D01*
X-56964013Y005633983D02*
X-56947586Y005620735D01*
X-56947586Y005620735D02*
X-56937729Y005604543D01*
X-56937729Y005604543D02*
X-56941015Y005586878D01*
X-56941015Y005586878D02*
X-56954157Y005573630D01*
X-56954157Y005573630D02*
X-56977155Y005563326D01*
X-56977155Y005563326D02*
X-57003439Y005557438D01*
X-57003439Y005557438D02*
X-57026436Y005554494D01*
X-57026436Y005554494D02*
X-57003439Y005551550D01*
X-57003439Y005551550D02*
X-56977155Y005544190D01*
X-56977155Y005544190D02*
X-56954157Y005532414D01*
X-56954157Y005532414D02*
X-56939372Y005516222D01*
X-56939372Y005516222D02*
X-56936087Y005498558D01*
X-56936087Y005498558D02*
X-56942658Y005479422D01*
X-56942658Y005479422D02*
X-56957442Y005463230D01*
X-56957442Y005463230D02*
X-56980441Y005449982D01*
X-56980441Y005449982D02*
X-56997853Y005445860D01*
X-56997853Y005445860D02*
X-57026108Y005446449D01*
X-57026108Y005446449D02*
X-57049106Y005449982D01*
X-57049106Y005449982D02*
X-57064876Y005454692D01*
D10*
X-44690000Y-04780000D02*
X-46180000Y-04780000D01*
X-46180000Y-06220000D01*
X-44690000Y-06220000D01*
D19*
X-45882327Y-04257557D02*
X-45890903Y-04236655D01*
X-45890903Y-04236655D02*
X-45906636Y-04221855D01*
X-45906636Y-04221855D02*
X-45936430Y-04212188D01*
X-45936430Y-04212188D02*
X-45958447Y-04215140D01*
X-45958447Y-04215140D02*
X-45977849Y-04225049D01*
X-45977849Y-04225049D02*
X-45996794Y-04247921D01*
X-45996794Y-04247921D02*
X-46010023Y-04307956D01*
X-46010023Y-04307956D02*
X-45999642Y-04368308D01*
X-45999642Y-04368308D02*
X-45984156Y-04392611D01*
X-45984156Y-04392611D02*
X-45968055Y-04403984D01*
X-45968055Y-04403984D02*
X-45936689Y-04409140D01*
X-45936689Y-04409140D02*
X-45909354Y-04402550D01*
X-45909354Y-04402550D02*
X-45889114Y-04383320D01*
X-45889114Y-04383320D02*
X-45882327Y-04356178D01*
X-45753642Y-04464968D02*
X-45585067Y-04464968D01*
X-45328686Y-04257557D02*
X-45337262Y-04236655D01*
X-45337262Y-04236655D02*
X-45352994Y-04221855D01*
X-45352994Y-04221855D02*
X-45382788Y-04212188D01*
X-45382788Y-04212188D02*
X-45404805Y-04215140D01*
X-45404805Y-04215140D02*
X-45424207Y-04225049D01*
X-45424207Y-04225049D02*
X-45443153Y-04247921D01*
X-45443153Y-04247921D02*
X-45456381Y-04307956D01*
X-45456381Y-04307956D02*
X-45446000Y-04368308D01*
X-45446000Y-04368308D02*
X-45430514Y-04392611D01*
X-45430514Y-04392611D02*
X-45414414Y-04403984D01*
X-45414414Y-04403984D02*
X-45383048Y-04409140D01*
X-45383048Y-04409140D02*
X-45355712Y-04402550D01*
X-45355712Y-04402550D02*
X-45335472Y-04383320D01*
X-45335472Y-04383320D02*
X-45328686Y-04356178D01*
X-45119558Y-04409140D02*
X-45144440Y-04401399D01*
X-45144440Y-04401399D02*
X-45167184Y-04377846D01*
X-45167184Y-04377846D02*
X-45184004Y-04297905D01*
X-45184004Y-04297905D02*
X-45167983Y-04238071D01*
X-45167983Y-04238071D02*
X-45148326Y-04221030D01*
X-45148326Y-04221030D02*
X-45114292Y-04212188D01*
X-45114292Y-04212188D02*
X-45082249Y-04222802D01*
X-45082249Y-04222802D02*
X-45063488Y-04242201D01*
X-45063488Y-04242201D02*
X-45047422Y-04315082D01*
X-45047422Y-04315082D02*
X-45055418Y-04361095D01*
X-45055418Y-04361095D02*
X-45069667Y-04387687D01*
X-45069667Y-04387687D02*
X-45094976Y-04405800D01*
X-45094976Y-04405800D02*
X-45119558Y-04409140D01*
X-44913404Y-04404351D02*
X-44913404Y-04220796D01*
X-44913404Y-04220796D02*
X-44859584Y-04215879D01*
X-44859584Y-04215879D02*
X-44821809Y-04217523D01*
X-44821809Y-04217523D02*
X-44799021Y-04222574D01*
X-44799021Y-04222574D02*
X-44789439Y-04226692D01*
X-44789439Y-04226692D02*
X-44781553Y-04232052D01*
X-44781553Y-04232052D02*
X-44775727Y-04238789D01*
X-44775727Y-04238789D02*
X-44770590Y-04257057D01*
X-44770590Y-04257057D02*
X-44771072Y-04273258D01*
X-44771072Y-04273258D02*
X-44776330Y-04284989D01*
X-44776330Y-04284989D02*
X-44785766Y-04293025D01*
X-44785766Y-04293025D02*
X-44798785Y-04298144D01*
X-44798785Y-04298144D02*
X-44823725Y-04302047D01*
X-44823725Y-04302047D02*
X-44909836Y-04305096D01*
X-44838324Y-04312846D02*
X-44764380Y-04405712D01*
X-44623937Y-04215879D02*
X-44623937Y-04405712D01*
X-44623937Y-04215879D02*
X-44500206Y-04215879D01*
X-44623937Y-04310795D02*
X-44537325Y-04310795D01*
X-44623937Y-04405712D02*
X-44500206Y-04405712D01*
D10*
X-38690000Y019120000D02*
X-40180000Y019120000D01*
X-40180000Y017680000D01*
X-38690000Y017680000D01*
D19*
X-39743917Y019642443D02*
X-39752493Y019663345D01*
X-39752493Y019663345D02*
X-39768225Y019678145D01*
X-39768225Y019678145D02*
X-39798020Y019687812D01*
X-39798020Y019687812D02*
X-39820036Y019684860D01*
X-39820036Y019684860D02*
X-39839438Y019674951D01*
X-39839438Y019674951D02*
X-39858384Y019652079D01*
X-39858384Y019652079D02*
X-39871613Y019592044D01*
X-39871613Y019592044D02*
X-39861232Y019531692D01*
X-39861232Y019531692D02*
X-39845745Y019507389D01*
X-39845745Y019507389D02*
X-39829645Y019496016D01*
X-39829645Y019496016D02*
X-39798279Y019490860D01*
X-39798279Y019490860D02*
X-39770944Y019497450D01*
X-39770944Y019497450D02*
X-39750704Y019516680D01*
X-39750704Y019516680D02*
X-39743917Y019543822D01*
X-39615231Y019435032D02*
X-39446657Y019435032D01*
X-39318244Y019684121D02*
X-39317948Y019578315D01*
X-39317948Y019578315D02*
X-39315906Y019549532D01*
X-39315906Y019549532D02*
X-39310684Y019528212D01*
X-39310684Y019528212D02*
X-39300670Y019511996D01*
X-39300670Y019511996D02*
X-39287571Y019501274D01*
X-39287571Y019501274D02*
X-39268000Y019493530D01*
X-39268000Y019493530D02*
X-39243307Y019490601D01*
X-39243307Y019490601D02*
X-39225976Y019493533D01*
X-39225976Y019493533D02*
X-39211761Y019501256D01*
X-39211761Y019501256D02*
X-39203254Y019510304D01*
X-39203254Y019510304D02*
X-39199602Y019516252D01*
X-39199602Y019516252D02*
X-39194015Y019531416D01*
X-39194015Y019531416D02*
X-39191406Y019551505D01*
X-39191406Y019551505D02*
X-39190002Y019683835D01*
X-38926339Y019657987D02*
X-38947458Y019685106D01*
X-38947458Y019685106D02*
X-38997517Y019687812D01*
X-38997517Y019687812D02*
X-39025575Y019668282D01*
X-39025575Y019668282D02*
X-39037030Y019632449D01*
X-39037030Y019632449D02*
X-39032286Y019614756D01*
X-39032286Y019614756D02*
X-39014534Y019599474D01*
X-39014534Y019599474D02*
X-38944191Y019587151D01*
X-38944191Y019587151D02*
X-38920527Y019572584D01*
X-38920527Y019572584D02*
X-38911746Y019547389D01*
X-38911746Y019547389D02*
X-38923313Y019507985D01*
X-38923313Y019507985D02*
X-38958643Y019490860D01*
X-38958643Y019490860D02*
X-39004068Y019492135D01*
X-39004068Y019492135D02*
X-39028911Y019506029D01*
X-39028911Y019506029D02*
X-39042859Y019538706D01*
X-38766859Y019494288D02*
X-38766859Y019681893D01*
X-38766859Y019681893D02*
X-38726149Y019684121D01*
X-38726149Y019684121D02*
X-38688873Y019677570D01*
X-38688873Y019677570D02*
X-38663759Y019655582D01*
X-38663759Y019655582D02*
X-38667666Y019623436D01*
X-38667666Y019623436D02*
X-38697217Y019606234D01*
X-38697217Y019606234D02*
X-38761045Y019598851D01*
X-38761045Y019598851D02*
X-38698983Y019594958D01*
X-38698983Y019594958D02*
X-38653483Y019578712D01*
X-38653483Y019578712D02*
X-38634104Y019553736D01*
X-38634104Y019553736D02*
X-38635697Y019521434D01*
X-38635697Y019521434D02*
X-38644420Y019507165D01*
X-38644420Y019507165D02*
X-38666175Y019495569D01*
X-38666175Y019495569D02*
X-38766859Y019494288D01*
D10*
X-56890000Y-11080000D02*
X-58380000Y-11080000D01*
X-58380000Y-12520000D01*
X-56890000Y-12520000D01*
D19*
X-57943917Y-10557557D02*
X-57952493Y-10536655D01*
X-57952493Y-10536655D02*
X-57968225Y-10521855D01*
X-57968225Y-10521855D02*
X-57998020Y-10512188D01*
X-57998020Y-10512188D02*
X-58020036Y-10515140D01*
X-58020036Y-10515140D02*
X-58039438Y-10525049D01*
X-58039438Y-10525049D02*
X-58058384Y-10547921D01*
X-58058384Y-10547921D02*
X-58071613Y-10607956D01*
X-58071613Y-10607956D02*
X-58061232Y-10668308D01*
X-58061232Y-10668308D02*
X-58045745Y-10692611D01*
X-58045745Y-10692611D02*
X-58029645Y-10703984D01*
X-58029645Y-10703984D02*
X-57998279Y-10709140D01*
X-57998279Y-10709140D02*
X-57970944Y-10702550D01*
X-57970944Y-10702550D02*
X-57950704Y-10683320D01*
X-57950704Y-10683320D02*
X-57943917Y-10656178D01*
X-57815231Y-10764968D02*
X-57646657Y-10764968D01*
X-57535881Y-10515879D02*
X-57374105Y-10705712D01*
X-57372365Y-10515879D02*
X-57534142Y-10705712D01*
X-57177302Y-10515879D02*
X-57177302Y-10705712D01*
X-56965765Y-10705712D02*
X-56965765Y-10515879D01*
X-56965765Y-10515879D02*
X-56835198Y-10705712D01*
X-56835198Y-10705712D02*
X-56837760Y-10515879D01*
D10*
X-45690000Y-08280000D02*
X-47180000Y-08280000D01*
X-47180000Y-09720000D01*
X-45690000Y-09720000D01*
D19*
X-46882327Y-07757557D02*
X-46890903Y-07736655D01*
X-46890903Y-07736655D02*
X-46906636Y-07721855D01*
X-46906636Y-07721855D02*
X-46936430Y-07712188D01*
X-46936430Y-07712188D02*
X-46958447Y-07715140D01*
X-46958447Y-07715140D02*
X-46977849Y-07725049D01*
X-46977849Y-07725049D02*
X-46996794Y-07747921D01*
X-46996794Y-07747921D02*
X-47010023Y-07807956D01*
X-47010023Y-07807956D02*
X-46999642Y-07868308D01*
X-46999642Y-07868308D02*
X-46984156Y-07892611D01*
X-46984156Y-07892611D02*
X-46968055Y-07903984D01*
X-46968055Y-07903984D02*
X-46936689Y-07909140D01*
X-46936689Y-07909140D02*
X-46909354Y-07902550D01*
X-46909354Y-07902550D02*
X-46889114Y-07883320D01*
X-46889114Y-07883320D02*
X-46882327Y-07856178D01*
X-46753642Y-07964968D02*
X-46585067Y-07964968D01*
X-46474291Y-07715879D02*
X-46312515Y-07905712D01*
X-46310775Y-07715879D02*
X-46472552Y-07905712D01*
X-46119558Y-07909140D02*
X-46144440Y-07901399D01*
X-46144440Y-07901399D02*
X-46167184Y-07877846D01*
X-46167184Y-07877846D02*
X-46184004Y-07797905D01*
X-46184004Y-07797905D02*
X-46167983Y-07738071D01*
X-46167983Y-07738071D02*
X-46148326Y-07721030D01*
X-46148326Y-07721030D02*
X-46114292Y-07712188D01*
X-46114292Y-07712188D02*
X-46082249Y-07722802D01*
X-46082249Y-07722802D02*
X-46063488Y-07742201D01*
X-46063488Y-07742201D02*
X-46047422Y-07815082D01*
X-46047422Y-07815082D02*
X-46055418Y-07861095D01*
X-46055418Y-07861095D02*
X-46069667Y-07887687D01*
X-46069667Y-07887687D02*
X-46094976Y-07905800D01*
X-46094976Y-07905800D02*
X-46119558Y-07909140D01*
X-45903013Y-07715879D02*
X-45902717Y-07821685D01*
X-45902717Y-07821685D02*
X-45900675Y-07850468D01*
X-45900675Y-07850468D02*
X-45895452Y-07871788D01*
X-45895452Y-07871788D02*
X-45885439Y-07888004D01*
X-45885439Y-07888004D02*
X-45872339Y-07898726D01*
X-45872339Y-07898726D02*
X-45852769Y-07906470D01*
X-45852769Y-07906470D02*
X-45828076Y-07909399D01*
X-45828076Y-07909399D02*
X-45810744Y-07906467D01*
X-45810744Y-07906467D02*
X-45796530Y-07898744D01*
X-45796530Y-07898744D02*
X-45788023Y-07889696D01*
X-45788023Y-07889696D02*
X-45784371Y-07883748D01*
X-45784371Y-07883748D02*
X-45778783Y-07868584D01*
X-45778783Y-07868584D02*
X-45776175Y-07848495D01*
X-45776175Y-07848495D02*
X-45774771Y-07716165D01*
X-45639933Y-07715879D02*
X-45484210Y-07715879D01*
X-45559759Y-07715879D02*
X-45559759Y-07905712D01*
D10*
X-41375000Y-00975000D02*
X-41375000Y-03225000D01*
X-39625000Y-03225000D01*
X-39625000Y-00975000D01*
D19*
X-41939121Y-02609339D02*
X-41749288Y-02609339D01*
X-41749288Y-02609339D02*
X-41749288Y-02483011D01*
X-41690032Y-02353642D02*
X-41690032Y-02185067D01*
X-41749288Y-02071762D02*
X-41939121Y-01995571D01*
X-41939121Y-01995571D02*
X-41749288Y-01913305D01*
X-41823334Y-02033336D02*
X-41823334Y-01955427D01*
X-41939121Y-01792207D02*
X-41749288Y-01710377D01*
X-41749288Y-01710377D02*
X-41939121Y-01639218D01*
X-41749288Y-01505132D02*
X-41935178Y-01503065D01*
X-41935178Y-01503065D02*
X-41939121Y-01475238D01*
X-41939121Y-01475238D02*
X-41938663Y-01453922D01*
X-41938663Y-01453922D02*
X-41929298Y-01419296D01*
X-41929298Y-01419296D02*
X-41909075Y-01393690D01*
X-41909075Y-01393690D02*
X-41881845Y-01379050D01*
X-41881845Y-01379050D02*
X-41853610Y-01373214D01*
X-41853610Y-01373214D02*
X-41832352Y-01372651D01*
X-41832352Y-01372651D02*
X-41814133Y-01375321D01*
X-41814133Y-01375321D02*
X-41798723Y-01380782D01*
X-41798723Y-01380782D02*
X-41775405Y-01398314D01*
X-41775405Y-01398314D02*
X-41760561Y-01421720D01*
X-41760561Y-01421720D02*
X-41750159Y-01460122D01*
X-41750159Y-01460122D02*
X-41749288Y-01505132D01*
X-41749288Y-01228311D02*
X-41935178Y-01226244D01*
X-41935178Y-01226244D02*
X-41939121Y-01198418D01*
X-41939121Y-01198418D02*
X-41938663Y-01177101D01*
X-41938663Y-01177101D02*
X-41929298Y-01142476D01*
X-41929298Y-01142476D02*
X-41909075Y-01116869D01*
X-41909075Y-01116869D02*
X-41881845Y-01102229D01*
X-41881845Y-01102229D02*
X-41853610Y-01096393D01*
X-41853610Y-01096393D02*
X-41832352Y-01095831D01*
X-41832352Y-01095831D02*
X-41814133Y-01098500D01*
X-41814133Y-01098500D02*
X-41798723Y-01103961D01*
X-41798723Y-01103961D02*
X-41775405Y-01121493D01*
X-41775405Y-01121493D02*
X-41760561Y-01144899D01*
X-41760561Y-01144899D02*
X-41750159Y-01183302D01*
X-41750159Y-01183302D02*
X-41749288Y-01228311D01*
D19*
X-56100857Y-29885879D02*
X-55945134Y-29885879D01*
X-56020684Y-29885879D02*
X-56020684Y-30075712D01*
X-55810706Y-30075712D02*
X-55810706Y-29889461D01*
X-55810706Y-29889461D02*
X-55772491Y-29885879D01*
X-55772491Y-29885879D02*
X-55738305Y-29888118D01*
X-55738305Y-29888118D02*
X-55716075Y-29894144D01*
X-55716075Y-29894144D02*
X-55706136Y-29899014D01*
X-55706136Y-29899014D02*
X-55690284Y-29913300D01*
X-55690284Y-29913300D02*
X-55683240Y-29928644D01*
X-55683240Y-29928644D02*
X-55681644Y-29951075D01*
X-55681644Y-29951075D02*
X-55687961Y-29965177D01*
X-55687961Y-29965177D02*
X-55697820Y-29972972D01*
X-55697820Y-29972972D02*
X-55713541Y-29979222D01*
X-55713541Y-29979222D02*
X-55736277Y-29983704D01*
X-55736277Y-29983704D02*
X-55767178Y-29986195D01*
X-55767178Y-29986195D02*
X-55807399Y-29986472D01*
X-55553642Y-30134968D02*
X-55385067Y-30134968D01*
X-55141570Y-29912013D02*
X-55162689Y-29884894D01*
X-55162689Y-29884894D02*
X-55212748Y-29882188D01*
X-55212748Y-29882188D02*
X-55240806Y-29901718D01*
X-55240806Y-29901718D02*
X-55252261Y-29937551D01*
X-55252261Y-29937551D02*
X-55247517Y-29955244D01*
X-55247517Y-29955244D02*
X-55229766Y-29970526D01*
X-55229766Y-29970526D02*
X-55159422Y-29982849D01*
X-55159422Y-29982849D02*
X-55135758Y-29997416D01*
X-55135758Y-29997416D02*
X-55126977Y-30022611D01*
X-55126977Y-30022611D02*
X-55138544Y-30062015D01*
X-55138544Y-30062015D02*
X-55173874Y-30079140D01*
X-55173874Y-30079140D02*
X-55219299Y-30077865D01*
X-55219299Y-30077865D02*
X-55244142Y-30063971D01*
X-55244142Y-30063971D02*
X-55258090Y-30031294D01*
X-55000000Y-29885879D02*
X-54977656Y-30073306D01*
X-54977656Y-30073306D02*
X-54920145Y-29942408D01*
X-54920145Y-29942408D02*
X-54858529Y-30075712D01*
X-54858529Y-30075712D02*
X-54831425Y-29885879D01*
X-54575044Y-29927557D02*
X-54583620Y-29906655D01*
X-54583620Y-29906655D02*
X-54599353Y-29891855D01*
X-54599353Y-29891855D02*
X-54629147Y-29882188D01*
X-54629147Y-29882188D02*
X-54651163Y-29885140D01*
X-54651163Y-29885140D02*
X-54670566Y-29895049D01*
X-54670566Y-29895049D02*
X-54689511Y-29917921D01*
X-54689511Y-29917921D02*
X-54702740Y-29977956D01*
X-54702740Y-29977956D02*
X-54692359Y-30038308D01*
X-54692359Y-30038308D02*
X-54676873Y-30062611D01*
X-54676873Y-30062611D02*
X-54660772Y-30073984D01*
X-54660772Y-30073984D02*
X-54629406Y-30079140D01*
X-54629406Y-30079140D02*
X-54602071Y-30072550D01*
X-54602071Y-30072550D02*
X-54581831Y-30053320D01*
X-54581831Y-30053320D02*
X-54575044Y-30026178D01*
X-54425235Y-29885879D02*
X-54425235Y-30075712D01*
X-54425235Y-30075712D02*
X-54298907Y-30075712D01*
X-54159625Y-29885879D02*
X-54159625Y-30075712D01*
X-54028905Y-29898534D02*
X-54159625Y-30002590D01*
X-54110042Y-29973061D02*
X-54010875Y-30071493D01*
D19*
X-51824037Y-29885879D02*
X-51668314Y-29885879D01*
X-51743863Y-29885879D02*
X-51743863Y-30075712D01*
X-51533886Y-30075712D02*
X-51533886Y-29889461D01*
X-51533886Y-29889461D02*
X-51495670Y-29885879D01*
X-51495670Y-29885879D02*
X-51461484Y-29888118D01*
X-51461484Y-29888118D02*
X-51439255Y-29894144D01*
X-51439255Y-29894144D02*
X-51429315Y-29899014D01*
X-51429315Y-29899014D02*
X-51413463Y-29913300D01*
X-51413463Y-29913300D02*
X-51406419Y-29928644D01*
X-51406419Y-29928644D02*
X-51404823Y-29951075D01*
X-51404823Y-29951075D02*
X-51411140Y-29965177D01*
X-51411140Y-29965177D02*
X-51420999Y-29972972D01*
X-51420999Y-29972972D02*
X-51436720Y-29979222D01*
X-51436720Y-29979222D02*
X-51459457Y-29983704D01*
X-51459457Y-29983704D02*
X-51490358Y-29986195D01*
X-51490358Y-29986195D02*
X-51530579Y-29986472D01*
X-51276821Y-30134968D02*
X-51108246Y-30134968D01*
X-50860550Y-29889784D02*
X-50895106Y-29882188D01*
X-50895106Y-29882188D02*
X-50931619Y-29885221D01*
X-50931619Y-29885221D02*
X-50955038Y-29897359D01*
X-50955038Y-29897359D02*
X-50973524Y-29921472D01*
X-50973524Y-29921472D02*
X-50984209Y-29973531D01*
X-50984209Y-29973531D02*
X-50978509Y-30029949D01*
X-50978509Y-30029949D02*
X-50966158Y-30050295D01*
X-50966158Y-30050295D02*
X-50947095Y-30066686D01*
X-50947095Y-30066686D02*
X-50924118Y-30077005D01*
X-50924118Y-30077005D02*
X-50900021Y-30079140D01*
X-50900021Y-30079140D02*
X-50877598Y-30070973D01*
X-50877598Y-30070973D02*
X-50859647Y-30050391D01*
X-50859647Y-30050391D02*
X-50847216Y-29991611D01*
X-50847216Y-29991611D02*
X-50907713Y-29991477D01*
X-50704175Y-30075712D02*
X-50704175Y-29885879D01*
X-50704175Y-29885879D02*
X-50573609Y-30075712D01*
X-50573609Y-30075712D02*
X-50576171Y-29885879D01*
X-50428311Y-30075712D02*
X-50426244Y-29889822D01*
X-50426244Y-29889822D02*
X-50398418Y-29885879D01*
X-50398418Y-29885879D02*
X-50377101Y-29886337D01*
X-50377101Y-29886337D02*
X-50342476Y-29895702D01*
X-50342476Y-29895702D02*
X-50316869Y-29915925D01*
X-50316869Y-29915925D02*
X-50302229Y-29943155D01*
X-50302229Y-29943155D02*
X-50296393Y-29971390D01*
X-50296393Y-29971390D02*
X-50295831Y-29992648D01*
X-50295831Y-29992648D02*
X-50298500Y-30010867D01*
X-50298500Y-30010867D02*
X-50303961Y-30026277D01*
X-50303961Y-30026277D02*
X-50321493Y-30049595D01*
X-50321493Y-30049595D02*
X-50344899Y-30064439D01*
X-50344899Y-30064439D02*
X-50383302Y-30074841D01*
X-50383302Y-30074841D02*
X-50428311Y-30075712D01*
D19*
X-48100857Y-29885879D02*
X-47945134Y-29885879D01*
X-48020684Y-29885879D02*
X-48020684Y-30075712D01*
X-47810706Y-30075712D02*
X-47810706Y-29889461D01*
X-47810706Y-29889461D02*
X-47772491Y-29885879D01*
X-47772491Y-29885879D02*
X-47738305Y-29888118D01*
X-47738305Y-29888118D02*
X-47716075Y-29894144D01*
X-47716075Y-29894144D02*
X-47706136Y-29899014D01*
X-47706136Y-29899014D02*
X-47690284Y-29913300D01*
X-47690284Y-29913300D02*
X-47683240Y-29928644D01*
X-47683240Y-29928644D02*
X-47681644Y-29951075D01*
X-47681644Y-29951075D02*
X-47687961Y-29965177D01*
X-47687961Y-29965177D02*
X-47697820Y-29972972D01*
X-47697820Y-29972972D02*
X-47713541Y-29979222D01*
X-47713541Y-29979222D02*
X-47736277Y-29983704D01*
X-47736277Y-29983704D02*
X-47767178Y-29986195D01*
X-47767178Y-29986195D02*
X-47807399Y-29986472D01*
X-47553642Y-30134968D02*
X-47385067Y-30134968D01*
X-47141570Y-29912013D02*
X-47162689Y-29884894D01*
X-47162689Y-29884894D02*
X-47212748Y-29882188D01*
X-47212748Y-29882188D02*
X-47240806Y-29901718D01*
X-47240806Y-29901718D02*
X-47252261Y-29937551D01*
X-47252261Y-29937551D02*
X-47247517Y-29955244D01*
X-47247517Y-29955244D02*
X-47229766Y-29970526D01*
X-47229766Y-29970526D02*
X-47159422Y-29982849D01*
X-47159422Y-29982849D02*
X-47135758Y-29997416D01*
X-47135758Y-29997416D02*
X-47126977Y-30022611D01*
X-47126977Y-30022611D02*
X-47138544Y-30062015D01*
X-47138544Y-30062015D02*
X-47173874Y-30079140D01*
X-47173874Y-30079140D02*
X-47219299Y-30077865D01*
X-47219299Y-30077865D02*
X-47244142Y-30063971D01*
X-47244142Y-30063971D02*
X-47258090Y-30031294D01*
X-47000000Y-29885879D02*
X-46977656Y-30073306D01*
X-46977656Y-30073306D02*
X-46920145Y-29942408D01*
X-46920145Y-29942408D02*
X-46858529Y-30075712D01*
X-46858529Y-30075712D02*
X-46831425Y-29885879D01*
X-46705132Y-30075712D02*
X-46703065Y-29889822D01*
X-46703065Y-29889822D02*
X-46675238Y-29885879D01*
X-46675238Y-29885879D02*
X-46653922Y-29886337D01*
X-46653922Y-29886337D02*
X-46619296Y-29895702D01*
X-46619296Y-29895702D02*
X-46593690Y-29915925D01*
X-46593690Y-29915925D02*
X-46579050Y-29943155D01*
X-46579050Y-29943155D02*
X-46573214Y-29971390D01*
X-46573214Y-29971390D02*
X-46572651Y-29992648D01*
X-46572651Y-29992648D02*
X-46575321Y-30010867D01*
X-46575321Y-30010867D02*
X-46580782Y-30026277D01*
X-46580782Y-30026277D02*
X-46598314Y-30049595D01*
X-46598314Y-30049595D02*
X-46621720Y-30064439D01*
X-46621720Y-30064439D02*
X-46660122Y-30074841D01*
X-46660122Y-30074841D02*
X-46705132Y-30075712D01*
X-46362071Y-29885879D02*
X-46362071Y-30075712D01*
X-46089096Y-30079140D02*
X-46113977Y-30071399D01*
X-46113977Y-30071399D02*
X-46136722Y-30047846D01*
X-46136722Y-30047846D02*
X-46153541Y-29967905D01*
X-46153541Y-29967905D02*
X-46137520Y-29908071D01*
X-46137520Y-29908071D02*
X-46117864Y-29891030D01*
X-46117864Y-29891030D02*
X-46083829Y-29882188D01*
X-46083829Y-29882188D02*
X-46051786Y-29892802D01*
X-46051786Y-29892802D02*
X-46033026Y-29912201D01*
X-46033026Y-29912201D02*
X-46016959Y-29985082D01*
X-46016959Y-29985082D02*
X-46024955Y-30031095D01*
X-46024955Y-30031095D02*
X-46039204Y-30057687D01*
X-46039204Y-30057687D02*
X-46064514Y-30075800D01*
X-46064514Y-30075800D02*
X-46089096Y-30079140D01*
D19*
X-43824037Y-29885879D02*
X-43668314Y-29885879D01*
X-43743863Y-29885879D02*
X-43743863Y-30075712D01*
X-43533886Y-30075712D02*
X-43533886Y-29889461D01*
X-43533886Y-29889461D02*
X-43495670Y-29885879D01*
X-43495670Y-29885879D02*
X-43461484Y-29888118D01*
X-43461484Y-29888118D02*
X-43439255Y-29894144D01*
X-43439255Y-29894144D02*
X-43429315Y-29899014D01*
X-43429315Y-29899014D02*
X-43413463Y-29913300D01*
X-43413463Y-29913300D02*
X-43406419Y-29928644D01*
X-43406419Y-29928644D02*
X-43404823Y-29951075D01*
X-43404823Y-29951075D02*
X-43411140Y-29965177D01*
X-43411140Y-29965177D02*
X-43420999Y-29972972D01*
X-43420999Y-29972972D02*
X-43436720Y-29979222D01*
X-43436720Y-29979222D02*
X-43459457Y-29983704D01*
X-43459457Y-29983704D02*
X-43490358Y-29986195D01*
X-43490358Y-29986195D02*
X-43530579Y-29986472D01*
X-43276821Y-30134968D02*
X-43108246Y-30134968D01*
X-42977150Y-29906620D02*
X-42966637Y-29898377D01*
X-42966637Y-29898377D02*
X-42949881Y-29889545D01*
X-42949881Y-29889545D02*
X-42928526Y-29882188D01*
X-42928526Y-29882188D02*
X-42902243Y-29883657D01*
X-42902243Y-29883657D02*
X-42879244Y-29891017D01*
X-42879244Y-29891017D02*
X-42862817Y-29904265D01*
X-42862817Y-29904265D02*
X-42852961Y-29920457D01*
X-42852961Y-29920457D02*
X-42856246Y-29938122D01*
X-42856246Y-29938122D02*
X-42869388Y-29951370D01*
X-42869388Y-29951370D02*
X-42892386Y-29961674D01*
X-42892386Y-29961674D02*
X-42918670Y-29967562D01*
X-42918670Y-29967562D02*
X-42941668Y-29970506D01*
X-42941668Y-29970506D02*
X-42918670Y-29973450D01*
X-42918670Y-29973450D02*
X-42892386Y-29980810D01*
X-42892386Y-29980810D02*
X-42869388Y-29992586D01*
X-42869388Y-29992586D02*
X-42854603Y-30008778D01*
X-42854603Y-30008778D02*
X-42851318Y-30026442D01*
X-42851318Y-30026442D02*
X-42857889Y-30045578D01*
X-42857889Y-30045578D02*
X-42872673Y-30061770D01*
X-42872673Y-30061770D02*
X-42895672Y-30075018D01*
X-42895672Y-30075018D02*
X-42913085Y-30079140D01*
X-42913085Y-30079140D02*
X-42941339Y-30078551D01*
X-42941339Y-30078551D02*
X-42964337Y-30075018D01*
X-42964337Y-30075018D02*
X-42980107Y-30070308D01*
X-42715386Y-29885879D02*
X-42633556Y-30075712D01*
X-42633556Y-30075712D02*
X-42562398Y-29885879D01*
X-42423509Y-29906620D02*
X-42412995Y-29898377D01*
X-42412995Y-29898377D02*
X-42396240Y-29889545D01*
X-42396240Y-29889545D02*
X-42374884Y-29882188D01*
X-42374884Y-29882188D02*
X-42348601Y-29883657D01*
X-42348601Y-29883657D02*
X-42325603Y-29891017D01*
X-42325603Y-29891017D02*
X-42309175Y-29904265D01*
X-42309175Y-29904265D02*
X-42299319Y-29920457D01*
X-42299319Y-29920457D02*
X-42302604Y-29938122D01*
X-42302604Y-29938122D02*
X-42315746Y-29951370D01*
X-42315746Y-29951370D02*
X-42338745Y-29961674D01*
X-42338745Y-29961674D02*
X-42365028Y-29967562D01*
X-42365028Y-29967562D02*
X-42388026Y-29970506D01*
X-42388026Y-29970506D02*
X-42365028Y-29973450D01*
X-42365028Y-29973450D02*
X-42338745Y-29980810D01*
X-42338745Y-29980810D02*
X-42315746Y-29992586D01*
X-42315746Y-29992586D02*
X-42300962Y-30008778D01*
X-42300962Y-30008778D02*
X-42297676Y-30026442D01*
X-42297676Y-30026442D02*
X-42304247Y-30045578D01*
X-42304247Y-30045578D02*
X-42319032Y-30061770D01*
X-42319032Y-30061770D02*
X-42342030Y-30075018D01*
X-42342030Y-30075018D02*
X-42359443Y-30079140D01*
X-42359443Y-30079140D02*
X-42387698Y-30078551D01*
X-42387698Y-30078551D02*
X-42410696Y-30075018D01*
X-42410696Y-30075018D02*
X-42426466Y-30070308D01*
D59*
X-38071463Y013748577D02*
X-38071463Y014123786D01*
X-38071463Y014123786D02*
X-37990044Y014128242D01*
X-37990044Y014128242D02*
X-37915491Y014115139D01*
X-37915491Y014115139D02*
X-37865263Y014071165D01*
X-37865263Y014071165D02*
X-37873078Y014006871D01*
X-37873078Y014006871D02*
X-37932179Y013972467D01*
X-37932179Y013972467D02*
X-38059836Y013957703D01*
X-38059836Y013957703D02*
X-37935712Y013949917D01*
X-37935712Y013949917D02*
X-37844712Y013917425D01*
X-37844712Y013917425D02*
X-37805954Y013867472D01*
X-37805954Y013867472D02*
X-37809139Y013802869D01*
X-37809139Y013802869D02*
X-37826585Y013774330D01*
X-37826585Y013774330D02*
X-37870095Y013751137D01*
X-37870095Y013751137D02*
X-38071463Y013748577D01*
X-37392758Y013741720D02*
X-37442521Y013757202D01*
X-37442521Y013757202D02*
X-37488010Y013804307D01*
X-37488010Y013804307D02*
X-37521649Y013964191D01*
X-37521649Y013964191D02*
X-37489607Y014083857D01*
X-37489607Y014083857D02*
X-37450294Y014117940D01*
X-37450294Y014117940D02*
X-37382225Y014135625D01*
X-37382225Y014135625D02*
X-37318139Y014114397D01*
X-37318139Y014114397D02*
X-37280618Y014075598D01*
X-37280618Y014075598D02*
X-37248485Y013929835D01*
X-37248485Y013929835D02*
X-37264477Y013837811D01*
X-37264477Y013837811D02*
X-37292975Y013784626D01*
X-37292975Y013784626D02*
X-37343595Y013748399D01*
X-37343595Y013748399D02*
X-37392758Y013741720D01*
X-36839116Y013741720D02*
X-36888879Y013757202D01*
X-36888879Y013757202D02*
X-36934368Y013804307D01*
X-36934368Y013804307D02*
X-36968008Y013964191D01*
X-36968008Y013964191D02*
X-36935965Y014083857D01*
X-36935965Y014083857D02*
X-36896652Y014117940D01*
X-36896652Y014117940D02*
X-36828583Y014135625D01*
X-36828583Y014135625D02*
X-36764498Y014114397D01*
X-36764498Y014114397D02*
X-36726976Y014075598D01*
X-36726976Y014075598D02*
X-36694843Y013929835D01*
X-36694843Y013929835D02*
X-36710835Y013837811D01*
X-36710835Y013837811D02*
X-36739333Y013784626D01*
X-36739333Y013784626D02*
X-36789953Y013748399D01*
X-36789953Y013748399D02*
X-36839116Y013741720D01*
X-36433507Y014128242D02*
X-36122061Y014128242D01*
X-36273159Y014128242D02*
X-36273159Y013748577D01*
D59*
X-61810912Y-30248703D02*
X-61810912Y-29881591D01*
X-61810912Y-29881591D02*
X-61703271Y-29871758D01*
X-61703271Y-29871758D02*
X-61627721Y-29875046D01*
X-61627721Y-29875046D02*
X-61582146Y-29885148D01*
X-61582146Y-29885148D02*
X-61562982Y-29893384D01*
X-61562982Y-29893384D02*
X-61547209Y-29904104D01*
X-61547209Y-29904104D02*
X-61535557Y-29917578D01*
X-61535557Y-29917578D02*
X-61525283Y-29954114D01*
X-61525283Y-29954114D02*
X-61526247Y-29986516D01*
X-61526247Y-29986516D02*
X-61536763Y-30009978D01*
X-61536763Y-30009978D02*
X-61555637Y-30026050D01*
X-61555637Y-30026050D02*
X-61581674Y-30036287D01*
X-61581674Y-30036287D02*
X-61631553Y-30044094D01*
X-61631553Y-30044094D02*
X-61803777Y-30050191D01*
X-61660752Y-30065691D02*
X-61512864Y-30251423D01*
X-61236488Y-29871758D02*
X-61235896Y-30083370D01*
X-61235896Y-30083370D02*
X-61231812Y-30140935D01*
X-61231812Y-30140935D02*
X-61221367Y-30183575D01*
X-61221367Y-30183575D02*
X-61201341Y-30216008D01*
X-61201341Y-30216008D02*
X-61175141Y-30237453D01*
X-61175141Y-30237453D02*
X-61136001Y-30252941D01*
X-61136001Y-30252941D02*
X-61086614Y-30258798D01*
X-61086614Y-30258798D02*
X-61051951Y-30252934D01*
X-61051951Y-30252934D02*
X-61023522Y-30237488D01*
X-61023522Y-30237488D02*
X-61006508Y-30219392D01*
X-61006508Y-30219392D02*
X-60999204Y-30207496D01*
X-60999204Y-30207496D02*
X-60988029Y-30177167D01*
X-60988029Y-30177167D02*
X-60982813Y-30136991D01*
X-60982813Y-30136991D02*
X-60980003Y-29872330D01*
X-60685171Y-30251423D02*
X-60685171Y-29871758D01*
X-60685171Y-29871758D02*
X-60424038Y-30251423D01*
X-60424038Y-30251423D02*
X-60429162Y-29871758D01*
D59*
X-59590950Y027148577D02*
X-59590950Y027521078D01*
X-59590950Y027521078D02*
X-59514520Y027528242D01*
X-59514520Y027528242D02*
X-59446147Y027523764D01*
X-59446147Y027523764D02*
X-59401688Y027511712D01*
X-59401688Y027511712D02*
X-59381810Y027501972D01*
X-59381810Y027501972D02*
X-59350106Y027473400D01*
X-59350106Y027473400D02*
X-59336017Y027442712D01*
X-59336017Y027442712D02*
X-59332825Y027397850D01*
X-59332825Y027397850D02*
X-59345459Y027369645D01*
X-59345459Y027369645D02*
X-59365177Y027354056D01*
X-59365177Y027354056D02*
X-59396619Y027341556D01*
X-59396619Y027341556D02*
X-59442092Y027332592D01*
X-59442092Y027332592D02*
X-59503895Y027327610D01*
X-59503895Y027327610D02*
X-59584336Y027327056D01*
X-59076821Y027528242D02*
X-59032133Y027153389D01*
X-59032133Y027153389D02*
X-58917110Y027415185D01*
X-58917110Y027415185D02*
X-58793878Y027148577D01*
X-58793878Y027148577D02*
X-58739672Y027528242D01*
X-58503628Y027151297D02*
X-58503628Y027518409D01*
X-58503628Y027518409D02*
X-58395988Y027528242D01*
X-58395988Y027528242D02*
X-58320438Y027524954D01*
X-58320438Y027524954D02*
X-58274862Y027514852D01*
X-58274862Y027514852D02*
X-58255699Y027506616D01*
X-58255699Y027506616D02*
X-58239926Y027495896D01*
X-58239926Y027495896D02*
X-58228274Y027482422D01*
X-58228274Y027482422D02*
X-58218000Y027445886D01*
X-58218000Y027445886D02*
X-58218964Y027413484D01*
X-58218964Y027413484D02*
X-58229480Y027390022D01*
X-58229480Y027390022D02*
X-58248354Y027373950D01*
X-58248354Y027373950D02*
X-58274391Y027363713D01*
X-58274391Y027363713D02*
X-58324270Y027355906D01*
X-58324270Y027355906D02*
X-58496494Y027349809D01*
X-58353469Y027334309D02*
X-58205581Y027148577D01*
D60*
X-50511743Y025144273D02*
X-50511077Y024906209D01*
X-50511077Y024906209D02*
X-50506483Y024841448D01*
X-50506483Y024841448D02*
X-50494732Y024793478D01*
X-50494732Y024793478D02*
X-50472202Y024756991D01*
X-50472202Y024756991D02*
X-50442727Y024732866D01*
X-50442727Y024732866D02*
X-50398695Y024715442D01*
X-50398695Y024715442D02*
X-50343134Y024708852D01*
X-50343134Y024708852D02*
X-50304139Y024715449D01*
X-50304139Y024715449D02*
X-50272155Y024732826D01*
X-50272155Y024732826D02*
X-50253015Y024753184D01*
X-50253015Y024753184D02*
X-50244798Y024766567D01*
X-50244798Y024766567D02*
X-50232227Y024800687D01*
X-50232227Y024800687D02*
X-50226358Y024845886D01*
X-50226358Y024845886D02*
X-50223197Y025143629D01*
X-49629957Y025085470D02*
X-49677474Y025146489D01*
X-49677474Y025146489D02*
X-49790107Y025152578D01*
X-49790107Y025152578D02*
X-49853238Y025108634D01*
X-49853238Y025108634D02*
X-49879012Y025028010D01*
X-49879012Y025028010D02*
X-49868337Y024988202D01*
X-49868337Y024988202D02*
X-49828396Y024953817D01*
X-49828396Y024953817D02*
X-49670124Y024926090D01*
X-49670124Y024926090D02*
X-49616879Y024893315D01*
X-49616879Y024893315D02*
X-49597121Y024836626D01*
X-49597121Y024836626D02*
X-49623147Y024747965D01*
X-49623147Y024747965D02*
X-49702639Y024709435D01*
X-49702639Y024709435D02*
X-49804846Y024712304D01*
X-49804846Y024712304D02*
X-49860742Y024743566D01*
X-49860742Y024743566D02*
X-49892126Y024817090D01*
X-49271125Y024717149D02*
X-49271125Y025139260D01*
X-49271125Y025139260D02*
X-49179529Y025144273D01*
X-49179529Y025144273D02*
X-49095657Y025129532D01*
X-49095657Y025129532D02*
X-49039151Y025080060D01*
X-49039151Y025080060D02*
X-49047942Y025007730D01*
X-49047942Y025007730D02*
X-49114431Y024969025D01*
X-49114431Y024969025D02*
X-49258045Y024952415D01*
X-49258045Y024952415D02*
X-49118406Y024943657D01*
X-49118406Y024943657D02*
X-49016031Y024907103D01*
X-49016031Y024907103D02*
X-48972429Y024850905D01*
X-48972429Y024850905D02*
X-48976011Y024778227D01*
X-48976011Y024778227D02*
X-48995638Y024746121D01*
X-48995638Y024746121D02*
X-49044587Y024720029D01*
X-49044587Y024720029D02*
X-49271125Y024717149D01*
X-48579064Y024882798D02*
X-48418795Y024882798D01*
X-47732426Y025050496D02*
X-47751722Y025097527D01*
X-47751722Y025097527D02*
X-47787120Y025130825D01*
X-47787120Y025130825D02*
X-47854157Y025152578D01*
X-47854157Y025152578D02*
X-47903694Y025145935D01*
X-47903694Y025145935D02*
X-47947349Y025123639D01*
X-47947349Y025123639D02*
X-47989977Y025072178D01*
X-47989977Y025072178D02*
X-48019741Y024937098D01*
X-48019741Y024937098D02*
X-47996384Y024801307D01*
X-47996384Y024801307D02*
X-47961540Y024746625D01*
X-47961540Y024746625D02*
X-47925314Y024721035D01*
X-47925314Y024721035D02*
X-47854740Y024709435D01*
X-47854740Y024709435D02*
X-47793236Y024724262D01*
X-47793236Y024724262D02*
X-47747696Y024767531D01*
X-47747696Y024767531D02*
X-47732426Y024828599D01*
D61*
X-11313471Y010235721D02*
X-11313471Y010710303D01*
X-11313471Y010710303D02*
X-11132489Y010401256D01*
X-11132489Y010401256D02*
X-10951508Y010710303D01*
X-10951508Y010710303D02*
X-10951508Y010235721D01*
X-10450051Y010227150D02*
X-10512255Y010246503D01*
X-10512255Y010246503D02*
X-10569116Y010305384D01*
X-10569116Y010305384D02*
X-10611166Y010505239D01*
X-10611166Y010505239D02*
X-10571112Y010654822D01*
X-10571112Y010654822D02*
X-10521971Y010697426D01*
X-10521971Y010697426D02*
X-10436885Y010719531D01*
X-10436885Y010719531D02*
X-10356778Y010692996D01*
X-10356778Y010692996D02*
X-10309876Y010644498D01*
X-10309876Y010644498D02*
X-10269710Y010462294D01*
X-10269710Y010462294D02*
X-10289700Y010347263D01*
X-10289700Y010347263D02*
X-10325323Y010280783D01*
X-10325323Y010280783D02*
X-10388597Y010235499D01*
X-10388597Y010235499D02*
X-10450051Y010227150D01*
X-09939622Y010710303D02*
X-09735046Y010235721D01*
X-09735046Y010235721D02*
X-09557150Y010710303D01*
X-09210997Y010710303D02*
X-09210997Y010235721D01*
X-09210997Y010710303D02*
X-08901670Y010710303D01*
X-09210997Y010473013D02*
X-08994469Y010473013D01*
X-09210997Y010235721D02*
X-08901670Y010235721D01*
X-08545263Y010235721D02*
X-08545263Y010710303D01*
X-08545263Y010710303D02*
X-08364281Y010401256D01*
X-08364281Y010401256D02*
X-08183300Y010710303D01*
X-08183300Y010710303D02*
X-08183300Y010235721D01*
X-07826893Y010710303D02*
X-07826893Y010235721D01*
X-07826893Y010710303D02*
X-07517566Y010710303D01*
X-07826893Y010473013D02*
X-07610365Y010473013D01*
X-07826893Y010235721D02*
X-07517566Y010235721D01*
X-07143386Y010235721D02*
X-07143386Y010710303D01*
X-07143386Y010710303D02*
X-06816969Y010235721D01*
X-06816969Y010235721D02*
X-06823374Y010710303D01*
X-06482780Y010710303D02*
X-06093472Y010710303D01*
X-06282345Y010710303D02*
X-06282345Y010235721D01*
D61*
X009106960Y010710303D02*
X009496268Y010710303D01*
X009307395Y010710303D02*
X009307395Y010235721D01*
X009795595Y010710303D02*
X009988140Y010498106D01*
X010191738Y010709629D02*
X009989416Y010496758D01*
X009989416Y010496758D02*
X009996642Y010235721D01*
X010524390Y010235721D02*
X010524390Y010701347D01*
X010524390Y010701347D02*
X010619928Y010710303D01*
X010619928Y010710303D02*
X010705394Y010704705D01*
X010705394Y010704705D02*
X010760968Y010689640D01*
X010760968Y010689640D02*
X010785815Y010677464D01*
X010785815Y010677464D02*
X010825446Y010641750D01*
X010825446Y010641750D02*
X010843057Y010603390D01*
X010843057Y010603390D02*
X010847047Y010547312D01*
X010847047Y010547312D02*
X010831254Y010512057D01*
X010831254Y010512057D02*
X010806607Y010492570D01*
X010806607Y010492570D02*
X010767304Y010476945D01*
X010767304Y010476945D02*
X010710463Y010465740D01*
X010710463Y010465740D02*
X010633210Y010459512D01*
X010633210Y010459512D02*
X010532658Y010458819D01*
X011223107Y010710303D02*
X011223107Y010235721D01*
X011223107Y010710303D02*
X011532434Y010710303D01*
X011223107Y010473013D02*
X011439636Y010473013D01*
X011223107Y010235721D02*
X011532434Y010235721D01*
D61*
X026460156Y010235721D02*
X026460156Y010701347D01*
X026460156Y010701347D02*
X026555694Y010710303D01*
X026555694Y010710303D02*
X026641160Y010704705D01*
X026641160Y010704705D02*
X026696734Y010689640D01*
X026696734Y010689640D02*
X026721581Y010677464D01*
X026721581Y010677464D02*
X026761212Y010641750D01*
X026761212Y010641750D02*
X026778823Y010603390D01*
X026778823Y010603390D02*
X026782813Y010547312D01*
X026782813Y010547312D02*
X026767020Y010512057D01*
X026767020Y010512057D02*
X026742373Y010492570D01*
X026742373Y010492570D02*
X026703070Y010476945D01*
X026703070Y010476945D02*
X026646229Y010465740D01*
X026646229Y010465740D02*
X026568976Y010459512D01*
X026568976Y010459512D02*
X026468424Y010458819D01*
X027127256Y010239122D02*
X027127256Y010698011D01*
X027127256Y010698011D02*
X027261807Y010710303D01*
X027261807Y010710303D02*
X027356245Y010706193D01*
X027356245Y010706193D02*
X027413214Y010693565D01*
X027413214Y010693565D02*
X027437169Y010683270D01*
X027437169Y010683270D02*
X027456884Y010669870D01*
X027456884Y010669870D02*
X027471449Y010653028D01*
X027471449Y010653028D02*
X027484292Y010607357D01*
X027484292Y010607357D02*
X027483087Y010566855D01*
X027483087Y010566855D02*
X027469942Y010537528D01*
X027469942Y010537528D02*
X027446350Y010517437D01*
X027446350Y010517437D02*
X027413804Y010504641D01*
X027413804Y010504641D02*
X027351455Y010494883D01*
X027351455Y010494883D02*
X027136175Y010487261D01*
X027314956Y010467886D02*
X027499816Y010235721D01*
X027850925Y010710303D02*
X027850925Y010235721D01*
X027850925Y010710303D02*
X028160252Y010710303D01*
X027850925Y010473013D02*
X028067454Y010473013D01*
X027850925Y010235721D02*
X028160252Y010235721D01*
X028506404Y010710303D02*
X028710980Y010235721D01*
X028710980Y010235721D02*
X028888876Y010710303D01*
X029923834Y010710303D02*
X029923834Y010235721D01*
X029923834Y010235721D02*
X030239655Y010235721D01*
X030773796Y010710303D02*
X030773796Y010235721D01*
X031302640Y010235721D02*
X031302640Y010710303D01*
X031302640Y010710303D02*
X031629057Y010235721D01*
X031629057Y010235721D02*
X031622652Y010710303D01*
X032003237Y010710303D02*
X032003237Y010235721D01*
X032003237Y010710303D02*
X032312564Y010710303D01*
X032003237Y010473013D02*
X032219766Y010473013D01*
X032003237Y010235721D02*
X032312564Y010235721D01*
D61*
X045508276Y010235721D02*
X045508276Y010710303D01*
X045508276Y010710303D02*
X045834693Y010235721D01*
X045834693Y010235721D02*
X045828288Y010710303D01*
X046208873Y010710303D02*
X046208873Y010235721D01*
X046208873Y010710303D02*
X046518200Y010710303D01*
X046208873Y010473013D02*
X046425402Y010473013D01*
X046208873Y010235721D02*
X046518200Y010235721D01*
X046851194Y010710303D02*
X047255633Y010235721D01*
X047259983Y010710303D02*
X046855542Y010235721D01*
X047552986Y010710303D02*
X047942294Y010710303D01*
X047753421Y010710303D02*
X047753421Y010235721D01*
X048973834Y010710303D02*
X048973834Y010235721D01*
X048973834Y010235721D02*
X049289655Y010235721D01*
X049823796Y010710303D02*
X049823796Y010235721D01*
X050352640Y010235721D02*
X050352640Y010710303D01*
X050352640Y010710303D02*
X050679057Y010235721D01*
X050679057Y010235721D02*
X050672652Y010710303D01*
X051053237Y010710303D02*
X051053237Y010235721D01*
X051053237Y010710303D02*
X051362564Y010710303D01*
X051053237Y010473013D02*
X051269765Y010473013D01*
X051053237Y010235721D02*
X051362564Y010235721D01*
D61*
X-11697134Y-08405033D02*
X-11749931Y-08337234D01*
X-11749931Y-08337234D02*
X-11875079Y-08330469D01*
X-11875079Y-08330469D02*
X-11945224Y-08379296D01*
X-11945224Y-08379296D02*
X-11973862Y-08468877D01*
X-11973862Y-08468877D02*
X-11962001Y-08513109D01*
X-11962001Y-08513109D02*
X-11917622Y-08551315D01*
X-11917622Y-08551315D02*
X-11741764Y-08582123D01*
X-11741764Y-08582123D02*
X-11682603Y-08618539D01*
X-11682603Y-08618539D02*
X-11660650Y-08681527D01*
X-11660650Y-08681527D02*
X-11689568Y-08780039D01*
X-11689568Y-08780039D02*
X-11777892Y-08822850D01*
X-11777892Y-08822850D02*
X-11891455Y-08819663D01*
X-11891455Y-08819663D02*
X-11953562Y-08784927D01*
X-11953562Y-08784927D02*
X-11988434Y-08703234D01*
X-11327144Y-08339697D02*
X-10937836Y-08339697D01*
X-11126709Y-08339697D02*
X-11126709Y-08814279D01*
X-10638509Y-08814279D02*
X-10448031Y-08339697D01*
X-10448031Y-08339697D02*
X-10242366Y-08814279D01*
X-10542444Y-08629165D02*
X-10347672Y-08629165D01*
X-09934666Y-08810878D02*
X-09934666Y-08351989D01*
X-09934666Y-08351989D02*
X-09800115Y-08339697D01*
X-09800115Y-08339697D02*
X-09705677Y-08343807D01*
X-09705677Y-08343807D02*
X-09648708Y-08356435D01*
X-09648708Y-08356435D02*
X-09624753Y-08366730D01*
X-09624753Y-08366730D02*
X-09605038Y-08380130D01*
X-09605038Y-08380130D02*
X-09590473Y-08396972D01*
X-09590473Y-08396972D02*
X-09577630Y-08442643D01*
X-09577630Y-08442643D02*
X-09578835Y-08483145D01*
X-09578835Y-08483145D02*
X-09591980Y-08512472D01*
X-09591980Y-08512472D02*
X-09615572Y-08532563D01*
X-09615572Y-08532563D02*
X-09648119Y-08545359D01*
X-09648119Y-08545359D02*
X-09710468Y-08555117D01*
X-09710468Y-08555117D02*
X-09925747Y-08562739D01*
X-09746966Y-08582114D02*
X-09562106Y-08814279D01*
X-09250988Y-08339697D02*
X-08861680Y-08339697D01*
X-09050553Y-08339697D02*
X-09050553Y-08814279D01*
X-07830140Y-08339697D02*
X-07830140Y-08814279D01*
X-07830140Y-08814279D02*
X-07514319Y-08814279D01*
X-06980178Y-08339697D02*
X-06980178Y-08814279D01*
X-06451334Y-08814279D02*
X-06451334Y-08339697D01*
X-06451334Y-08339697D02*
X-06124917Y-08814279D01*
X-06124917Y-08814279D02*
X-06131322Y-08339697D01*
X-05750737Y-08339697D02*
X-05750737Y-08814279D01*
X-05750737Y-08339697D02*
X-05441410Y-08339697D01*
X-05750737Y-08576987D02*
X-05534209Y-08576987D01*
X-05750737Y-08814279D02*
X-05441410Y-08814279D01*
D61*
X007762847Y-08339697D02*
X007762847Y-08814279D01*
X007762847Y-08339697D02*
X008072174Y-08339697D01*
X007762847Y-08576987D02*
X007979375Y-08576987D01*
X007762847Y-08814279D02*
X008072174Y-08814279D01*
X008446354Y-08814279D02*
X008446354Y-08339697D01*
X008446354Y-08339697D02*
X008772771Y-08814279D01*
X008772771Y-08814279D02*
X008766366Y-08339697D01*
X009136014Y-08814279D02*
X009141183Y-08349555D01*
X009141183Y-08349555D02*
X009210748Y-08339697D01*
X009210748Y-08339697D02*
X009264040Y-08340843D01*
X009264040Y-08340843D02*
X009350603Y-08364255D01*
X009350603Y-08364255D02*
X009414619Y-08414813D01*
X009414619Y-08414813D02*
X009451220Y-08482889D01*
X009451220Y-08482889D02*
X009465810Y-08553474D01*
X009465810Y-08553474D02*
X009467215Y-08606619D01*
X009467215Y-08606619D02*
X009460542Y-08652167D01*
X009460542Y-08652167D02*
X009446889Y-08690693D01*
X009446889Y-08690693D02*
X009403060Y-08748987D01*
X009403060Y-08748987D02*
X009344545Y-08786097D01*
X009344545Y-08786097D02*
X009248538Y-08812103D01*
X009248538Y-08812103D02*
X009136014Y-08814279D01*
X010527808Y-08339697D02*
X010527808Y-08814279D01*
X010527808Y-08814279D02*
X010843629Y-08814279D01*
X011377770Y-08339697D02*
X011377770Y-08814279D01*
X011906614Y-08814279D02*
X011906614Y-08339697D01*
X011906614Y-08339697D02*
X012233031Y-08814279D01*
X012233031Y-08814279D02*
X012226626Y-08339697D01*
X012607211Y-08339697D02*
X012607211Y-08814279D01*
X012607211Y-08339697D02*
X012916538Y-08339697D01*
X012607211Y-08576987D02*
X012823740Y-08576987D01*
X012607211Y-08814279D02*
X012916538Y-08814279D01*
D61*
X026458276Y-08814279D02*
X026458276Y-08339697D01*
X026458276Y-08339697D02*
X026784693Y-08814279D01*
X026784693Y-08814279D02*
X026778288Y-08339697D01*
X027158873Y-08339697D02*
X027158873Y-08814279D01*
X027158873Y-08339697D02*
X027468200Y-08339697D01*
X027158873Y-08576987D02*
X027375402Y-08576987D01*
X027158873Y-08814279D02*
X027468200Y-08814279D01*
X027801194Y-08339697D02*
X028205634Y-08814279D01*
X028209983Y-08339697D02*
X027805542Y-08814279D01*
X028502986Y-08339697D02*
X028892294Y-08339697D01*
X028703421Y-08339697D02*
X028703421Y-08814279D01*
X029871026Y-08339697D02*
X029926885Y-08808264D01*
X029926885Y-08808264D02*
X030070665Y-08481019D01*
X030070665Y-08481019D02*
X030224705Y-08814279D01*
X030224705Y-08814279D02*
X030292462Y-08339697D01*
X030764183Y-08822850D02*
X030701979Y-08803497D01*
X030701979Y-08803497D02*
X030645118Y-08744616D01*
X030645118Y-08744616D02*
X030603068Y-08544762D01*
X030603068Y-08544762D02*
X030643122Y-08395179D01*
X030643122Y-08395179D02*
X030692263Y-08352574D01*
X030692263Y-08352574D02*
X030777349Y-08330469D01*
X030777349Y-08330469D02*
X030857456Y-08357004D01*
X030857456Y-08357004D02*
X030904358Y-08405502D01*
X030904358Y-08405502D02*
X030944524Y-08587706D01*
X030944524Y-08587706D02*
X030924534Y-08702737D01*
X030924534Y-08702737D02*
X030888911Y-08769217D01*
X030888911Y-08769217D02*
X030825637Y-08814501D01*
X030825637Y-08814501D02*
X030764183Y-08822850D01*
X031279568Y-08810878D02*
X031279568Y-08351989D01*
X031279568Y-08351989D02*
X031414119Y-08339697D01*
X031414119Y-08339697D02*
X031508557Y-08343807D01*
X031508557Y-08343807D02*
X031565526Y-08356435D01*
X031565526Y-08356435D02*
X031589481Y-08366730D01*
X031589481Y-08366730D02*
X031609196Y-08380130D01*
X031609196Y-08380130D02*
X031623761Y-08396972D01*
X031623761Y-08396972D02*
X031636604Y-08442643D01*
X031636604Y-08442643D02*
X031635399Y-08483145D01*
X031635399Y-08483145D02*
X031622254Y-08512472D01*
X031622254Y-08512472D02*
X031598662Y-08532563D01*
X031598662Y-08532563D02*
X031566116Y-08545359D01*
X031566116Y-08545359D02*
X031503767Y-08555117D01*
X031503767Y-08555117D02*
X031288487Y-08562739D01*
X031467268Y-08582114D02*
X031652128Y-08814279D01*
X031992300Y-08814279D02*
X031997469Y-08349555D01*
X031997469Y-08349555D02*
X032067034Y-08339697D01*
X032067034Y-08339697D02*
X032120326Y-08340843D01*
X032120326Y-08340843D02*
X032206889Y-08364255D01*
X032206889Y-08364255D02*
X032270905Y-08414813D01*
X032270905Y-08414813D02*
X032307506Y-08482889D01*
X032307506Y-08482889D02*
X032322096Y-08553474D01*
X032322096Y-08553474D02*
X032323501Y-08606619D01*
X032323501Y-08606619D02*
X032316828Y-08652167D01*
X032316828Y-08652167D02*
X032303175Y-08690693D01*
X032303175Y-08690693D02*
X032259346Y-08748987D01*
X032259346Y-08748987D02*
X032200831Y-08786097D01*
X032200831Y-08786097D02*
X032104824Y-08812103D01*
X032104824Y-08812103D02*
X031992300Y-08814279D01*
D61*
X043432120Y-08814279D02*
X043432120Y-08339697D01*
X043432120Y-08339697D02*
X043758537Y-08814279D01*
X043758537Y-08814279D02*
X043752132Y-08339697D01*
X044132717Y-08339697D02*
X044132717Y-08814279D01*
X044132717Y-08339697D02*
X044442044Y-08339697D01*
X044132717Y-08576987D02*
X044349246Y-08576987D01*
X044132717Y-08814279D02*
X044442044Y-08814279D01*
X044775038Y-08339697D02*
X045179478Y-08814279D01*
X045183827Y-08339697D02*
X044779386Y-08814279D01*
X045476830Y-08339697D02*
X045866138Y-08339697D01*
X045677265Y-08339697D02*
X045677265Y-08814279D01*
X047182996Y-08405033D02*
X047130199Y-08337234D01*
X047130199Y-08337234D02*
X047005051Y-08330469D01*
X047005051Y-08330469D02*
X046934906Y-08379296D01*
X046934906Y-08379296D02*
X046906268Y-08468877D01*
X046906268Y-08468877D02*
X046918129Y-08513109D01*
X046918129Y-08513109D02*
X046962508Y-08551315D01*
X046962508Y-08551315D02*
X047138366Y-08582123D01*
X047138366Y-08582123D02*
X047197527Y-08618539D01*
X047197527Y-08618539D02*
X047219480Y-08681527D01*
X047219480Y-08681527D02*
X047190562Y-08780039D01*
X047190562Y-08780039D02*
X047102238Y-08822850D01*
X047102238Y-08822850D02*
X046988675Y-08819663D01*
X046988675Y-08819663D02*
X046926568Y-08784927D01*
X046926568Y-08784927D02*
X046891696Y-08703234D01*
X047586312Y-08814279D02*
X047586312Y-08348653D01*
X047586312Y-08348653D02*
X047681850Y-08339697D01*
X047681850Y-08339697D02*
X047767316Y-08345295D01*
X047767316Y-08345295D02*
X047822889Y-08360360D01*
X047822889Y-08360360D02*
X047847737Y-08372536D01*
X047847737Y-08372536D02*
X047887368Y-08408250D01*
X047887368Y-08408250D02*
X047904979Y-08446610D01*
X047904979Y-08446610D02*
X047908969Y-08502688D01*
X047908969Y-08502688D02*
X047893176Y-08537943D01*
X047893176Y-08537943D02*
X047868529Y-08557430D01*
X047868529Y-08557430D02*
X047829226Y-08573055D01*
X047829226Y-08573055D02*
X047772384Y-08584260D01*
X047772384Y-08584260D02*
X047695132Y-08590488D01*
X047695132Y-08590488D02*
X047594580Y-08591181D01*
X048241621Y-08814279D02*
X048432099Y-08339697D01*
X048432099Y-08339697D02*
X048637764Y-08814279D01*
X048337686Y-08629165D02*
X048532458Y-08629165D01*
X049291364Y-08443893D02*
X049269923Y-08391637D01*
X049269923Y-08391637D02*
X049230593Y-08354639D01*
X049230593Y-08354639D02*
X049156107Y-08330469D01*
X049156107Y-08330469D02*
X049101065Y-08337850D01*
X049101065Y-08337850D02*
X049052560Y-08362624D01*
X049052560Y-08362624D02*
X049005196Y-08419802D01*
X049005196Y-08419802D02*
X048972125Y-08569891D01*
X048972125Y-08569891D02*
X048998077Y-08720770D01*
X048998077Y-08720770D02*
X049036793Y-08781528D01*
X049036793Y-08781528D02*
X049077044Y-08809961D01*
X049077044Y-08809961D02*
X049155459Y-08822850D01*
X049155459Y-08822850D02*
X049223797Y-08806375D01*
X049223797Y-08806375D02*
X049274397Y-08758299D01*
X049274397Y-08758299D02*
X049291364Y-08690446D01*
X049669133Y-08339697D02*
X049669133Y-08814279D01*
X049669133Y-08339697D02*
X049978460Y-08339697D01*
X049669133Y-08576987D02*
X049885661Y-08576987D01*
X049669133Y-08814279D02*
X049978460Y-08814279D01*
X050997182Y-08339697D02*
X051053041Y-08808264D01*
X051053041Y-08808264D02*
X051196821Y-08481019D01*
X051196821Y-08481019D02*
X051350860Y-08814279D01*
X051350860Y-08814279D02*
X051418618Y-08339697D01*
X051890339Y-08822850D02*
X051828135Y-08803497D01*
X051828135Y-08803497D02*
X051771274Y-08744616D01*
X051771274Y-08744616D02*
X051729224Y-08544762D01*
X051729224Y-08544762D02*
X051769278Y-08395179D01*
X051769278Y-08395179D02*
X051818419Y-08352574D01*
X051818419Y-08352574D02*
X051903505Y-08330469D01*
X051903505Y-08330469D02*
X051983612Y-08357004D01*
X051983612Y-08357004D02*
X052030514Y-08405502D01*
X052030514Y-08405502D02*
X052070680Y-08587706D01*
X052070680Y-08587706D02*
X052050690Y-08702737D01*
X052050690Y-08702737D02*
X052015067Y-08769217D01*
X052015067Y-08769217D02*
X051951793Y-08814501D01*
X051951793Y-08814501D02*
X051890339Y-08822850D01*
X052405724Y-08810878D02*
X052405724Y-08351989D01*
X052405724Y-08351989D02*
X052540275Y-08339697D01*
X052540275Y-08339697D02*
X052634713Y-08343807D01*
X052634713Y-08343807D02*
X052691682Y-08356435D01*
X052691682Y-08356435D02*
X052715637Y-08366730D01*
X052715637Y-08366730D02*
X052735352Y-08380130D01*
X052735352Y-08380130D02*
X052749917Y-08396972D01*
X052749917Y-08396972D02*
X052762760Y-08442643D01*
X052762760Y-08442643D02*
X052761555Y-08483145D01*
X052761555Y-08483145D02*
X052748410Y-08512472D01*
X052748410Y-08512472D02*
X052724818Y-08532563D01*
X052724818Y-08532563D02*
X052692271Y-08545359D01*
X052692271Y-08545359D02*
X052629922Y-08555117D01*
X052629922Y-08555117D02*
X052414643Y-08562739D01*
X052593424Y-08582114D02*
X052778284Y-08814279D01*
X053118456Y-08814279D02*
X053123625Y-08349555D01*
X053123625Y-08349555D02*
X053193190Y-08339697D01*
X053193190Y-08339697D02*
X053246482Y-08340843D01*
X053246482Y-08340843D02*
X053333045Y-08364255D01*
X053333045Y-08364255D02*
X053397061Y-08414813D01*
X053397061Y-08414813D02*
X053433662Y-08482889D01*
X053433662Y-08482889D02*
X053448252Y-08553474D01*
X053448252Y-08553474D02*
X053449657Y-08606619D01*
X053449657Y-08606619D02*
X053442983Y-08652167D01*
X053442983Y-08652167D02*
X053429331Y-08690693D01*
X053429331Y-08690693D02*
X053385502Y-08748987D01*
X053385502Y-08748987D02*
X053326987Y-08786097D01*
X053326987Y-08786097D02*
X053230980Y-08812103D01*
X053230980Y-08812103D02*
X053118456Y-08814279D01*
D61*
X-10947108Y-27389697D02*
X-10625819Y-27389697D01*
X-10625819Y-27389697D02*
X-10650028Y-27404191D01*
X-10650028Y-27404191D02*
X-10662756Y-27413785D01*
X-10662756Y-27413785D02*
X-10692552Y-27442278D01*
X-10692552Y-27442278D02*
X-10708735Y-27461895D01*
X-10708735Y-27461895D02*
X-10725187Y-27485572D01*
X-10725187Y-27485572D02*
X-10741462Y-27513669D01*
X-10741462Y-27513669D02*
X-10757122Y-27546543D01*
X-10757122Y-27546543D02*
X-10771725Y-27584556D01*
X-10771725Y-27584556D02*
X-10784827Y-27628067D01*
X-10784827Y-27628067D02*
X-10795991Y-27677435D01*
X-10795991Y-27677435D02*
X-10808128Y-27763255D01*
X-10808128Y-27763255D02*
X-10813411Y-27864279D01*
X-09597014Y-27389697D02*
X-09207706Y-27389697D01*
X-09396579Y-27389697D02*
X-09396579Y-27864279D01*
X-08710308Y-27389697D02*
X-08710308Y-27864279D01*
X-08199237Y-27864279D02*
X-08199237Y-27389697D01*
X-08199237Y-27389697D02*
X-08018255Y-27698744D01*
X-08018255Y-27698744D02*
X-07837274Y-27389697D01*
X-07837274Y-27389697D02*
X-07837274Y-27864279D01*
X-07480867Y-27389697D02*
X-07480867Y-27864279D01*
X-07480867Y-27389697D02*
X-07171540Y-27389697D01*
X-07480867Y-27626987D02*
X-07264339Y-27626987D01*
X-07480867Y-27864279D02*
X-07171540Y-27864279D01*
X-06506744Y-27455033D02*
X-06559541Y-27387234D01*
X-06559541Y-27387234D02*
X-06684689Y-27380469D01*
X-06684689Y-27380469D02*
X-06754834Y-27429296D01*
X-06754834Y-27429296D02*
X-06783472Y-27518877D01*
X-06783472Y-27518877D02*
X-06771611Y-27563109D01*
X-06771611Y-27563109D02*
X-06727232Y-27601315D01*
X-06727232Y-27601315D02*
X-06551374Y-27632123D01*
X-06551374Y-27632123D02*
X-06492213Y-27668539D01*
X-06492213Y-27668539D02*
X-06470260Y-27731527D01*
X-06470260Y-27731527D02*
X-06499178Y-27830039D01*
X-06499178Y-27830039D02*
X-06587502Y-27872850D01*
X-06587502Y-27872850D02*
X-06701065Y-27869663D01*
X-06701065Y-27869663D02*
X-06763172Y-27834927D01*
X-06763172Y-27834927D02*
X-06798044Y-27753234D01*
D61*
X007861090Y-27485915D02*
X007973930Y-27389697D01*
X007973930Y-27389697D02*
X007973930Y-27864276D01*
X008455968Y-27441551D02*
X008482252Y-27420943D01*
X008482252Y-27420943D02*
X008524141Y-27398864D01*
X008524141Y-27398864D02*
X008577529Y-27380469D01*
X008577529Y-27380469D02*
X008643237Y-27384143D01*
X008643237Y-27384143D02*
X008700733Y-27402544D01*
X008700733Y-27402544D02*
X008741802Y-27435663D01*
X008741802Y-27435663D02*
X008766443Y-27476144D01*
X008766443Y-27476144D02*
X008758229Y-27520304D01*
X008758229Y-27520304D02*
X008725374Y-27553424D01*
X008725374Y-27553424D02*
X008667878Y-27579184D01*
X008667878Y-27579184D02*
X008602169Y-27593904D01*
X008602169Y-27593904D02*
X008544675Y-27601265D01*
X008544675Y-27601265D02*
X008602169Y-27608624D01*
X008602169Y-27608624D02*
X008667878Y-27627025D01*
X008667878Y-27627025D02*
X008725374Y-27656464D01*
X008725374Y-27656464D02*
X008762336Y-27696945D01*
X008762336Y-27696945D02*
X008770549Y-27741105D01*
X008770549Y-27741105D02*
X008754122Y-27788946D01*
X008754122Y-27788946D02*
X008717161Y-27829425D01*
X008717161Y-27829425D02*
X008659664Y-27862546D01*
X008659664Y-27862546D02*
X008616132Y-27872850D01*
X008616132Y-27872850D02*
X008545496Y-27871378D01*
X008545496Y-27871378D02*
X008488001Y-27862546D01*
X008488001Y-27862546D02*
X008448576Y-27850770D01*
X009799012Y-27389697D02*
X010188320Y-27389697D01*
X009999447Y-27389697D02*
X009999447Y-27864279D01*
X010685718Y-27389697D02*
X010685718Y-27864279D01*
X011196789Y-27864279D02*
X011196789Y-27389697D01*
X011196789Y-27389697D02*
X011377771Y-27698744D01*
X011377771Y-27698744D02*
X011558752Y-27389697D01*
X011558752Y-27389697D02*
X011558752Y-27864279D01*
X011915159Y-27389697D02*
X011915159Y-27864279D01*
X011915159Y-27389697D02*
X012224486Y-27389697D01*
X011915159Y-27626987D02*
X012131688Y-27626987D01*
X011915159Y-27864279D02*
X012224486Y-27864279D01*
X012889282Y-27455033D02*
X012836485Y-27387234D01*
X012836485Y-27387234D02*
X012711337Y-27380469D01*
X012711337Y-27380469D02*
X012641192Y-27429296D01*
X012641192Y-27429296D02*
X012612554Y-27518877D01*
X012612554Y-27518877D02*
X012624415Y-27563109D01*
X012624415Y-27563109D02*
X012668794Y-27601315D01*
X012668794Y-27601315D02*
X012844652Y-27632123D01*
X012844652Y-27632123D02*
X012903813Y-27668539D01*
X012903813Y-27668539D02*
X012925766Y-27731527D01*
X012925766Y-27731527D02*
X012896848Y-27830039D01*
X012896848Y-27830039D02*
X012808524Y-27872850D01*
X012808524Y-27872850D02*
X012694961Y-27869663D01*
X012694961Y-27869663D02*
X012632854Y-27834927D01*
X012632854Y-27834927D02*
X012597983Y-27753234D01*
D61*
X025763832Y-27864279D02*
X025769001Y-27399555D01*
X025769001Y-27399555D02*
X025838566Y-27389697D01*
X025838566Y-27389697D02*
X025891858Y-27390843D01*
X025891858Y-27390843D02*
X025978421Y-27414255D01*
X025978421Y-27414255D02*
X026042437Y-27464813D01*
X026042437Y-27464813D02*
X026079038Y-27532889D01*
X026079038Y-27532889D02*
X026093628Y-27603474D01*
X026093628Y-27603474D02*
X026095033Y-27656619D01*
X026095033Y-27656619D02*
X026088360Y-27702167D01*
X026088360Y-27702167D02*
X026074707Y-27740693D01*
X026074707Y-27740693D02*
X026030878Y-27798987D01*
X026030878Y-27798987D02*
X025972363Y-27836097D01*
X025972363Y-27836097D02*
X025876356Y-27862103D01*
X025876356Y-27862103D02*
X025763832Y-27864279D01*
X026466821Y-27389697D02*
X026466821Y-27864279D01*
X026466821Y-27389697D02*
X026776148Y-27389697D01*
X026466821Y-27626987D02*
X026683350Y-27626987D01*
X026466821Y-27864279D02*
X026776148Y-27864279D01*
X027155626Y-27389697D02*
X027155626Y-27864279D01*
X027155626Y-27864279D02*
X027471447Y-27864279D01*
X027850925Y-27389697D02*
X027850925Y-27864279D01*
X027850925Y-27389697D02*
X028160252Y-27389697D01*
X027850925Y-27626987D02*
X028067454Y-27626987D01*
X027850925Y-27864279D02*
X028160252Y-27864279D01*
X028502986Y-27389697D02*
X028892294Y-27389697D01*
X028703421Y-27389697D02*
X028703421Y-27864279D01*
X029235029Y-27389697D02*
X029235029Y-27864279D01*
X029235029Y-27389697D02*
X029544356Y-27389697D01*
X029235029Y-27626987D02*
X029451558Y-27626987D01*
X029235029Y-27864279D02*
X029544356Y-27864279D01*
X030933416Y-27493893D02*
X030911976Y-27441637D01*
X030911976Y-27441637D02*
X030872645Y-27404639D01*
X030872645Y-27404639D02*
X030798159Y-27380469D01*
X030798159Y-27380469D02*
X030743117Y-27387850D01*
X030743117Y-27387850D02*
X030694612Y-27412624D01*
X030694612Y-27412624D02*
X030647248Y-27469802D01*
X030647248Y-27469802D02*
X030614177Y-27619891D01*
X030614177Y-27619891D02*
X030640129Y-27770770D01*
X030640129Y-27770770D02*
X030678845Y-27831528D01*
X030678845Y-27831528D02*
X030719096Y-27859961D01*
X030719096Y-27859961D02*
X030797511Y-27872850D01*
X030797511Y-27872850D02*
X030865849Y-27856375D01*
X030865849Y-27856375D02*
X030916449Y-27808299D01*
X030916449Y-27808299D02*
X030933416Y-27740446D01*
X031301957Y-27389697D02*
X031301957Y-27864279D01*
X031301957Y-27616961D02*
X031626136Y-27616961D01*
X031629740Y-27389697D02*
X031629740Y-27864279D01*
X031959829Y-27864279D02*
X032150307Y-27389697D01*
X032150307Y-27389697D02*
X032355972Y-27864279D01*
X032055894Y-27679165D02*
X032250666Y-27679165D01*
X032663672Y-27860878D02*
X032663672Y-27401989D01*
X032663672Y-27401989D02*
X032798223Y-27389697D01*
X032798223Y-27389697D02*
X032892661Y-27393807D01*
X032892661Y-27393807D02*
X032949630Y-27406435D01*
X032949630Y-27406435D02*
X032973585Y-27416730D01*
X032973585Y-27416730D02*
X032993300Y-27430130D01*
X032993300Y-27430130D02*
X033007865Y-27446972D01*
X033007865Y-27446972D02*
X033020708Y-27492643D01*
X033020708Y-27492643D02*
X033019503Y-27533145D01*
X033019503Y-27533145D02*
X033006358Y-27562472D01*
X033006358Y-27562472D02*
X032982766Y-27582563D01*
X032982766Y-27582563D02*
X032950220Y-27595359D01*
X032950220Y-27595359D02*
X032887871Y-27605117D01*
X032887871Y-27605117D02*
X032672591Y-27612739D01*
X032851372Y-27632114D02*
X033036232Y-27864279D01*
D61*
X044813832Y-27864279D02*
X044819001Y-27399555D01*
X044819001Y-27399555D02*
X044888566Y-27389697D01*
X044888566Y-27389697D02*
X044941858Y-27390843D01*
X044941858Y-27390843D02*
X045028421Y-27414255D01*
X045028421Y-27414255D02*
X045092437Y-27464813D01*
X045092437Y-27464813D02*
X045129038Y-27532889D01*
X045129038Y-27532889D02*
X045143628Y-27603474D01*
X045143628Y-27603474D02*
X045145033Y-27656619D01*
X045145033Y-27656619D02*
X045138360Y-27702167D01*
X045138360Y-27702167D02*
X045124707Y-27740693D01*
X045124707Y-27740693D02*
X045080878Y-27798987D01*
X045080878Y-27798987D02*
X045022363Y-27836097D01*
X045022363Y-27836097D02*
X044926356Y-27862103D01*
X044926356Y-27862103D02*
X044813832Y-27864279D01*
X045516821Y-27389697D02*
X045516821Y-27864279D01*
X045516821Y-27389697D02*
X045826148Y-27389697D01*
X045516821Y-27626987D02*
X045733350Y-27626987D01*
X045516821Y-27864279D02*
X045826148Y-27864279D01*
X046205626Y-27389697D02*
X046205626Y-27864279D01*
X046205626Y-27864279D02*
X046521447Y-27864279D01*
X046900925Y-27389697D02*
X046900925Y-27864279D01*
X046900925Y-27389697D02*
X047210252Y-27389697D01*
X046900925Y-27626987D02*
X047117454Y-27626987D01*
X046900925Y-27864279D02*
X047210252Y-27864279D01*
X047552986Y-27389697D02*
X047942294Y-27389697D01*
X047753421Y-27389697D02*
X047753421Y-27864279D01*
X048285029Y-27389697D02*
X048285029Y-27864279D01*
X048285029Y-27389697D02*
X048594356Y-27389697D01*
X048285029Y-27626987D02*
X048501557Y-27626987D01*
X048285029Y-27864279D02*
X048594356Y-27864279D01*
X049613078Y-27389697D02*
X049668937Y-27858264D01*
X049668937Y-27858264D02*
X049812717Y-27531019D01*
X049812717Y-27531019D02*
X049966756Y-27864279D01*
X049966756Y-27864279D02*
X050034514Y-27389697D01*
X050506235Y-27872850D02*
X050444031Y-27853497D01*
X050444031Y-27853497D02*
X050387170Y-27794616D01*
X050387170Y-27794616D02*
X050345120Y-27594762D01*
X050345120Y-27594762D02*
X050385174Y-27445179D01*
X050385174Y-27445179D02*
X050434315Y-27402574D01*
X050434315Y-27402574D02*
X050519401Y-27380469D01*
X050519401Y-27380469D02*
X050599508Y-27407004D01*
X050599508Y-27407004D02*
X050646410Y-27455502D01*
X050646410Y-27455502D02*
X050686576Y-27637706D01*
X050686576Y-27637706D02*
X050666586Y-27752737D01*
X050666586Y-27752737D02*
X050630963Y-27819217D01*
X050630963Y-27819217D02*
X050567689Y-27864501D01*
X050567689Y-27864501D02*
X050506235Y-27872850D01*
X051021620Y-27860878D02*
X051021620Y-27401989D01*
X051021620Y-27401989D02*
X051156171Y-27389697D01*
X051156171Y-27389697D02*
X051250609Y-27393807D01*
X051250609Y-27393807D02*
X051307578Y-27406435D01*
X051307578Y-27406435D02*
X051331533Y-27416730D01*
X051331533Y-27416730D02*
X051351248Y-27430130D01*
X051351248Y-27430130D02*
X051365813Y-27446972D01*
X051365813Y-27446972D02*
X051378656Y-27492643D01*
X051378656Y-27492643D02*
X051377451Y-27533145D01*
X051377451Y-27533145D02*
X051364306Y-27562472D01*
X051364306Y-27562472D02*
X051340714Y-27582563D01*
X051340714Y-27582563D02*
X051308167Y-27595359D01*
X051308167Y-27595359D02*
X051245818Y-27605117D01*
X051245818Y-27605117D02*
X051030539Y-27612739D01*
X051209320Y-27632114D02*
X051394180Y-27864279D01*
X051734352Y-27864279D02*
X051739521Y-27399555D01*
X051739521Y-27399555D02*
X051809086Y-27389697D01*
X051809086Y-27389697D02*
X051862378Y-27390843D01*
X051862378Y-27390843D02*
X051948941Y-27414255D01*
X051948941Y-27414255D02*
X052012957Y-27464813D01*
X052012957Y-27464813D02*
X052049558Y-27532889D01*
X052049558Y-27532889D02*
X052064148Y-27603474D01*
X052064148Y-27603474D02*
X052065553Y-27656619D01*
X052065553Y-27656619D02*
X052058879Y-27702167D01*
X052058879Y-27702167D02*
X052045227Y-27740693D01*
X052045227Y-27740693D02*
X052001398Y-27798987D01*
X052001398Y-27798987D02*
X051942883Y-27836097D01*
X051942883Y-27836097D02*
X051846876Y-27862103D01*
X051846876Y-27862103D02*
X051734352Y-27864279D01*
D61*
X-01620913Y031685721D02*
X-01620913Y032160303D01*
X-01620913Y032160303D02*
X-01439931Y031851256D01*
X-01439931Y031851256D02*
X-01258950Y032160303D01*
X-01258950Y032160303D02*
X-01258950Y031685721D01*
X-00757493Y031677150D02*
X-00819697Y031696503D01*
X-00819697Y031696503D02*
X-00876558Y031755384D01*
X-00876558Y031755384D02*
X-00918608Y031955239D01*
X-00918608Y031955239D02*
X-00878554Y032104822D01*
X-00878554Y032104822D02*
X-00829413Y032147426D01*
X-00829413Y032147426D02*
X-00744327Y032169531D01*
X-00744327Y032169531D02*
X-00664220Y032142996D01*
X-00664220Y032142996D02*
X-00617318Y032094498D01*
X-00617318Y032094498D02*
X-00577152Y031912294D01*
X-00577152Y031912294D02*
X-00597142Y031797263D01*
X-00597142Y031797263D02*
X-00632765Y031730783D01*
X-00632765Y031730783D02*
X-00696039Y031685499D01*
X-00696039Y031685499D02*
X-00757493Y031677150D01*
X-00247064Y032160303D02*
X-00042488Y031685721D01*
X-00042488Y031685721D02*
X000135408Y032160303D01*
X000481561Y032160303D02*
X000481561Y031685721D01*
X000481561Y032160303D02*
X000790888Y032160303D01*
X000481561Y031923013D02*
X000698089Y031923013D01*
X000481561Y031685721D02*
X000790888Y031685721D01*
X001147295Y031685721D02*
X001147295Y032160303D01*
X001147295Y032160303D02*
X001328277Y031851256D01*
X001328277Y031851256D02*
X001509258Y032160303D01*
X001509258Y032160303D02*
X001509258Y031685721D01*
X001865665Y032160303D02*
X001865665Y031685721D01*
X001865665Y032160303D02*
X002174992Y032160303D01*
X001865665Y031923013D02*
X002082193Y031923013D01*
X001865665Y031685721D02*
X002174992Y031685721D01*
X002549172Y031685721D02*
X002549172Y032160303D01*
X002549172Y032160303D02*
X002875589Y031685721D01*
X002875589Y031685721D02*
X002869184Y032160303D01*
X003209778Y032160303D02*
X003599086Y032160303D01*
X003410213Y032160303D02*
X003410213Y031685721D01*
X004602599Y032160303D02*
X004602599Y031685721D01*
X004929399Y032128664D02*
X004602599Y031868524D01*
X004726557Y031942347D02*
X004974474Y031696268D01*
X005325925Y032160303D02*
X005325925Y031685721D01*
X005325925Y032160303D02*
X005635252Y032160303D01*
X005325925Y031923013D02*
X005542453Y031923013D01*
X005325925Y031685721D02*
X005635252Y031685721D01*
X005974569Y032160303D02*
X006167114Y031948105D01*
X006370712Y032159629D02*
X006168390Y031946758D01*
X006168390Y031946758D02*
X006175616Y031685721D01*
X006703364Y031685721D02*
X006703364Y032151347D01*
X006703364Y032151347D02*
X006798902Y032160303D01*
X006798902Y032160303D02*
X006884368Y032154705D01*
X006884368Y032154705D02*
X006939941Y032139640D01*
X006939941Y032139640D02*
X006964789Y032127464D01*
X006964789Y032127464D02*
X007004420Y032091750D01*
X007004420Y032091750D02*
X007022031Y032053390D01*
X007022031Y032053390D02*
X007026021Y031997312D01*
X007026021Y031997312D02*
X007010228Y031962057D01*
X007010228Y031962057D02*
X006985581Y031942570D01*
X006985581Y031942570D02*
X006946278Y031926944D01*
X006946278Y031926944D02*
X006889436Y031915740D01*
X006889436Y031915740D02*
X006812184Y031909512D01*
X006812184Y031909512D02*
X006711632Y031908819D01*
X007358673Y031685721D02*
X007549151Y032160303D01*
X007549151Y032160303D02*
X007754816Y031685721D01*
X007454738Y031870835D02*
X007649510Y031870835D01*
X008083196Y031685721D02*
X008088365Y032150445D01*
X008088365Y032150445D02*
X008157930Y032160303D01*
X008157930Y032160303D02*
X008211222Y032159157D01*
X008211222Y032159157D02*
X008297785Y032135745D01*
X008297785Y032135745D02*
X008361801Y032085187D01*
X008361801Y032085187D02*
X008398402Y032017112D01*
X008398402Y032017112D02*
X008412992Y031946526D01*
X008412992Y031946526D02*
X008414397Y031893381D01*
X008414397Y031893381D02*
X008407724Y031847833D01*
X008407724Y031847833D02*
X008394071Y031809307D01*
X008394071Y031809307D02*
X008350242Y031751014D01*
X008350242Y031751014D02*
X008291727Y031713903D01*
X008291727Y031713903D02*
X008195720Y031687897D01*
X008195720Y031687897D02*
X008083196Y031685721D01*
X009471572Y031685721D02*
X009471572Y032151347D01*
X009471572Y032151347D02*
X009567110Y032160303D01*
X009567110Y032160303D02*
X009652576Y032154705D01*
X009652576Y032154705D02*
X009708150Y032139640D01*
X009708150Y032139640D02*
X009732997Y032127464D01*
X009732997Y032127464D02*
X009772628Y032091750D01*
X009772628Y032091750D02*
X009790239Y032053390D01*
X009790239Y032053390D02*
X009794229Y031997312D01*
X009794229Y031997312D02*
X009778436Y031962057D01*
X009778436Y031962057D02*
X009753789Y031942570D01*
X009753789Y031942570D02*
X009714486Y031926944D01*
X009714486Y031926944D02*
X009657645Y031915740D01*
X009657645Y031915740D02*
X009580392Y031909512D01*
X009580392Y031909512D02*
X009479840Y031908819D01*
X010138672Y031689122D02*
X010138672Y032148011D01*
X010138672Y032148011D02*
X010273223Y032160303D01*
X010273223Y032160303D02*
X010367661Y032156193D01*
X010367661Y032156193D02*
X010424630Y032143565D01*
X010424630Y032143565D02*
X010448585Y032133270D01*
X010448585Y032133270D02*
X010468300Y032119870D01*
X010468300Y032119870D02*
X010482865Y032103028D01*
X010482865Y032103028D02*
X010495708Y032057357D01*
X010495708Y032057357D02*
X010494503Y032016855D01*
X010494503Y032016855D02*
X010481358Y031987528D01*
X010481358Y031987528D02*
X010457766Y031967437D01*
X010457766Y031967437D02*
X010425219Y031954641D01*
X010425219Y031954641D02*
X010362871Y031944883D01*
X010362871Y031944883D02*
X010147591Y031937261D01*
X010326372Y031917886D02*
X010511232Y031685721D01*
X011007391Y031677150D02*
X010945187Y031696503D01*
X010945187Y031696503D02*
X010888326Y031755384D01*
X010888326Y031755384D02*
X010846276Y031955239D01*
X010846276Y031955239D02*
X010886330Y032104822D01*
X010886330Y032104822D02*
X010935471Y032147426D01*
X010935471Y032147426D02*
X011020557Y032169531D01*
X011020557Y032169531D02*
X011100664Y032142996D01*
X011100664Y032142996D02*
X011147566Y032094498D01*
X011147566Y032094498D02*
X011187732Y031912294D01*
X011187732Y031912294D02*
X011167742Y031797263D01*
X011167742Y031797263D02*
X011132119Y031730783D01*
X011132119Y031730783D02*
X011068845Y031685499D01*
X011068845Y031685499D02*
X011007391Y031677150D01*
X011514402Y032160303D02*
X011903710Y032160303D01*
X011714837Y032160303D02*
X011714837Y031685721D01*
X012391495Y031677150D02*
X012329291Y031696503D01*
X012329291Y031696503D02*
X012272430Y031755384D01*
X012272430Y031755384D02*
X012230380Y031955239D01*
X012230380Y031955239D02*
X012270434Y032104822D01*
X012270434Y032104822D02*
X012319575Y032147426D01*
X012319575Y032147426D02*
X012404661Y032169531D01*
X012404661Y032169531D02*
X012484768Y032142996D01*
X012484768Y032142996D02*
X012531670Y032094498D01*
X012531670Y032094498D02*
X012571836Y031912294D01*
X012571836Y031912294D02*
X012551846Y031797263D01*
X012551846Y031797263D02*
X012516223Y031730783D01*
X012516223Y031730783D02*
X012452949Y031685499D01*
X012452949Y031685499D02*
X012391495Y031677150D01*
X012898506Y032160303D02*
X013287814Y032160303D01*
X013098941Y032160303D02*
X013098941Y031685721D01*
X013587141Y032160303D02*
X013779686Y031948105D01*
X013983284Y032159629D02*
X013780962Y031946758D01*
X013780962Y031946758D02*
X013788188Y031685721D01*
X014315936Y031685721D02*
X014315936Y032151347D01*
X014315936Y032151347D02*
X014411474Y032160303D01*
X014411474Y032160303D02*
X014496940Y032154705D01*
X014496940Y032154705D02*
X014552514Y032139640D01*
X014552514Y032139640D02*
X014577361Y032127464D01*
X014577361Y032127464D02*
X014616992Y032091750D01*
X014616992Y032091750D02*
X014634603Y032053390D01*
X014634603Y032053390D02*
X014638593Y031997312D01*
X014638593Y031997312D02*
X014622800Y031962057D01*
X014622800Y031962057D02*
X014598153Y031942570D01*
X014598153Y031942570D02*
X014558850Y031926944D01*
X014558850Y031926944D02*
X014502009Y031915740D01*
X014502009Y031915740D02*
X014424756Y031909512D01*
X014424756Y031909512D02*
X014324204Y031908819D01*
X015014653Y032160303D02*
X015014653Y031685721D01*
X015014653Y032160303D02*
X015323980Y032160303D01*
X015014653Y031923013D02*
X015231182Y031923013D01*
X015014653Y031685721D02*
X015323980Y031685721D01*
D61*
X-02292287Y-31839697D02*
X-02291546Y-32104213D01*
X-02291546Y-32104213D02*
X-02286442Y-32176169D01*
X-02286442Y-32176169D02*
X-02273385Y-32229469D01*
X-02273385Y-32229469D02*
X-02248352Y-32270010D01*
X-02248352Y-32270010D02*
X-02215602Y-32296816D01*
X-02215602Y-32296816D02*
X-02166677Y-32316176D01*
X-02166677Y-32316176D02*
X-02104944Y-32323497D01*
X-02104944Y-32323497D02*
X-02061615Y-32316168D01*
X-02061615Y-32316168D02*
X-02026078Y-32296860D01*
X-02026078Y-32296860D02*
X-02004811Y-32274240D01*
X-02004811Y-32274240D02*
X-01995681Y-32259370D01*
X-01995681Y-32259370D02*
X-01981713Y-32221459D01*
X-01981713Y-32221459D02*
X-01975192Y-32171238D01*
X-01975192Y-32171238D02*
X-01971680Y-31840412D01*
X-01312524Y-31905033D02*
X-01365321Y-31837234D01*
X-01365321Y-31837234D02*
X-01490469Y-31830469D01*
X-01490469Y-31830469D02*
X-01560614Y-31879296D01*
X-01560614Y-31879296D02*
X-01589252Y-31968877D01*
X-01589252Y-31968877D02*
X-01577391Y-32013109D01*
X-01577391Y-32013109D02*
X-01533012Y-32051315D01*
X-01533012Y-32051315D02*
X-01357154Y-32082123D01*
X-01357154Y-32082123D02*
X-01297993Y-32118539D01*
X-01297993Y-32118539D02*
X-01276040Y-32181527D01*
X-01276040Y-32181527D02*
X-01304958Y-32280039D01*
X-01304958Y-32280039D02*
X-01393282Y-32322850D01*
X-01393282Y-32322850D02*
X-01506845Y-32319663D01*
X-01506845Y-32319663D02*
X-01568952Y-32284927D01*
X-01568952Y-32284927D02*
X-01603824Y-32203234D01*
X-00913823Y-32314279D02*
X-00913823Y-31845267D01*
X-00913823Y-31845267D02*
X-00812049Y-31839697D01*
X-00812049Y-31839697D02*
X-00718858Y-31856076D01*
X-00718858Y-31856076D02*
X-00656073Y-31911044D01*
X-00656073Y-31911044D02*
X-00665841Y-31991411D01*
X-00665841Y-31991411D02*
X-00739718Y-32034416D01*
X-00739718Y-32034416D02*
X-00899288Y-32052872D01*
X-00899288Y-32052872D02*
X-00744134Y-32062604D01*
X-00744134Y-32062604D02*
X-00630384Y-32103219D01*
X-00630384Y-32103219D02*
X-00581937Y-32165661D01*
X-00581937Y-32165661D02*
X-00585918Y-32246414D01*
X-00585918Y-32246414D02*
X-00607725Y-32282088D01*
X-00607725Y-32282088D02*
X-00662113Y-32311079D01*
X-00662113Y-32311079D02*
X-00913823Y-32314279D01*
X-00144866Y-32130225D02*
X000033211Y-32130225D01*
X000795844Y-31943893D02*
X000774403Y-31891637D01*
X000774403Y-31891637D02*
X000735073Y-31854639D01*
X000735073Y-31854639D02*
X000660587Y-31830469D01*
X000660587Y-31830469D02*
X000605545Y-31837850D01*
X000605545Y-31837850D02*
X000557040Y-31862624D01*
X000557040Y-31862624D02*
X000509676Y-31919802D01*
X000509676Y-31919802D02*
X000476605Y-32069891D01*
X000476605Y-32069891D02*
X000502557Y-32220770D01*
X000502557Y-32220770D02*
X000541273Y-32281528D01*
X000541273Y-32281528D02*
X000581524Y-32309961D01*
X000581524Y-32309961D02*
X000659939Y-32322850D01*
X000659939Y-32322850D02*
X000728277Y-32306375D01*
X000728277Y-32306375D02*
X000778877Y-32258299D01*
X000778877Y-32258299D02*
X000795844Y-32190446D01*
X001853361Y-32374674D02*
X002187296Y-31839697D01*
X003218152Y-32310878D02*
X003218152Y-31851989D01*
X003218152Y-31851989D02*
X003352703Y-31839697D01*
X003352703Y-31839697D02*
X003447141Y-31843807D01*
X003447141Y-31843807D02*
X003504110Y-31856435D01*
X003504110Y-31856435D02*
X003528065Y-31866730D01*
X003528065Y-31866730D02*
X003547780Y-31880130D01*
X003547780Y-31880130D02*
X003562345Y-31896972D01*
X003562345Y-31896972D02*
X003575188Y-31942643D01*
X003575188Y-31942643D02*
X003573983Y-31983145D01*
X003573983Y-31983145D02*
X003560838Y-32012472D01*
X003560838Y-32012472D02*
X003537246Y-32032563D01*
X003537246Y-32032563D02*
X003504699Y-32045359D01*
X003504699Y-32045359D02*
X003442350Y-32055117D01*
X003442350Y-32055117D02*
X003227071Y-32062739D01*
X003405852Y-32082114D02*
X003590712Y-32314279D01*
X003935156Y-32314279D02*
X003935156Y-31848653D01*
X003935156Y-31848653D02*
X004030694Y-31839697D01*
X004030694Y-31839697D02*
X004116160Y-31845295D01*
X004116160Y-31845295D02*
X004171733Y-31860360D01*
X004171733Y-31860360D02*
X004196581Y-31872536D01*
X004196581Y-31872536D02*
X004236212Y-31908250D01*
X004236212Y-31908250D02*
X004253823Y-31946610D01*
X004253823Y-31946610D02*
X004257813Y-32002688D01*
X004257813Y-32002688D02*
X004242020Y-32037944D01*
X004242020Y-32037944D02*
X004217373Y-32057430D01*
X004217373Y-32057430D02*
X004178070Y-32073056D01*
X004178070Y-32073056D02*
X004121228Y-32084260D01*
X004121228Y-32084260D02*
X004043976Y-32090488D01*
X004043976Y-32090488D02*
X003943424Y-32091181D01*
X004655104Y-31924484D02*
X004665753Y-31889605D01*
X004665753Y-31889605D02*
X004697218Y-31857076D01*
X004697218Y-31857076D02*
X004748784Y-31835017D01*
X004748784Y-31835017D02*
X004781881Y-31830469D01*
X004781881Y-31830469D02*
X004839141Y-31834659D01*
X004839141Y-31834659D02*
X004882096Y-31853494D01*
X004882096Y-31853494D02*
X004905585Y-31882376D01*
X004905585Y-31882376D02*
X004914022Y-31915939D01*
X004914022Y-31915939D02*
X004913462Y-31938264D01*
X004913462Y-31938264D02*
X004903380Y-31975634D01*
X004903380Y-31975634D02*
X004859618Y-32048292D01*
X004859618Y-32048292D02*
X004749412Y-32186507D01*
X004749412Y-32186507D02*
X004633531Y-32313632D01*
X004633531Y-32313632D02*
X004943541Y-32313632D01*
X005480587Y-31830469D02*
X005414485Y-31848370D01*
X005414485Y-31848370D02*
X005355299Y-31902915D01*
X005355299Y-31902915D02*
X005323016Y-31982109D01*
X005323016Y-31982109D02*
X005315329Y-32099555D01*
X005315329Y-32099555D02*
X005333777Y-32198023D01*
X005333777Y-32198023D02*
X005381433Y-32279624D01*
X005381433Y-32279624D02*
X005449843Y-32322850D01*
X005449843Y-32322850D02*
X005511334Y-32322850D01*
X005511334Y-32322850D02*
X005579745Y-32279624D01*
X005579745Y-32279624D02*
X005627400Y-32198023D01*
X005627400Y-32198023D02*
X005645848Y-32099555D01*
X005645848Y-32099555D02*
X005638162Y-31982109D01*
X005638162Y-31982109D02*
X005605878Y-31902915D01*
X005605878Y-31902915D02*
X005546692Y-31848370D01*
X005546692Y-31848370D02*
X005480587Y-31830469D01*
X006254868Y-31839697D02*
X005996102Y-32156939D01*
X005996102Y-32156939D02*
X006349179Y-32156939D01*
X006251849Y-32054717D02*
X006251849Y-32314279D01*
X006864691Y-31830469D02*
X006798589Y-31848370D01*
X006798589Y-31848370D02*
X006739403Y-31902915D01*
X006739403Y-31902915D02*
X006707120Y-31982109D01*
X006707120Y-31982109D02*
X006699433Y-32099555D01*
X006699433Y-32099555D02*
X006717881Y-32198023D01*
X006717881Y-32198023D02*
X006765537Y-32279624D01*
X006765537Y-32279624D02*
X006833947Y-32322850D01*
X006833947Y-32322850D02*
X006895438Y-32322850D01*
X006895438Y-32322850D02*
X006963849Y-32279624D01*
X006963849Y-32279624D02*
X007011504Y-32198023D01*
X007011504Y-32198023D02*
X007029952Y-32099555D01*
X007029952Y-32099555D02*
X007022266Y-31982109D01*
X007022266Y-31982109D02*
X006989982Y-31902915D01*
X006989982Y-31902915D02*
X006930796Y-31848370D01*
X006930796Y-31848370D02*
X006864691Y-31830469D01*
X008081829Y-32374674D02*
X008415764Y-31839697D01*
X009479306Y-31891551D02*
X009505590Y-31870943D01*
X009505590Y-31870943D02*
X009547479Y-31848864D01*
X009547479Y-31848864D02*
X009600868Y-31830469D01*
X009600868Y-31830469D02*
X009666575Y-31834143D01*
X009666575Y-31834143D02*
X009724071Y-31852544D01*
X009724071Y-31852544D02*
X009765140Y-31885663D01*
X009765140Y-31885663D02*
X009789781Y-31926144D01*
X009789781Y-31926144D02*
X009781567Y-31970304D01*
X009781567Y-31970304D02*
X009748712Y-32003424D01*
X009748712Y-32003424D02*
X009691216Y-32029184D01*
X009691216Y-32029184D02*
X009625507Y-32043904D01*
X009625507Y-32043904D02*
X009568013Y-32051265D01*
X009568013Y-32051265D02*
X009625507Y-32058624D01*
X009625507Y-32058624D02*
X009691216Y-32077025D01*
X009691216Y-32077025D02*
X009748712Y-32106464D01*
X009748712Y-32106464D02*
X009785674Y-32146945D01*
X009785674Y-32146945D02*
X009793887Y-32191105D01*
X009793887Y-32191105D02*
X009777460Y-32238946D01*
X009777460Y-32238946D02*
X009740499Y-32279425D01*
X009740499Y-32279425D02*
X009683002Y-32312546D01*
X009683002Y-32312546D02*
X009639470Y-32322850D01*
X009639470Y-32322850D02*
X009568834Y-32321378D01*
X009568834Y-32321378D02*
X009511339Y-32312546D01*
X009511339Y-32312546D02*
X009471914Y-32300770D01*
X010140211Y-31967188D02*
X010509694Y-32323203D01*
X010509694Y-31967188D02*
X010140211Y-32323203D01*
X011099232Y-31839697D02*
X010840466Y-32156939D01*
X010840466Y-32156939D02*
X011193543Y-32156939D01*
X011096213Y-32054717D02*
X011096213Y-32314279D01*
X012220127Y-32314279D02*
X012220127Y-31839697D01*
X012220127Y-31839697D02*
X012401109Y-32148744D01*
X012401109Y-32148744D02*
X012582090Y-31839697D01*
X012582090Y-31839697D02*
X012582090Y-32314279D01*
X012895089Y-32314279D02*
X013085567Y-31839697D01*
X013085567Y-31839697D02*
X013291232Y-32314279D01*
X012991154Y-32129165D02*
X013185926Y-32129165D01*
X013590558Y-31839697D02*
X013979866Y-31839697D01*
X013790993Y-31839697D02*
X013790993Y-32314279D01*
X014290984Y-32310878D02*
X014290984Y-31851989D01*
X014290984Y-31851989D02*
X014425535Y-31839697D01*
X014425535Y-31839697D02*
X014519973Y-31843807D01*
X014519973Y-31843807D02*
X014576942Y-31856435D01*
X014576942Y-31856435D02*
X014600897Y-31866730D01*
X014600897Y-31866730D02*
X014620612Y-31880130D01*
X014620612Y-31880130D02*
X014635177Y-31896972D01*
X014635177Y-31896972D02*
X014648020Y-31942643D01*
X014648020Y-31942643D02*
X014646815Y-31983145D01*
X014646815Y-31983145D02*
X014633670Y-32012472D01*
X014633670Y-32012472D02*
X014610078Y-32032563D01*
X014610078Y-32032563D02*
X014577532Y-32045359D01*
X014577532Y-32045359D02*
X014515183Y-32055117D01*
X014515183Y-32055117D02*
X014299903Y-32062739D01*
X014478684Y-32082114D02*
X014663544Y-32314279D01*
X015169316Y-31839697D02*
X015169316Y-32314279D01*
X015656974Y-31839697D02*
X016061414Y-32314279D01*
X016065763Y-31839697D02*
X015661322Y-32314279D01*
M02*