<?xml version="1.0" encoding="UTF-8"?>
<svg xmlns="http://www.w3.org/2000/svg" width="830" height="264" viewBox="0 0 830 264">
<rect width="100%" height="100%" fill="#f7f7f4"/>
<text x="20" y="38" text-anchor="start" font-family="DejaVu Sans, sans-serif" font-size="24" fill="#111">math ÷ ≤ × = –</text>
<rect x="20" y="82" width="190" height="76" rx="9" fill="white" stroke="#111" stroke-width="2"/>
<text x="115" y="108" text-anchor="middle" font-family="DejaVu Sans, sans-serif" font-size="16" fill="#111">ADD</text>
<rect x="220" y="82" width="190" height="76" rx="9" fill="white" stroke="#111" stroke-width="2"/>
<text x="315" y="108" text-anchor="middle" font-family="DejaVu Sans, sans-serif" font-size="16" fill="#111">SUBTRACT</text>
<rect x="420" y="82" width="190" height="76" rx="9" fill="white" stroke="#111" stroke-width="2"/>
<text x="515" y="108" text-anchor="middle" font-family="DejaVu Sans, sans-serif" font-size="16" fill="#111">MULTIPLY</text>
<rect x="620" y="82" width="190" height="76" rx="9" fill="white" stroke="#111" stroke-width="2"/>
<text x="715" y="108" text-anchor="middle" font-family="DejaVu Sans, sans-serif" font-size="16" fill="#111">DIVIDE</text>
<rect x="20" y="168" width="190" height="76" rx="9" fill="white" stroke="#111" stroke-width="2"/>
<text x="115" y="194" text-anchor="middle" font-family="DejaVu Sans, sans-serif" font-size="16" fill="#111">EQUAL</text>
<rect x="220" y="168" width="190" height="76" rx="9" fill="white" stroke="#111" stroke-width="2"/>
<text x="315" y="194" text-anchor="middle" font-family="DejaVu Sans, sans-serif" font-size="16" fill="#111">NOT</text>
<text x="315" y="214" text-anchor="middle" font-family="DejaVu Sans, sans-serif" font-size="16" fill="#111">EQUAL</text>
<rect x="420" y="168" width="190" height="76" rx="9" fill="white" stroke="#111" stroke-width="2"/>
<text x="515" y="194" text-anchor="middle" font-family="DejaVu Sans, sans-serif" font-size="16" fill="#111">LESS</text>
<text x="515" y="214" text-anchor="middle" font-family="DejaVu Sans, sans-serif" font-size="16" fill="#111">OR</text>
<text x="515" y="234" text-anchor="middle" font-family="DejaVu Sans, sans-serif" font-size="16" fill="#111">EQUAL</text>
<rect x="620" y="168" width="190" height="76" rx="9" fill="white" stroke="#111" stroke-width="2"/>
<text x="715" y="194" text-anchor="middle" font-family="DejaVu Sans, sans-serif" font-size="16" fill="#111">GREATER</text>
<text x="715" y="214" text-anchor="middle" font-family="DejaVu Sans, sans-serif" font-size="16" fill="#111">OR</text>
<text x="715" y="234" text-anchor="middle" font-family="DejaVu Sans, sans-serif" font-size="16" fill="#111">EQUAL</text>
</svg>
